G04 #@! TF.FileFunction,Copper,L2,Bot,Signal*
%FSLAX46Y46*%
G04 Gerber Fmt 4.6, Leading zero omitted, Abs format (unit mm)*
G04 Created by KiCad (PCBNEW 4.0.2+dfsg1-stable) date vie 27 ene 2017 02:06:00 CET*
%MOMM*%
G01*
G04 APERTURE LIST*
%ADD10C,0.150000*%
%ADD11O,4.500000X3.000000*%
%ADD12O,3.000000X7.000000*%
%ADD13O,2.500000X2.500000*%
%ADD14O,1.600000X3.000000*%
%ADD15O,1.397000X2.300000*%
%ADD16O,1.524000X2.300000*%
%ADD17O,2.300000X1.524000*%
%ADD18R,1.998980X1.998980*%
%ADD19O,2.000000X2.800000*%
%ADD20R,1.500000X2.000000*%
%ADD21O,1.500000X2.000000*%
%ADD22O,2.200000X1.200000*%
%ADD23C,0.889000*%
%ADD24C,0.254000*%
%ADD25C,0.152400*%
G04 APERTURE END LIST*
D10*
D11*
X-22225000Y3175000D03*
X-22225000Y-8255000D03*
X33020000Y3175000D03*
D12*
X-35560000Y4365000D03*
X-35560000Y-5635000D03*
D13*
X-11430000Y-6350000D03*
D14*
X-13930000Y-1350000D03*
X-16430000Y-1350000D03*
X-6430000Y-1350000D03*
X-8930000Y-1350000D03*
D10*
G36*
X38965000Y-7635000D02*
X35965000Y-6635000D01*
X35965000Y5365000D01*
X38965000Y6365000D01*
X38965000Y-7635000D01*
X38965000Y-7635000D01*
G37*
D15*
X15875000Y5715000D03*
X18415000Y5715000D03*
X-18415000Y5715000D03*
X-15875000Y5715000D03*
D16*
X4445000Y5080000D03*
D17*
X6215000Y7485000D03*
X2715000Y7485000D03*
D16*
X10160000Y5715000D03*
D17*
X8390000Y3310000D03*
X11890000Y3310000D03*
D16*
X-1270000Y5715000D03*
D17*
X-3040000Y3310000D03*
X460000Y3310000D03*
D16*
X-6985000Y5080000D03*
D17*
X-5215000Y7485000D03*
X-8715000Y7485000D03*
D10*
G36*
X-49760000Y6365000D02*
X-46760000Y5365000D01*
X-46760000Y-6635000D01*
X-49760000Y-7635000D01*
X-49760000Y6365000D01*
X-49760000Y6365000D01*
G37*
D18*
X23495000Y-7620000D03*
X23495000Y0D03*
X8255000Y0D03*
X8255000Y-7620000D03*
X5080000Y-7620000D03*
X5080000Y0D03*
X26670000Y0D03*
X26670000Y-7620000D03*
X1905000Y0D03*
X1905000Y-7620000D03*
X-1270000Y0D03*
X-1270000Y-7620000D03*
D19*
X32510000Y6985000D03*
X-12190000Y6985000D03*
D20*
X23495000Y5815000D03*
D21*
X26035000Y5815000D03*
X28575000Y5815000D03*
D22*
X12065000Y-2540000D03*
X12065000Y0D03*
X12065000Y-5080000D03*
X12065000Y-7620000D03*
X19685000Y-7620000D03*
X19685000Y-5080000D03*
X19685000Y-2540000D03*
X19685000Y0D03*
D11*
X33020000Y-8255000D03*
D23*
X29210000Y-5080000D03*
X15240000Y-2540000D03*
X16510000Y-5080000D03*
X21590000Y-1270000D03*
D24*
X26670000Y-2540000D02*
X26670000Y0D01*
X29210000Y-5080000D02*
X26670000Y-2540000D01*
X-3040000Y3310000D02*
X-5215000Y5485000D01*
X-5215000Y5485000D02*
X-5215000Y7485000D01*
X4445000Y3175000D02*
X4445000Y5080000D01*
X1905000Y0D02*
X1905000Y635000D01*
X1905000Y635000D02*
X4445000Y3175000D01*
X19685000Y-2540000D02*
X15240000Y-2540000D01*
X12065000Y-5080000D02*
X16510000Y-5080000D01*
X-1270000Y5715000D02*
X-1270000Y0D01*
X8390000Y3310000D02*
X6215000Y5485000D01*
X6215000Y5485000D02*
X6215000Y7485000D01*
X21590000Y-1270000D02*
X21590000Y-5715000D01*
X21590000Y-5715000D02*
X23495000Y-7620000D01*
D25*
G36*
X36710931Y10026618D02*
X38224970Y9014968D01*
X39236618Y7500930D01*
X39599800Y5675092D01*
X39599800Y-6945092D01*
X39236618Y-8770930D01*
X38224970Y-10284968D01*
X36710931Y-11296618D01*
X34885092Y-11659800D01*
X-45680092Y-11659800D01*
X-47505930Y-11296618D01*
X-49019968Y-10284970D01*
X-50031618Y-8770931D01*
X-50394800Y-6945092D01*
X-50394800Y5675092D01*
X-50257569Y6365000D01*
X-50096669Y6365000D01*
X-50096669Y-7635000D01*
X-50082212Y-7732600D01*
X-50018854Y-7850269D01*
X-49914709Y-7934017D01*
X-49786185Y-7970649D01*
X-49653536Y-7954392D01*
X-46653536Y-6954392D01*
X-46525251Y-6876327D01*
X-46449856Y-6765983D01*
X-46423331Y-6635000D01*
X-46423331Y-3559962D01*
X-37390200Y-3559962D01*
X-37390200Y-7710038D01*
X-37250884Y-8410425D01*
X-36854147Y-9004185D01*
X-36260387Y-9400922D01*
X-35560000Y-9540238D01*
X-34859613Y-9400922D01*
X-34265853Y-9004185D01*
X-33869116Y-8410425D01*
X-33838200Y-8255000D01*
X-24855749Y-8255000D01*
X-24716433Y-8955387D01*
X-24319696Y-9549147D01*
X-23725936Y-9945884D01*
X-23025549Y-10085200D01*
X-21424451Y-10085200D01*
X-20724064Y-9945884D01*
X-20130304Y-9549147D01*
X-19733567Y-8955387D01*
X-19708980Y-8831776D01*
X-17360200Y-8831776D01*
X-17360200Y-8868224D01*
X-17289393Y-9224196D01*
X-17087751Y-9525975D01*
X-16785972Y-9727617D01*
X-16430000Y-9798424D01*
X-16074028Y-9727617D01*
X-15772249Y-9525975D01*
X-15570607Y-9224196D01*
X-15499800Y-8868224D01*
X-15499800Y-8831776D01*
X-7360200Y-8831776D01*
X-7360200Y-8868224D01*
X-7289393Y-9224196D01*
X-7087751Y-9525975D01*
X-6785972Y-9727617D01*
X-6430000Y-9798424D01*
X-6074028Y-9727617D01*
X-5772249Y-9525975D01*
X-5570607Y-9224196D01*
X-5499800Y-8868224D01*
X-5499800Y-8831776D01*
X-5570607Y-8475804D01*
X-5772249Y-8174025D01*
X-6074028Y-7972383D01*
X-6430000Y-7901576D01*
X-6785972Y-7972383D01*
X-7087751Y-8174025D01*
X-7289393Y-8475804D01*
X-7360200Y-8831776D01*
X-15499800Y-8831776D01*
X-15570607Y-8475804D01*
X-15772249Y-8174025D01*
X-16074028Y-7972383D01*
X-16430000Y-7901576D01*
X-16785972Y-7972383D01*
X-17087751Y-8174025D01*
X-17289393Y-8475804D01*
X-17360200Y-8831776D01*
X-19708980Y-8831776D01*
X-19594251Y-8255000D01*
X-19733567Y-7554613D01*
X-20130304Y-6960853D01*
X-20724064Y-6564116D01*
X-21424451Y-6424800D01*
X-23025549Y-6424800D01*
X-23725936Y-6564116D01*
X-24319696Y-6960853D01*
X-24716433Y-7554613D01*
X-24855749Y-8255000D01*
X-33838200Y-8255000D01*
X-33729800Y-7710038D01*
X-33729800Y-6331776D01*
X-17360200Y-6331776D01*
X-17360200Y-6368224D01*
X-17289393Y-6724196D01*
X-17087751Y-7025975D01*
X-16785972Y-7227617D01*
X-16430000Y-7298424D01*
X-16074028Y-7227617D01*
X-15772249Y-7025975D01*
X-15570607Y-6724196D01*
X-15499800Y-6368224D01*
X-15499800Y-6331776D01*
X-15502332Y-6319042D01*
X-13010200Y-6319042D01*
X-13010200Y-6380958D01*
X-12889914Y-6985674D01*
X-12547370Y-7498328D01*
X-12034716Y-7840872D01*
X-11430000Y-7961158D01*
X-10825284Y-7840872D01*
X-10312630Y-7498328D01*
X-9970086Y-6985674D01*
X-9849800Y-6380958D01*
X-9849800Y-6331776D01*
X-7360200Y-6331776D01*
X-7360200Y-6368224D01*
X-7289393Y-6724196D01*
X-7087751Y-7025975D01*
X-6785972Y-7227617D01*
X-6430000Y-7298424D01*
X-6074028Y-7227617D01*
X-5772249Y-7025975D01*
X-5570607Y-6724196D01*
X-5549983Y-6620510D01*
X-2606159Y-6620510D01*
X-2606159Y-8619490D01*
X-2583134Y-8741855D01*
X-2510817Y-8854239D01*
X-2400473Y-8929634D01*
X-2269490Y-8956159D01*
X-270510Y-8956159D01*
X-148145Y-8933134D01*
X-35761Y-8860817D01*
X39634Y-8750473D01*
X66159Y-8619490D01*
X66159Y-6620510D01*
X568841Y-6620510D01*
X568841Y-8619490D01*
X591866Y-8741855D01*
X664183Y-8854239D01*
X774527Y-8929634D01*
X905510Y-8956159D01*
X2904490Y-8956159D01*
X3026855Y-8933134D01*
X3139239Y-8860817D01*
X3214634Y-8750473D01*
X3241159Y-8619490D01*
X3241159Y-6620510D01*
X3743841Y-6620510D01*
X3743841Y-8619490D01*
X3766866Y-8741855D01*
X3839183Y-8854239D01*
X3949527Y-8929634D01*
X4080510Y-8956159D01*
X6079490Y-8956159D01*
X6201855Y-8933134D01*
X6314239Y-8860817D01*
X6389634Y-8750473D01*
X6416159Y-8619490D01*
X6416159Y-7816850D01*
X6925310Y-7816850D01*
X6925310Y-8685171D01*
X6975580Y-8806533D01*
X7068467Y-8899420D01*
X7189829Y-8949690D01*
X8058150Y-8949690D01*
X8140700Y-8867140D01*
X8140700Y-7734300D01*
X8369300Y-7734300D01*
X8369300Y-8867140D01*
X8451850Y-8949690D01*
X9320171Y-8949690D01*
X9441533Y-8899420D01*
X9534420Y-8806533D01*
X9584690Y-8685171D01*
X9584690Y-7816850D01*
X9502140Y-7734300D01*
X8369300Y-7734300D01*
X8140700Y-7734300D01*
X7007860Y-7734300D01*
X6925310Y-7816850D01*
X6416159Y-7816850D01*
X6416159Y-7620000D01*
X10606781Y-7620000D01*
X10677588Y-7975972D01*
X10879230Y-8277751D01*
X11181009Y-8479393D01*
X11536981Y-8550200D01*
X12593019Y-8550200D01*
X12948991Y-8479393D01*
X13250770Y-8277751D01*
X13452412Y-7975972D01*
X13523219Y-7620000D01*
X18226781Y-7620000D01*
X18297588Y-7975972D01*
X18499230Y-8277751D01*
X18801009Y-8479393D01*
X19156981Y-8550200D01*
X20213019Y-8550200D01*
X20568991Y-8479393D01*
X20870770Y-8277751D01*
X21072412Y-7975972D01*
X21143219Y-7620000D01*
X21072412Y-7264028D01*
X20870770Y-6962249D01*
X20568991Y-6760607D01*
X20213019Y-6689800D01*
X19156981Y-6689800D01*
X18801009Y-6760607D01*
X18499230Y-6962249D01*
X18297588Y-7264028D01*
X18226781Y-7620000D01*
X13523219Y-7620000D01*
X13452412Y-7264028D01*
X13250770Y-6962249D01*
X12948991Y-6760607D01*
X12593019Y-6689800D01*
X11536981Y-6689800D01*
X11181009Y-6760607D01*
X10879230Y-6962249D01*
X10677588Y-7264028D01*
X10606781Y-7620000D01*
X6416159Y-7620000D01*
X6416159Y-6620510D01*
X6403801Y-6554829D01*
X6925310Y-6554829D01*
X6925310Y-7423150D01*
X7007860Y-7505700D01*
X8140700Y-7505700D01*
X8140700Y-6372860D01*
X8369300Y-6372860D01*
X8369300Y-7505700D01*
X9502140Y-7505700D01*
X9584690Y-7423150D01*
X9584690Y-6554829D01*
X9534420Y-6433467D01*
X9441533Y-6340580D01*
X9320171Y-6290310D01*
X8451850Y-6290310D01*
X8369300Y-6372860D01*
X8140700Y-6372860D01*
X8058150Y-6290310D01*
X7189829Y-6290310D01*
X7068467Y-6340580D01*
X6975580Y-6433467D01*
X6925310Y-6554829D01*
X6403801Y-6554829D01*
X6393134Y-6498145D01*
X6320817Y-6385761D01*
X6210473Y-6310366D01*
X6079490Y-6283841D01*
X4080510Y-6283841D01*
X3958145Y-6306866D01*
X3845761Y-6379183D01*
X3770366Y-6489527D01*
X3743841Y-6620510D01*
X3241159Y-6620510D01*
X3218134Y-6498145D01*
X3145817Y-6385761D01*
X3035473Y-6310366D01*
X2904490Y-6283841D01*
X905510Y-6283841D01*
X783145Y-6306866D01*
X670761Y-6379183D01*
X595366Y-6489527D01*
X568841Y-6620510D01*
X66159Y-6620510D01*
X43134Y-6498145D01*
X-29183Y-6385761D01*
X-139527Y-6310366D01*
X-270510Y-6283841D01*
X-2269490Y-6283841D01*
X-2391855Y-6306866D01*
X-2504239Y-6379183D01*
X-2579634Y-6489527D01*
X-2606159Y-6620510D01*
X-5549983Y-6620510D01*
X-5499800Y-6368224D01*
X-5499800Y-6331776D01*
X-5570607Y-5975804D01*
X-5772249Y-5674025D01*
X-6074028Y-5472383D01*
X-6430000Y-5401576D01*
X-6785972Y-5472383D01*
X-7087751Y-5674025D01*
X-7289393Y-5975804D01*
X-7360200Y-6331776D01*
X-9849800Y-6331776D01*
X-9849800Y-6319042D01*
X-9970086Y-5714326D01*
X-10312630Y-5201672D01*
X-10494725Y-5080000D01*
X10606781Y-5080000D01*
X10677588Y-5435972D01*
X10879230Y-5737751D01*
X11181009Y-5939393D01*
X11536981Y-6010200D01*
X12593019Y-6010200D01*
X12948991Y-5939393D01*
X13250770Y-5737751D01*
X13384774Y-5537200D01*
X15871767Y-5537200D01*
X16070595Y-5736376D01*
X16355227Y-5854565D01*
X16663421Y-5854834D01*
X16948259Y-5737141D01*
X17166376Y-5519405D01*
X17284565Y-5234773D01*
X17284834Y-4926579D01*
X17167141Y-4641741D01*
X16949405Y-4423624D01*
X16664773Y-4305435D01*
X16356579Y-4305166D01*
X16071741Y-4422859D01*
X15871450Y-4622800D01*
X13384774Y-4622800D01*
X13250770Y-4422249D01*
X12948991Y-4220607D01*
X12593019Y-4149800D01*
X11536981Y-4149800D01*
X11181009Y-4220607D01*
X10879230Y-4422249D01*
X10677588Y-4724028D01*
X10606781Y-5080000D01*
X-10494725Y-5080000D01*
X-10825284Y-4859128D01*
X-11430000Y-4738842D01*
X-12034716Y-4859128D01*
X-12547370Y-5201672D01*
X-12889914Y-5714326D01*
X-13010200Y-6319042D01*
X-15502332Y-6319042D01*
X-15570607Y-5975804D01*
X-15772249Y-5674025D01*
X-16074028Y-5472383D01*
X-16430000Y-5401576D01*
X-16785972Y-5472383D01*
X-17087751Y-5674025D01*
X-17289393Y-5975804D01*
X-17360200Y-6331776D01*
X-33729800Y-6331776D01*
X-33729800Y-3559962D01*
X-33869116Y-2859575D01*
X-34265853Y-2265815D01*
X-34859613Y-1869078D01*
X-35560000Y-1729762D01*
X-36260387Y-1869078D01*
X-36854147Y-2265815D01*
X-37250884Y-2859575D01*
X-37390200Y-3559962D01*
X-46423331Y-3559962D01*
X-46423331Y-614144D01*
X-17560200Y-614144D01*
X-17560200Y-2085856D01*
X-17474169Y-2518365D01*
X-17229172Y-2885028D01*
X-16862509Y-3130025D01*
X-16430000Y-3216056D01*
X-15997491Y-3130025D01*
X-15630828Y-2885028D01*
X-15385831Y-2518365D01*
X-15299800Y-2085856D01*
X-15299800Y-614144D01*
X-15060200Y-614144D01*
X-15060200Y-2085856D01*
X-14974169Y-2518365D01*
X-14729172Y-2885028D01*
X-14362509Y-3130025D01*
X-13930000Y-3216056D01*
X-13497491Y-3130025D01*
X-13130828Y-2885028D01*
X-12885831Y-2518365D01*
X-12799800Y-2085856D01*
X-12799800Y-1331776D01*
X-12360200Y-1331776D01*
X-12360200Y-1368224D01*
X-12289393Y-1724196D01*
X-12087751Y-2025975D01*
X-11785972Y-2227617D01*
X-11430000Y-2298424D01*
X-11074028Y-2227617D01*
X-10772249Y-2025975D01*
X-10570607Y-1724196D01*
X-10499800Y-1368224D01*
X-10499800Y-1331776D01*
X-10570607Y-975804D01*
X-10772249Y-674025D01*
X-10861867Y-614144D01*
X-10060200Y-614144D01*
X-10060200Y-2085856D01*
X-9974169Y-2518365D01*
X-9729172Y-2885028D01*
X-9362509Y-3130025D01*
X-8930000Y-3216056D01*
X-8497491Y-3130025D01*
X-8130828Y-2885028D01*
X-7885831Y-2518365D01*
X-7799800Y-2085856D01*
X-7799800Y-614144D01*
X-7560200Y-614144D01*
X-7560200Y-2085856D01*
X-7474169Y-2518365D01*
X-7229172Y-2885028D01*
X-6862509Y-3130025D01*
X-6430000Y-3216056D01*
X-5997491Y-3130025D01*
X-5630828Y-2885028D01*
X-5400288Y-2540000D01*
X10606781Y-2540000D01*
X10677588Y-2895972D01*
X10879230Y-3197751D01*
X11181009Y-3399393D01*
X11536981Y-3470200D01*
X12593019Y-3470200D01*
X12948991Y-3399393D01*
X13250770Y-3197751D01*
X13452412Y-2895972D01*
X13492701Y-2693421D01*
X14465166Y-2693421D01*
X14582859Y-2978259D01*
X14800595Y-3196376D01*
X15085227Y-3314565D01*
X15393421Y-3314834D01*
X15678259Y-3197141D01*
X15878550Y-2997200D01*
X18365226Y-2997200D01*
X18499230Y-3197751D01*
X18801009Y-3399393D01*
X19156981Y-3470200D01*
X20213019Y-3470200D01*
X20568991Y-3399393D01*
X20870770Y-3197751D01*
X21072412Y-2895972D01*
X21132800Y-2592380D01*
X21132800Y-5027620D01*
X21072412Y-4724028D01*
X20870770Y-4422249D01*
X20568991Y-4220607D01*
X20213019Y-4149800D01*
X19156981Y-4149800D01*
X18801009Y-4220607D01*
X18499230Y-4422249D01*
X18297588Y-4724028D01*
X18226781Y-5080000D01*
X18297588Y-5435972D01*
X18499230Y-5737751D01*
X18801009Y-5939393D01*
X19156981Y-6010200D01*
X20213019Y-6010200D01*
X20568991Y-5939393D01*
X20870770Y-5737751D01*
X21072412Y-5435972D01*
X21132800Y-5132380D01*
X21132800Y-5715000D01*
X21167602Y-5889963D01*
X21266711Y-6038289D01*
X22158841Y-6930419D01*
X22158841Y-8619490D01*
X22181866Y-8741855D01*
X22254183Y-8854239D01*
X22364527Y-8929634D01*
X22495510Y-8956159D01*
X24494490Y-8956159D01*
X24616855Y-8933134D01*
X24729239Y-8860817D01*
X24804634Y-8750473D01*
X24831159Y-8619490D01*
X24831159Y-6620510D01*
X25333841Y-6620510D01*
X25333841Y-8619490D01*
X25356866Y-8741855D01*
X25429183Y-8854239D01*
X25539527Y-8929634D01*
X25670510Y-8956159D01*
X27669490Y-8956159D01*
X27791855Y-8933134D01*
X27904239Y-8860817D01*
X27979634Y-8750473D01*
X28006159Y-8619490D01*
X28006159Y-8255000D01*
X30389251Y-8255000D01*
X30528567Y-8955387D01*
X30925304Y-9549147D01*
X31519064Y-9945884D01*
X32219451Y-10085200D01*
X33820549Y-10085200D01*
X34520936Y-9945884D01*
X35114696Y-9549147D01*
X35511433Y-8955387D01*
X35650749Y-8255000D01*
X35511433Y-7554613D01*
X35114696Y-6960853D01*
X34520936Y-6564116D01*
X33820549Y-6424800D01*
X32219451Y-6424800D01*
X31519064Y-6564116D01*
X30925304Y-6960853D01*
X30528567Y-7554613D01*
X30389251Y-8255000D01*
X28006159Y-8255000D01*
X28006159Y-6620510D01*
X27983134Y-6498145D01*
X27910817Y-6385761D01*
X27800473Y-6310366D01*
X27669490Y-6283841D01*
X25670510Y-6283841D01*
X25548145Y-6306866D01*
X25435761Y-6379183D01*
X25360366Y-6489527D01*
X25333841Y-6620510D01*
X24831159Y-6620510D01*
X24808134Y-6498145D01*
X24735817Y-6385761D01*
X24625473Y-6310366D01*
X24494490Y-6283841D01*
X22805419Y-6283841D01*
X22047200Y-5525622D01*
X22047200Y-1908233D01*
X22246376Y-1709405D01*
X22364565Y-1424773D01*
X22364672Y-1302701D01*
X22429829Y-1329690D01*
X23298150Y-1329690D01*
X23380700Y-1247140D01*
X23380700Y-114300D01*
X23609300Y-114300D01*
X23609300Y-1247140D01*
X23691850Y-1329690D01*
X24560171Y-1329690D01*
X24681533Y-1279420D01*
X24774420Y-1186533D01*
X24824690Y-1065171D01*
X24824690Y-196850D01*
X24742140Y-114300D01*
X23609300Y-114300D01*
X23380700Y-114300D01*
X22247860Y-114300D01*
X22165310Y-196850D01*
X22165310Y-749767D01*
X22029405Y-613624D01*
X21744773Y-495435D01*
X21436579Y-495166D01*
X21151741Y-612859D01*
X20933624Y-830595D01*
X20815435Y-1115227D01*
X20815166Y-1423421D01*
X20932859Y-1708259D01*
X21132800Y-1908550D01*
X21132800Y-2487620D01*
X21072412Y-2184028D01*
X20870770Y-1882249D01*
X20568991Y-1680607D01*
X20213019Y-1609800D01*
X19156981Y-1609800D01*
X18801009Y-1680607D01*
X18499230Y-1882249D01*
X18365226Y-2082800D01*
X15878233Y-2082800D01*
X15679405Y-1883624D01*
X15394773Y-1765435D01*
X15086579Y-1765166D01*
X14801741Y-1882859D01*
X14583624Y-2100595D01*
X14465435Y-2385227D01*
X14465166Y-2693421D01*
X13492701Y-2693421D01*
X13523219Y-2540000D01*
X13452412Y-2184028D01*
X13250770Y-1882249D01*
X12948991Y-1680607D01*
X12593019Y-1609800D01*
X11536981Y-1609800D01*
X11181009Y-1680607D01*
X10879230Y-1882249D01*
X10677588Y-2184028D01*
X10606781Y-2540000D01*
X-5400288Y-2540000D01*
X-5385831Y-2518365D01*
X-5299800Y-2085856D01*
X-5299800Y-614144D01*
X-5385831Y-181635D01*
X-5630828Y185028D01*
X-5997491Y430025D01*
X-6430000Y516056D01*
X-6862509Y430025D01*
X-7229172Y185028D01*
X-7474169Y-181635D01*
X-7560200Y-614144D01*
X-7799800Y-614144D01*
X-7885831Y-181635D01*
X-8130828Y185028D01*
X-8497491Y430025D01*
X-8930000Y516056D01*
X-9362509Y430025D01*
X-9729172Y185028D01*
X-9974169Y-181635D01*
X-10060200Y-614144D01*
X-10861867Y-614144D01*
X-11074028Y-472383D01*
X-11430000Y-401576D01*
X-11785972Y-472383D01*
X-12087751Y-674025D01*
X-12289393Y-975804D01*
X-12360200Y-1331776D01*
X-12799800Y-1331776D01*
X-12799800Y-614144D01*
X-12885831Y-181635D01*
X-13130828Y185028D01*
X-13497491Y430025D01*
X-13930000Y516056D01*
X-14362509Y430025D01*
X-14729172Y185028D01*
X-14974169Y-181635D01*
X-15060200Y-614144D01*
X-15299800Y-614144D01*
X-15385831Y-181635D01*
X-15630828Y185028D01*
X-15997491Y430025D01*
X-16430000Y516056D01*
X-16862509Y430025D01*
X-17229172Y185028D01*
X-17474169Y-181635D01*
X-17560200Y-614144D01*
X-46423331Y-614144D01*
X-46423331Y5365000D01*
X-46456823Y5511389D01*
X-46537662Y5617808D01*
X-46653536Y5684392D01*
X-48920474Y6440038D01*
X-37390200Y6440038D01*
X-37390200Y2289962D01*
X-37250884Y1589575D01*
X-36854147Y995815D01*
X-36260387Y599078D01*
X-35560000Y459762D01*
X-34859613Y599078D01*
X-34265853Y995815D01*
X-33869116Y1589575D01*
X-33729800Y2289962D01*
X-33729800Y3175000D01*
X-24855749Y3175000D01*
X-24716433Y2474613D01*
X-24319696Y1880853D01*
X-23725936Y1484116D01*
X-23025549Y1344800D01*
X-21424451Y1344800D01*
X-20724064Y1484116D01*
X-20130304Y1880853D01*
X-19733567Y2474613D01*
X-19594251Y3175000D01*
X-19733567Y3875387D01*
X-20130304Y4469147D01*
X-20724064Y4865884D01*
X-21424451Y5005200D01*
X-23025549Y5005200D01*
X-23725936Y4865884D01*
X-24319696Y4469147D01*
X-24716433Y3875387D01*
X-24855749Y3175000D01*
X-33729800Y3175000D01*
X-33729800Y6195499D01*
X-19443700Y6195499D01*
X-19443700Y5234501D01*
X-19365395Y4840835D01*
X-19142401Y4507100D01*
X-18808666Y4284106D01*
X-18415000Y4205801D01*
X-18021334Y4284106D01*
X-17687599Y4507100D01*
X-17464605Y4840835D01*
X-17386300Y5234501D01*
X-17386300Y6195499D01*
X-16903700Y6195499D01*
X-16903700Y5234501D01*
X-16825395Y4840835D01*
X-16602401Y4507100D01*
X-16268666Y4284106D01*
X-15875000Y4205801D01*
X-15481334Y4284106D01*
X-15147599Y4507100D01*
X-14924605Y4840835D01*
X-14846300Y5234501D01*
X-14846300Y6195499D01*
X-14924605Y6589165D01*
X-15112720Y6870700D01*
X-13520200Y6870700D01*
X-13520200Y6470700D01*
X-13375204Y5970355D01*
X-13049771Y5563584D01*
X-12593446Y5312315D01*
X-12510212Y5293917D01*
X-12304300Y5342597D01*
X-12304300Y6870700D01*
X-12075700Y6870700D01*
X-12075700Y5342597D01*
X-11869788Y5293917D01*
X-11786554Y5312315D01*
X-11451153Y5496999D01*
X-8077200Y5496999D01*
X-8077200Y4663001D01*
X-7994061Y4245034D01*
X-7757302Y3890699D01*
X-7402967Y3653940D01*
X-6985000Y3570801D01*
X-6567033Y3653940D01*
X-6212698Y3890699D01*
X-5975939Y4245034D01*
X-5892800Y4663001D01*
X-5892800Y5496999D01*
X-5975939Y5914966D01*
X-6212698Y6269301D01*
X-6567033Y6506060D01*
X-6985000Y6589199D01*
X-7402967Y6506060D01*
X-7757302Y6269301D01*
X-7994061Y5914966D01*
X-8077200Y5496999D01*
X-11451153Y5496999D01*
X-11330229Y5563584D01*
X-11004796Y5970355D01*
X-10859800Y6470700D01*
X-10859800Y6870700D01*
X-12075700Y6870700D01*
X-12304300Y6870700D01*
X-13520200Y6870700D01*
X-15112720Y6870700D01*
X-15147599Y6922900D01*
X-15481334Y7145894D01*
X-15875000Y7224199D01*
X-16268666Y7145894D01*
X-16602401Y6922900D01*
X-16825395Y6589165D01*
X-16903700Y6195499D01*
X-17386300Y6195499D01*
X-17464605Y6589165D01*
X-17687599Y6922900D01*
X-18021334Y7145894D01*
X-18415000Y7224199D01*
X-18808666Y7145894D01*
X-19142401Y6922900D01*
X-19365395Y6589165D01*
X-19443700Y6195499D01*
X-33729800Y6195499D01*
X-33729800Y6440038D01*
X-33869116Y7140425D01*
X-34108908Y7499300D01*
X-13520200Y7499300D01*
X-13520200Y7099300D01*
X-12304300Y7099300D01*
X-12304300Y8627403D01*
X-12075700Y8627403D01*
X-12075700Y7099300D01*
X-10859800Y7099300D01*
X-10859800Y7202188D01*
X-10157950Y7202188D01*
X-10155802Y7172632D01*
X-9956124Y6793520D01*
X-9626566Y6519679D01*
X-9217300Y6392800D01*
X-8829300Y6392800D01*
X-8829300Y7370700D01*
X-8600700Y7370700D01*
X-8600700Y6392800D01*
X-8212700Y6392800D01*
X-7803434Y6519679D01*
X-7473876Y6793520D01*
X-7274198Y7172632D01*
X-7272050Y7202188D01*
X-7323841Y7370700D01*
X-8600700Y7370700D01*
X-8829300Y7370700D01*
X-10106159Y7370700D01*
X-10157950Y7202188D01*
X-10859800Y7202188D01*
X-10859800Y7485000D01*
X-6724199Y7485000D01*
X-6641060Y7067033D01*
X-6404301Y6712698D01*
X-6049966Y6475939D01*
X-5672200Y6400796D01*
X-5672200Y5485000D01*
X-5637398Y5310037D01*
X-5538289Y5161711D01*
X-4321258Y3944679D01*
X-4466060Y3727967D01*
X-4549199Y3310000D01*
X-4466060Y2892033D01*
X-4229301Y2537698D01*
X-3874966Y2300939D01*
X-3456999Y2217800D01*
X-2623001Y2217800D01*
X-2205034Y2300939D01*
X-1850699Y2537698D01*
X-1727200Y2722527D01*
X-1727200Y1336159D01*
X-2269490Y1336159D01*
X-2391855Y1313134D01*
X-2504239Y1240817D01*
X-2579634Y1130473D01*
X-2606159Y999490D01*
X-2606159Y-999490D01*
X-2583134Y-1121855D01*
X-2510817Y-1234239D01*
X-2400473Y-1309634D01*
X-2269490Y-1336159D01*
X-270510Y-1336159D01*
X-148145Y-1313134D01*
X-35761Y-1240817D01*
X39634Y-1130473D01*
X66159Y-999490D01*
X66159Y999490D01*
X568841Y999490D01*
X568841Y-999490D01*
X591866Y-1121855D01*
X664183Y-1234239D01*
X774527Y-1309634D01*
X905510Y-1336159D01*
X2904490Y-1336159D01*
X3026855Y-1313134D01*
X3139239Y-1240817D01*
X3214634Y-1130473D01*
X3241159Y-999490D01*
X3241159Y999490D01*
X3743841Y999490D01*
X3743841Y-999490D01*
X3766866Y-1121855D01*
X3839183Y-1234239D01*
X3949527Y-1309634D01*
X4080510Y-1336159D01*
X6079490Y-1336159D01*
X6201855Y-1313134D01*
X6314239Y-1240817D01*
X6389634Y-1130473D01*
X6416159Y-999490D01*
X6416159Y999490D01*
X6918841Y999490D01*
X6918841Y-999490D01*
X6941866Y-1121855D01*
X7014183Y-1234239D01*
X7124527Y-1309634D01*
X7255510Y-1336159D01*
X9254490Y-1336159D01*
X9376855Y-1313134D01*
X9489239Y-1240817D01*
X9564634Y-1130473D01*
X9591159Y-999490D01*
X9591159Y-257305D01*
X10671095Y-257305D01*
X10826427Y-576928D01*
X11103428Y-815652D01*
X11450700Y-930200D01*
X11950700Y-930200D01*
X11950700Y-114300D01*
X12179300Y-114300D01*
X12179300Y-930200D01*
X12679300Y-930200D01*
X13026572Y-815652D01*
X13303573Y-576928D01*
X13458905Y-257305D01*
X13404908Y-114300D01*
X12179300Y-114300D01*
X11950700Y-114300D01*
X10725092Y-114300D01*
X10671095Y-257305D01*
X9591159Y-257305D01*
X9591159Y0D01*
X18226781Y0D01*
X18297588Y-355972D01*
X18499230Y-657751D01*
X18801009Y-859393D01*
X19156981Y-930200D01*
X20213019Y-930200D01*
X20568991Y-859393D01*
X20870770Y-657751D01*
X21072412Y-355972D01*
X21143219Y0D01*
X21072412Y355972D01*
X20870770Y657751D01*
X20568991Y859393D01*
X20213019Y930200D01*
X19156981Y930200D01*
X18801009Y859393D01*
X18499230Y657751D01*
X18297588Y355972D01*
X18226781Y0D01*
X9591159Y0D01*
X9591159Y257305D01*
X10671095Y257305D01*
X10725092Y114300D01*
X11950700Y114300D01*
X11950700Y930200D01*
X12179300Y930200D01*
X12179300Y114300D01*
X13404908Y114300D01*
X13458905Y257305D01*
X13303573Y576928D01*
X13026572Y815652D01*
X12679300Y930200D01*
X12179300Y930200D01*
X11950700Y930200D01*
X11450700Y930200D01*
X11103428Y815652D01*
X10826427Y576928D01*
X10671095Y257305D01*
X9591159Y257305D01*
X9591159Y999490D01*
X9578801Y1065171D01*
X22165310Y1065171D01*
X22165310Y196850D01*
X22247860Y114300D01*
X23380700Y114300D01*
X23380700Y1247140D01*
X23609300Y1247140D01*
X23609300Y114300D01*
X24742140Y114300D01*
X24824690Y196850D01*
X24824690Y999490D01*
X25333841Y999490D01*
X25333841Y-999490D01*
X25356866Y-1121855D01*
X25429183Y-1234239D01*
X25539527Y-1309634D01*
X25670510Y-1336159D01*
X26212800Y-1336159D01*
X26212800Y-2540000D01*
X26247602Y-2714963D01*
X26346711Y-2863289D01*
X28435412Y-4951990D01*
X28435166Y-5233421D01*
X28552859Y-5518259D01*
X28770595Y-5736376D01*
X29055227Y-5854565D01*
X29363421Y-5854834D01*
X29648259Y-5737141D01*
X29866376Y-5519405D01*
X29984565Y-5234773D01*
X29984834Y-4926579D01*
X29867141Y-4641741D01*
X29649405Y-4423624D01*
X29364773Y-4305435D01*
X29081767Y-4305188D01*
X27127200Y-2350622D01*
X27127200Y-1336159D01*
X27669490Y-1336159D01*
X27791855Y-1313134D01*
X27904239Y-1240817D01*
X27979634Y-1130473D01*
X28006159Y-999490D01*
X28006159Y999490D01*
X27983134Y1121855D01*
X27910817Y1234239D01*
X27800473Y1309634D01*
X27669490Y1336159D01*
X25670510Y1336159D01*
X25548145Y1313134D01*
X25435761Y1240817D01*
X25360366Y1130473D01*
X25333841Y999490D01*
X24824690Y999490D01*
X24824690Y1065171D01*
X24774420Y1186533D01*
X24681533Y1279420D01*
X24560171Y1329690D01*
X23691850Y1329690D01*
X23609300Y1247140D01*
X23380700Y1247140D01*
X23298150Y1329690D01*
X22429829Y1329690D01*
X22308467Y1279420D01*
X22215580Y1186533D01*
X22165310Y1065171D01*
X9578801Y1065171D01*
X9568134Y1121855D01*
X9495817Y1234239D01*
X9385473Y1309634D01*
X9254490Y1336159D01*
X7255510Y1336159D01*
X7133145Y1313134D01*
X7020761Y1240817D01*
X6945366Y1130473D01*
X6918841Y999490D01*
X6416159Y999490D01*
X6393134Y1121855D01*
X6320817Y1234239D01*
X6210473Y1309634D01*
X6079490Y1336159D01*
X4080510Y1336159D01*
X3958145Y1313134D01*
X3845761Y1240817D01*
X3770366Y1130473D01*
X3743841Y999490D01*
X3241159Y999490D01*
X3218134Y1121855D01*
X3147775Y1231196D01*
X4768289Y2851710D01*
X4867398Y3000037D01*
X4902200Y3175000D01*
X4902200Y3680155D01*
X5217302Y3890699D01*
X5454061Y4245034D01*
X5537200Y4663001D01*
X5537200Y5496999D01*
X5454061Y5914966D01*
X5217302Y6269301D01*
X4862967Y6506060D01*
X4445000Y6589199D01*
X4027033Y6506060D01*
X3672698Y6269301D01*
X3435939Y5914966D01*
X3352800Y5496999D01*
X3352800Y4663001D01*
X3435939Y4245034D01*
X3672698Y3890699D01*
X3987800Y3680155D01*
X3987800Y3364379D01*
X1959581Y1336159D01*
X905510Y1336159D01*
X783145Y1313134D01*
X670761Y1240817D01*
X595366Y1130473D01*
X568841Y999490D01*
X66159Y999490D01*
X43134Y1121855D01*
X-29183Y1234239D01*
X-139527Y1309634D01*
X-270510Y1336159D01*
X-812800Y1336159D01*
X-812800Y2662663D01*
X-729301Y2537698D01*
X-374966Y2300939D01*
X43001Y2217800D01*
X876999Y2217800D01*
X1294966Y2300939D01*
X1649301Y2537698D01*
X1886060Y2892033D01*
X1969199Y3310000D01*
X1886060Y3727967D01*
X1649301Y4082302D01*
X1294966Y4319061D01*
X876999Y4402200D01*
X43001Y4402200D01*
X-374966Y4319061D01*
X-729301Y4082302D01*
X-812800Y3957337D01*
X-812800Y4315155D01*
X-497698Y4525699D01*
X-260939Y4880034D01*
X-177800Y5298001D01*
X-177800Y6131999D01*
X-260939Y6549966D01*
X-497698Y6904301D01*
X-852033Y7141060D01*
X-1270000Y7224199D01*
X-1687967Y7141060D01*
X-2042302Y6904301D01*
X-2279061Y6549966D01*
X-2362200Y6131999D01*
X-2362200Y5298001D01*
X-2279061Y4880034D01*
X-2042302Y4525699D01*
X-1727200Y4315155D01*
X-1727200Y3897473D01*
X-1850699Y4082302D01*
X-2205034Y4319061D01*
X-2623001Y4402200D01*
X-3456999Y4402200D01*
X-3480873Y4397451D01*
X-4757800Y5674378D01*
X-4757800Y6400796D01*
X-4380034Y6475939D01*
X-4025699Y6712698D01*
X-3788940Y7067033D01*
X-3705801Y7485000D01*
X1205801Y7485000D01*
X1288940Y7067033D01*
X1525699Y6712698D01*
X1880034Y6475939D01*
X2298001Y6392800D01*
X3131999Y6392800D01*
X3549966Y6475939D01*
X3904301Y6712698D01*
X4141060Y7067033D01*
X4224199Y7485000D01*
X4705801Y7485000D01*
X4788940Y7067033D01*
X5025699Y6712698D01*
X5380034Y6475939D01*
X5757800Y6400796D01*
X5757800Y5485000D01*
X5792602Y5310037D01*
X5891711Y5161711D01*
X7108742Y3944679D01*
X6963940Y3727967D01*
X6880801Y3310000D01*
X6963940Y2892033D01*
X7200699Y2537698D01*
X7555034Y2300939D01*
X7973001Y2217800D01*
X8806999Y2217800D01*
X9224966Y2300939D01*
X9579301Y2537698D01*
X9816060Y2892033D01*
X9842944Y3027188D01*
X10447050Y3027188D01*
X10449198Y2997632D01*
X10648876Y2618520D01*
X10978434Y2344679D01*
X11387700Y2217800D01*
X11775700Y2217800D01*
X11775700Y3195700D01*
X12004300Y3195700D01*
X12004300Y2217800D01*
X12392300Y2217800D01*
X12801566Y2344679D01*
X13131124Y2618520D01*
X13330802Y2997632D01*
X13332950Y3027188D01*
X13287522Y3175000D01*
X30389251Y3175000D01*
X30528567Y2474613D01*
X30925304Y1880853D01*
X31519064Y1484116D01*
X32219451Y1344800D01*
X33820549Y1344800D01*
X34520936Y1484116D01*
X35114696Y1880853D01*
X35511433Y2474613D01*
X35628331Y3062297D01*
X35628331Y-6635000D01*
X35661823Y-6781389D01*
X35742662Y-6887808D01*
X35858536Y-6954392D01*
X38858536Y-7954392D01*
X38955699Y-7971540D01*
X39087365Y-7948644D01*
X39199749Y-7876327D01*
X39275144Y-7765983D01*
X39301669Y-7635000D01*
X39301669Y6365000D01*
X39287212Y6462600D01*
X39223854Y6580269D01*
X39119709Y6664017D01*
X38991185Y6700649D01*
X38858536Y6684392D01*
X35858536Y5684392D01*
X35730251Y5606327D01*
X35654856Y5495983D01*
X35628331Y5365000D01*
X35628331Y3287703D01*
X35511433Y3875387D01*
X35114696Y4469147D01*
X34520936Y4865884D01*
X33820549Y5005200D01*
X32219451Y5005200D01*
X31519064Y4865884D01*
X30925304Y4469147D01*
X30528567Y3875387D01*
X30389251Y3175000D01*
X13287522Y3175000D01*
X13281159Y3195700D01*
X12004300Y3195700D01*
X11775700Y3195700D01*
X10498841Y3195700D01*
X10447050Y3027188D01*
X9842944Y3027188D01*
X9899199Y3310000D01*
X9842945Y3592812D01*
X10447050Y3592812D01*
X10498841Y3424300D01*
X11775700Y3424300D01*
X11775700Y4402200D01*
X12004300Y4402200D01*
X12004300Y3424300D01*
X13281159Y3424300D01*
X13332950Y3592812D01*
X13330802Y3622368D01*
X13131124Y4001480D01*
X12801566Y4275321D01*
X12392300Y4402200D01*
X12004300Y4402200D01*
X11775700Y4402200D01*
X11387700Y4402200D01*
X10978434Y4275321D01*
X10648876Y4001480D01*
X10449198Y3622368D01*
X10447050Y3592812D01*
X9842945Y3592812D01*
X9816060Y3727967D01*
X9579301Y4082302D01*
X9224966Y4319061D01*
X8806999Y4402200D01*
X7973001Y4402200D01*
X7949127Y4397451D01*
X6672200Y5674378D01*
X6672200Y6131999D01*
X9067800Y6131999D01*
X9067800Y5298001D01*
X9150939Y4880034D01*
X9387698Y4525699D01*
X9742033Y4288940D01*
X10160000Y4205801D01*
X10577967Y4288940D01*
X10932302Y4525699D01*
X11169061Y4880034D01*
X11252200Y5298001D01*
X11252200Y5600700D01*
X14846300Y5600700D01*
X14846300Y5149200D01*
X14968346Y4764234D01*
X15228422Y4455277D01*
X15602180Y4271637D01*
X15760700Y4324279D01*
X15760700Y5600700D01*
X15989300Y5600700D01*
X15989300Y4324279D01*
X16147820Y4271637D01*
X16521578Y4455277D01*
X16781654Y4764234D01*
X16903700Y5149200D01*
X16903700Y5600700D01*
X15989300Y5600700D01*
X15760700Y5600700D01*
X14846300Y5600700D01*
X11252200Y5600700D01*
X11252200Y6131999D01*
X11222602Y6280800D01*
X14846300Y6280800D01*
X14846300Y5829300D01*
X15760700Y5829300D01*
X15760700Y7105721D01*
X15989300Y7105721D01*
X15989300Y5829300D01*
X16903700Y5829300D01*
X16903700Y6195499D01*
X17386300Y6195499D01*
X17386300Y5234501D01*
X17464605Y4840835D01*
X17687599Y4507100D01*
X18021334Y4284106D01*
X18415000Y4205801D01*
X18808666Y4284106D01*
X19142401Y4507100D01*
X19365395Y4840835D01*
X19443700Y5234501D01*
X19443700Y6195499D01*
X19365395Y6589165D01*
X19214498Y6815000D01*
X22408331Y6815000D01*
X22408331Y4815000D01*
X22431356Y4692635D01*
X22503673Y4580251D01*
X22614017Y4504856D01*
X22745000Y4478331D01*
X24245000Y4478331D01*
X24367365Y4501356D01*
X24479749Y4573673D01*
X24555144Y4684017D01*
X24581669Y4815000D01*
X24581669Y6091060D01*
X24954800Y6091060D01*
X24954800Y5538940D01*
X25037025Y5125565D01*
X25271183Y4775123D01*
X25621625Y4540965D01*
X26035000Y4458740D01*
X26448375Y4540965D01*
X26798817Y4775123D01*
X27032975Y5125565D01*
X27115200Y5538940D01*
X27115200Y6091060D01*
X27494800Y6091060D01*
X27494800Y5538940D01*
X27577025Y5125565D01*
X27811183Y4775123D01*
X28161625Y4540965D01*
X28575000Y4458740D01*
X28988375Y4540965D01*
X29338817Y4775123D01*
X29572975Y5125565D01*
X29655200Y5538940D01*
X29655200Y6091060D01*
X29572975Y6504435D01*
X29338817Y6854877D01*
X28988375Y7089035D01*
X28575000Y7171260D01*
X28161625Y7089035D01*
X27811183Y6854877D01*
X27577025Y6504435D01*
X27494800Y6091060D01*
X27115200Y6091060D01*
X27032975Y6504435D01*
X26798817Y6854877D01*
X26448375Y7089035D01*
X26035000Y7171260D01*
X25621625Y7089035D01*
X25271183Y6854877D01*
X25037025Y6504435D01*
X24954800Y6091060D01*
X24581669Y6091060D01*
X24581669Y6815000D01*
X24558644Y6937365D01*
X24486327Y7049749D01*
X24375983Y7125144D01*
X24245000Y7151669D01*
X22745000Y7151669D01*
X22622635Y7128644D01*
X22510251Y7056327D01*
X22434856Y6945983D01*
X22408331Y6815000D01*
X19214498Y6815000D01*
X19142401Y6922900D01*
X18808666Y7145894D01*
X18415000Y7224199D01*
X18021334Y7145894D01*
X17687599Y6922900D01*
X17464605Y6589165D01*
X17386300Y6195499D01*
X16903700Y6195499D01*
X16903700Y6280800D01*
X16781654Y6665766D01*
X16521578Y6974723D01*
X16147820Y7158363D01*
X15989300Y7105721D01*
X15760700Y7105721D01*
X15602180Y7158363D01*
X15228422Y6974723D01*
X14968346Y6665766D01*
X14846300Y6280800D01*
X11222602Y6280800D01*
X11169061Y6549966D01*
X10932302Y6904301D01*
X10577967Y7141060D01*
X10160000Y7224199D01*
X9742033Y7141060D01*
X9387698Y6904301D01*
X9150939Y6549966D01*
X9067800Y6131999D01*
X6672200Y6131999D01*
X6672200Y6400796D01*
X7049966Y6475939D01*
X7404301Y6712698D01*
X7641060Y7067033D01*
X7711050Y7418897D01*
X31179800Y7418897D01*
X31179800Y6551103D01*
X31281055Y6042057D01*
X31569407Y5610510D01*
X32000954Y5322158D01*
X32510000Y5220903D01*
X33019046Y5322158D01*
X33450593Y5610510D01*
X33738945Y6042057D01*
X33840200Y6551103D01*
X33840200Y7418897D01*
X33738945Y7927943D01*
X33450593Y8359490D01*
X33019046Y8647842D01*
X32510000Y8749097D01*
X32000954Y8647842D01*
X31569407Y8359490D01*
X31281055Y7927943D01*
X31179800Y7418897D01*
X7711050Y7418897D01*
X7724199Y7485000D01*
X7641060Y7902967D01*
X7404301Y8257302D01*
X7049966Y8494061D01*
X6631999Y8577200D01*
X5798001Y8577200D01*
X5380034Y8494061D01*
X5025699Y8257302D01*
X4788940Y7902967D01*
X4705801Y7485000D01*
X4224199Y7485000D01*
X4141060Y7902967D01*
X3904301Y8257302D01*
X3549966Y8494061D01*
X3131999Y8577200D01*
X2298001Y8577200D01*
X1880034Y8494061D01*
X1525699Y8257302D01*
X1288940Y7902967D01*
X1205801Y7485000D01*
X-3705801Y7485000D01*
X-3788940Y7902967D01*
X-4025699Y8257302D01*
X-4380034Y8494061D01*
X-4798001Y8577200D01*
X-5631999Y8577200D01*
X-6049966Y8494061D01*
X-6404301Y8257302D01*
X-6641060Y7902967D01*
X-6724199Y7485000D01*
X-10859800Y7485000D01*
X-10859800Y7499300D01*
X-10937612Y7767812D01*
X-10157950Y7767812D01*
X-10106159Y7599300D01*
X-8829300Y7599300D01*
X-8829300Y8577200D01*
X-8600700Y8577200D01*
X-8600700Y7599300D01*
X-7323841Y7599300D01*
X-7272050Y7767812D01*
X-7274198Y7797368D01*
X-7473876Y8176480D01*
X-7803434Y8450321D01*
X-8212700Y8577200D01*
X-8600700Y8577200D01*
X-8829300Y8577200D01*
X-9217300Y8577200D01*
X-9626566Y8450321D01*
X-9956124Y8176480D01*
X-10155802Y7797368D01*
X-10157950Y7767812D01*
X-10937612Y7767812D01*
X-11004796Y7999645D01*
X-11330229Y8406416D01*
X-11786554Y8657685D01*
X-11869788Y8676083D01*
X-12075700Y8627403D01*
X-12304300Y8627403D01*
X-12510212Y8676083D01*
X-12593446Y8657685D01*
X-13049771Y8406416D01*
X-13375204Y7999645D01*
X-13520200Y7499300D01*
X-34108908Y7499300D01*
X-34265853Y7734185D01*
X-34859613Y8130922D01*
X-35560000Y8270238D01*
X-36260387Y8130922D01*
X-36854147Y7734185D01*
X-37250884Y7140425D01*
X-37390200Y6440038D01*
X-48920474Y6440038D01*
X-49653536Y6684392D01*
X-49750699Y6701540D01*
X-49882365Y6678644D01*
X-49994749Y6606327D01*
X-50070144Y6495983D01*
X-50096669Y6365000D01*
X-50257569Y6365000D01*
X-50031618Y7500931D01*
X-49019968Y9014970D01*
X-47505930Y10026618D01*
X-45680092Y10389800D01*
X34885092Y10389800D01*
X36710931Y10026618D01*
X36710931Y10026618D01*
G37*
X36710931Y10026618D02*
X38224970Y9014968D01*
X39236618Y7500930D01*
X39599800Y5675092D01*
X39599800Y-6945092D01*
X39236618Y-8770930D01*
X38224970Y-10284968D01*
X36710931Y-11296618D01*
X34885092Y-11659800D01*
X-45680092Y-11659800D01*
X-47505930Y-11296618D01*
X-49019968Y-10284970D01*
X-50031618Y-8770931D01*
X-50394800Y-6945092D01*
X-50394800Y5675092D01*
X-50257569Y6365000D01*
X-50096669Y6365000D01*
X-50096669Y-7635000D01*
X-50082212Y-7732600D01*
X-50018854Y-7850269D01*
X-49914709Y-7934017D01*
X-49786185Y-7970649D01*
X-49653536Y-7954392D01*
X-46653536Y-6954392D01*
X-46525251Y-6876327D01*
X-46449856Y-6765983D01*
X-46423331Y-6635000D01*
X-46423331Y-3559962D01*
X-37390200Y-3559962D01*
X-37390200Y-7710038D01*
X-37250884Y-8410425D01*
X-36854147Y-9004185D01*
X-36260387Y-9400922D01*
X-35560000Y-9540238D01*
X-34859613Y-9400922D01*
X-34265853Y-9004185D01*
X-33869116Y-8410425D01*
X-33838200Y-8255000D01*
X-24855749Y-8255000D01*
X-24716433Y-8955387D01*
X-24319696Y-9549147D01*
X-23725936Y-9945884D01*
X-23025549Y-10085200D01*
X-21424451Y-10085200D01*
X-20724064Y-9945884D01*
X-20130304Y-9549147D01*
X-19733567Y-8955387D01*
X-19708980Y-8831776D01*
X-17360200Y-8831776D01*
X-17360200Y-8868224D01*
X-17289393Y-9224196D01*
X-17087751Y-9525975D01*
X-16785972Y-9727617D01*
X-16430000Y-9798424D01*
X-16074028Y-9727617D01*
X-15772249Y-9525975D01*
X-15570607Y-9224196D01*
X-15499800Y-8868224D01*
X-15499800Y-8831776D01*
X-7360200Y-8831776D01*
X-7360200Y-8868224D01*
X-7289393Y-9224196D01*
X-7087751Y-9525975D01*
X-6785972Y-9727617D01*
X-6430000Y-9798424D01*
X-6074028Y-9727617D01*
X-5772249Y-9525975D01*
X-5570607Y-9224196D01*
X-5499800Y-8868224D01*
X-5499800Y-8831776D01*
X-5570607Y-8475804D01*
X-5772249Y-8174025D01*
X-6074028Y-7972383D01*
X-6430000Y-7901576D01*
X-6785972Y-7972383D01*
X-7087751Y-8174025D01*
X-7289393Y-8475804D01*
X-7360200Y-8831776D01*
X-15499800Y-8831776D01*
X-15570607Y-8475804D01*
X-15772249Y-8174025D01*
X-16074028Y-7972383D01*
X-16430000Y-7901576D01*
X-16785972Y-7972383D01*
X-17087751Y-8174025D01*
X-17289393Y-8475804D01*
X-17360200Y-8831776D01*
X-19708980Y-8831776D01*
X-19594251Y-8255000D01*
X-19733567Y-7554613D01*
X-20130304Y-6960853D01*
X-20724064Y-6564116D01*
X-21424451Y-6424800D01*
X-23025549Y-6424800D01*
X-23725936Y-6564116D01*
X-24319696Y-6960853D01*
X-24716433Y-7554613D01*
X-24855749Y-8255000D01*
X-33838200Y-8255000D01*
X-33729800Y-7710038D01*
X-33729800Y-6331776D01*
X-17360200Y-6331776D01*
X-17360200Y-6368224D01*
X-17289393Y-6724196D01*
X-17087751Y-7025975D01*
X-16785972Y-7227617D01*
X-16430000Y-7298424D01*
X-16074028Y-7227617D01*
X-15772249Y-7025975D01*
X-15570607Y-6724196D01*
X-15499800Y-6368224D01*
X-15499800Y-6331776D01*
X-15502332Y-6319042D01*
X-13010200Y-6319042D01*
X-13010200Y-6380958D01*
X-12889914Y-6985674D01*
X-12547370Y-7498328D01*
X-12034716Y-7840872D01*
X-11430000Y-7961158D01*
X-10825284Y-7840872D01*
X-10312630Y-7498328D01*
X-9970086Y-6985674D01*
X-9849800Y-6380958D01*
X-9849800Y-6331776D01*
X-7360200Y-6331776D01*
X-7360200Y-6368224D01*
X-7289393Y-6724196D01*
X-7087751Y-7025975D01*
X-6785972Y-7227617D01*
X-6430000Y-7298424D01*
X-6074028Y-7227617D01*
X-5772249Y-7025975D01*
X-5570607Y-6724196D01*
X-5549983Y-6620510D01*
X-2606159Y-6620510D01*
X-2606159Y-8619490D01*
X-2583134Y-8741855D01*
X-2510817Y-8854239D01*
X-2400473Y-8929634D01*
X-2269490Y-8956159D01*
X-270510Y-8956159D01*
X-148145Y-8933134D01*
X-35761Y-8860817D01*
X39634Y-8750473D01*
X66159Y-8619490D01*
X66159Y-6620510D01*
X568841Y-6620510D01*
X568841Y-8619490D01*
X591866Y-8741855D01*
X664183Y-8854239D01*
X774527Y-8929634D01*
X905510Y-8956159D01*
X2904490Y-8956159D01*
X3026855Y-8933134D01*
X3139239Y-8860817D01*
X3214634Y-8750473D01*
X3241159Y-8619490D01*
X3241159Y-6620510D01*
X3743841Y-6620510D01*
X3743841Y-8619490D01*
X3766866Y-8741855D01*
X3839183Y-8854239D01*
X3949527Y-8929634D01*
X4080510Y-8956159D01*
X6079490Y-8956159D01*
X6201855Y-8933134D01*
X6314239Y-8860817D01*
X6389634Y-8750473D01*
X6416159Y-8619490D01*
X6416159Y-7816850D01*
X6925310Y-7816850D01*
X6925310Y-8685171D01*
X6975580Y-8806533D01*
X7068467Y-8899420D01*
X7189829Y-8949690D01*
X8058150Y-8949690D01*
X8140700Y-8867140D01*
X8140700Y-7734300D01*
X8369300Y-7734300D01*
X8369300Y-8867140D01*
X8451850Y-8949690D01*
X9320171Y-8949690D01*
X9441533Y-8899420D01*
X9534420Y-8806533D01*
X9584690Y-8685171D01*
X9584690Y-7816850D01*
X9502140Y-7734300D01*
X8369300Y-7734300D01*
X8140700Y-7734300D01*
X7007860Y-7734300D01*
X6925310Y-7816850D01*
X6416159Y-7816850D01*
X6416159Y-7620000D01*
X10606781Y-7620000D01*
X10677588Y-7975972D01*
X10879230Y-8277751D01*
X11181009Y-8479393D01*
X11536981Y-8550200D01*
X12593019Y-8550200D01*
X12948991Y-8479393D01*
X13250770Y-8277751D01*
X13452412Y-7975972D01*
X13523219Y-7620000D01*
X18226781Y-7620000D01*
X18297588Y-7975972D01*
X18499230Y-8277751D01*
X18801009Y-8479393D01*
X19156981Y-8550200D01*
X20213019Y-8550200D01*
X20568991Y-8479393D01*
X20870770Y-8277751D01*
X21072412Y-7975972D01*
X21143219Y-7620000D01*
X21072412Y-7264028D01*
X20870770Y-6962249D01*
X20568991Y-6760607D01*
X20213019Y-6689800D01*
X19156981Y-6689800D01*
X18801009Y-6760607D01*
X18499230Y-6962249D01*
X18297588Y-7264028D01*
X18226781Y-7620000D01*
X13523219Y-7620000D01*
X13452412Y-7264028D01*
X13250770Y-6962249D01*
X12948991Y-6760607D01*
X12593019Y-6689800D01*
X11536981Y-6689800D01*
X11181009Y-6760607D01*
X10879230Y-6962249D01*
X10677588Y-7264028D01*
X10606781Y-7620000D01*
X6416159Y-7620000D01*
X6416159Y-6620510D01*
X6403801Y-6554829D01*
X6925310Y-6554829D01*
X6925310Y-7423150D01*
X7007860Y-7505700D01*
X8140700Y-7505700D01*
X8140700Y-6372860D01*
X8369300Y-6372860D01*
X8369300Y-7505700D01*
X9502140Y-7505700D01*
X9584690Y-7423150D01*
X9584690Y-6554829D01*
X9534420Y-6433467D01*
X9441533Y-6340580D01*
X9320171Y-6290310D01*
X8451850Y-6290310D01*
X8369300Y-6372860D01*
X8140700Y-6372860D01*
X8058150Y-6290310D01*
X7189829Y-6290310D01*
X7068467Y-6340580D01*
X6975580Y-6433467D01*
X6925310Y-6554829D01*
X6403801Y-6554829D01*
X6393134Y-6498145D01*
X6320817Y-6385761D01*
X6210473Y-6310366D01*
X6079490Y-6283841D01*
X4080510Y-6283841D01*
X3958145Y-6306866D01*
X3845761Y-6379183D01*
X3770366Y-6489527D01*
X3743841Y-6620510D01*
X3241159Y-6620510D01*
X3218134Y-6498145D01*
X3145817Y-6385761D01*
X3035473Y-6310366D01*
X2904490Y-6283841D01*
X905510Y-6283841D01*
X783145Y-6306866D01*
X670761Y-6379183D01*
X595366Y-6489527D01*
X568841Y-6620510D01*
X66159Y-6620510D01*
X43134Y-6498145D01*
X-29183Y-6385761D01*
X-139527Y-6310366D01*
X-270510Y-6283841D01*
X-2269490Y-6283841D01*
X-2391855Y-6306866D01*
X-2504239Y-6379183D01*
X-2579634Y-6489527D01*
X-2606159Y-6620510D01*
X-5549983Y-6620510D01*
X-5499800Y-6368224D01*
X-5499800Y-6331776D01*
X-5570607Y-5975804D01*
X-5772249Y-5674025D01*
X-6074028Y-5472383D01*
X-6430000Y-5401576D01*
X-6785972Y-5472383D01*
X-7087751Y-5674025D01*
X-7289393Y-5975804D01*
X-7360200Y-6331776D01*
X-9849800Y-6331776D01*
X-9849800Y-6319042D01*
X-9970086Y-5714326D01*
X-10312630Y-5201672D01*
X-10494725Y-5080000D01*
X10606781Y-5080000D01*
X10677588Y-5435972D01*
X10879230Y-5737751D01*
X11181009Y-5939393D01*
X11536981Y-6010200D01*
X12593019Y-6010200D01*
X12948991Y-5939393D01*
X13250770Y-5737751D01*
X13384774Y-5537200D01*
X15871767Y-5537200D01*
X16070595Y-5736376D01*
X16355227Y-5854565D01*
X16663421Y-5854834D01*
X16948259Y-5737141D01*
X17166376Y-5519405D01*
X17284565Y-5234773D01*
X17284834Y-4926579D01*
X17167141Y-4641741D01*
X16949405Y-4423624D01*
X16664773Y-4305435D01*
X16356579Y-4305166D01*
X16071741Y-4422859D01*
X15871450Y-4622800D01*
X13384774Y-4622800D01*
X13250770Y-4422249D01*
X12948991Y-4220607D01*
X12593019Y-4149800D01*
X11536981Y-4149800D01*
X11181009Y-4220607D01*
X10879230Y-4422249D01*
X10677588Y-4724028D01*
X10606781Y-5080000D01*
X-10494725Y-5080000D01*
X-10825284Y-4859128D01*
X-11430000Y-4738842D01*
X-12034716Y-4859128D01*
X-12547370Y-5201672D01*
X-12889914Y-5714326D01*
X-13010200Y-6319042D01*
X-15502332Y-6319042D01*
X-15570607Y-5975804D01*
X-15772249Y-5674025D01*
X-16074028Y-5472383D01*
X-16430000Y-5401576D01*
X-16785972Y-5472383D01*
X-17087751Y-5674025D01*
X-17289393Y-5975804D01*
X-17360200Y-6331776D01*
X-33729800Y-6331776D01*
X-33729800Y-3559962D01*
X-33869116Y-2859575D01*
X-34265853Y-2265815D01*
X-34859613Y-1869078D01*
X-35560000Y-1729762D01*
X-36260387Y-1869078D01*
X-36854147Y-2265815D01*
X-37250884Y-2859575D01*
X-37390200Y-3559962D01*
X-46423331Y-3559962D01*
X-46423331Y-614144D01*
X-17560200Y-614144D01*
X-17560200Y-2085856D01*
X-17474169Y-2518365D01*
X-17229172Y-2885028D01*
X-16862509Y-3130025D01*
X-16430000Y-3216056D01*
X-15997491Y-3130025D01*
X-15630828Y-2885028D01*
X-15385831Y-2518365D01*
X-15299800Y-2085856D01*
X-15299800Y-614144D01*
X-15060200Y-614144D01*
X-15060200Y-2085856D01*
X-14974169Y-2518365D01*
X-14729172Y-2885028D01*
X-14362509Y-3130025D01*
X-13930000Y-3216056D01*
X-13497491Y-3130025D01*
X-13130828Y-2885028D01*
X-12885831Y-2518365D01*
X-12799800Y-2085856D01*
X-12799800Y-1331776D01*
X-12360200Y-1331776D01*
X-12360200Y-1368224D01*
X-12289393Y-1724196D01*
X-12087751Y-2025975D01*
X-11785972Y-2227617D01*
X-11430000Y-2298424D01*
X-11074028Y-2227617D01*
X-10772249Y-2025975D01*
X-10570607Y-1724196D01*
X-10499800Y-1368224D01*
X-10499800Y-1331776D01*
X-10570607Y-975804D01*
X-10772249Y-674025D01*
X-10861867Y-614144D01*
X-10060200Y-614144D01*
X-10060200Y-2085856D01*
X-9974169Y-2518365D01*
X-9729172Y-2885028D01*
X-9362509Y-3130025D01*
X-8930000Y-3216056D01*
X-8497491Y-3130025D01*
X-8130828Y-2885028D01*
X-7885831Y-2518365D01*
X-7799800Y-2085856D01*
X-7799800Y-614144D01*
X-7560200Y-614144D01*
X-7560200Y-2085856D01*
X-7474169Y-2518365D01*
X-7229172Y-2885028D01*
X-6862509Y-3130025D01*
X-6430000Y-3216056D01*
X-5997491Y-3130025D01*
X-5630828Y-2885028D01*
X-5400288Y-2540000D01*
X10606781Y-2540000D01*
X10677588Y-2895972D01*
X10879230Y-3197751D01*
X11181009Y-3399393D01*
X11536981Y-3470200D01*
X12593019Y-3470200D01*
X12948991Y-3399393D01*
X13250770Y-3197751D01*
X13452412Y-2895972D01*
X13492701Y-2693421D01*
X14465166Y-2693421D01*
X14582859Y-2978259D01*
X14800595Y-3196376D01*
X15085227Y-3314565D01*
X15393421Y-3314834D01*
X15678259Y-3197141D01*
X15878550Y-2997200D01*
X18365226Y-2997200D01*
X18499230Y-3197751D01*
X18801009Y-3399393D01*
X19156981Y-3470200D01*
X20213019Y-3470200D01*
X20568991Y-3399393D01*
X20870770Y-3197751D01*
X21072412Y-2895972D01*
X21132800Y-2592380D01*
X21132800Y-5027620D01*
X21072412Y-4724028D01*
X20870770Y-4422249D01*
X20568991Y-4220607D01*
X20213019Y-4149800D01*
X19156981Y-4149800D01*
X18801009Y-4220607D01*
X18499230Y-4422249D01*
X18297588Y-4724028D01*
X18226781Y-5080000D01*
X18297588Y-5435972D01*
X18499230Y-5737751D01*
X18801009Y-5939393D01*
X19156981Y-6010200D01*
X20213019Y-6010200D01*
X20568991Y-5939393D01*
X20870770Y-5737751D01*
X21072412Y-5435972D01*
X21132800Y-5132380D01*
X21132800Y-5715000D01*
X21167602Y-5889963D01*
X21266711Y-6038289D01*
X22158841Y-6930419D01*
X22158841Y-8619490D01*
X22181866Y-8741855D01*
X22254183Y-8854239D01*
X22364527Y-8929634D01*
X22495510Y-8956159D01*
X24494490Y-8956159D01*
X24616855Y-8933134D01*
X24729239Y-8860817D01*
X24804634Y-8750473D01*
X24831159Y-8619490D01*
X24831159Y-6620510D01*
X25333841Y-6620510D01*
X25333841Y-8619490D01*
X25356866Y-8741855D01*
X25429183Y-8854239D01*
X25539527Y-8929634D01*
X25670510Y-8956159D01*
X27669490Y-8956159D01*
X27791855Y-8933134D01*
X27904239Y-8860817D01*
X27979634Y-8750473D01*
X28006159Y-8619490D01*
X28006159Y-8255000D01*
X30389251Y-8255000D01*
X30528567Y-8955387D01*
X30925304Y-9549147D01*
X31519064Y-9945884D01*
X32219451Y-10085200D01*
X33820549Y-10085200D01*
X34520936Y-9945884D01*
X35114696Y-9549147D01*
X35511433Y-8955387D01*
X35650749Y-8255000D01*
X35511433Y-7554613D01*
X35114696Y-6960853D01*
X34520936Y-6564116D01*
X33820549Y-6424800D01*
X32219451Y-6424800D01*
X31519064Y-6564116D01*
X30925304Y-6960853D01*
X30528567Y-7554613D01*
X30389251Y-8255000D01*
X28006159Y-8255000D01*
X28006159Y-6620510D01*
X27983134Y-6498145D01*
X27910817Y-6385761D01*
X27800473Y-6310366D01*
X27669490Y-6283841D01*
X25670510Y-6283841D01*
X25548145Y-6306866D01*
X25435761Y-6379183D01*
X25360366Y-6489527D01*
X25333841Y-6620510D01*
X24831159Y-6620510D01*
X24808134Y-6498145D01*
X24735817Y-6385761D01*
X24625473Y-6310366D01*
X24494490Y-6283841D01*
X22805419Y-6283841D01*
X22047200Y-5525622D01*
X22047200Y-1908233D01*
X22246376Y-1709405D01*
X22364565Y-1424773D01*
X22364672Y-1302701D01*
X22429829Y-1329690D01*
X23298150Y-1329690D01*
X23380700Y-1247140D01*
X23380700Y-114300D01*
X23609300Y-114300D01*
X23609300Y-1247140D01*
X23691850Y-1329690D01*
X24560171Y-1329690D01*
X24681533Y-1279420D01*
X24774420Y-1186533D01*
X24824690Y-1065171D01*
X24824690Y-196850D01*
X24742140Y-114300D01*
X23609300Y-114300D01*
X23380700Y-114300D01*
X22247860Y-114300D01*
X22165310Y-196850D01*
X22165310Y-749767D01*
X22029405Y-613624D01*
X21744773Y-495435D01*
X21436579Y-495166D01*
X21151741Y-612859D01*
X20933624Y-830595D01*
X20815435Y-1115227D01*
X20815166Y-1423421D01*
X20932859Y-1708259D01*
X21132800Y-1908550D01*
X21132800Y-2487620D01*
X21072412Y-2184028D01*
X20870770Y-1882249D01*
X20568991Y-1680607D01*
X20213019Y-1609800D01*
X19156981Y-1609800D01*
X18801009Y-1680607D01*
X18499230Y-1882249D01*
X18365226Y-2082800D01*
X15878233Y-2082800D01*
X15679405Y-1883624D01*
X15394773Y-1765435D01*
X15086579Y-1765166D01*
X14801741Y-1882859D01*
X14583624Y-2100595D01*
X14465435Y-2385227D01*
X14465166Y-2693421D01*
X13492701Y-2693421D01*
X13523219Y-2540000D01*
X13452412Y-2184028D01*
X13250770Y-1882249D01*
X12948991Y-1680607D01*
X12593019Y-1609800D01*
X11536981Y-1609800D01*
X11181009Y-1680607D01*
X10879230Y-1882249D01*
X10677588Y-2184028D01*
X10606781Y-2540000D01*
X-5400288Y-2540000D01*
X-5385831Y-2518365D01*
X-5299800Y-2085856D01*
X-5299800Y-614144D01*
X-5385831Y-181635D01*
X-5630828Y185028D01*
X-5997491Y430025D01*
X-6430000Y516056D01*
X-6862509Y430025D01*
X-7229172Y185028D01*
X-7474169Y-181635D01*
X-7560200Y-614144D01*
X-7799800Y-614144D01*
X-7885831Y-181635D01*
X-8130828Y185028D01*
X-8497491Y430025D01*
X-8930000Y516056D01*
X-9362509Y430025D01*
X-9729172Y185028D01*
X-9974169Y-181635D01*
X-10060200Y-614144D01*
X-10861867Y-614144D01*
X-11074028Y-472383D01*
X-11430000Y-401576D01*
X-11785972Y-472383D01*
X-12087751Y-674025D01*
X-12289393Y-975804D01*
X-12360200Y-1331776D01*
X-12799800Y-1331776D01*
X-12799800Y-614144D01*
X-12885831Y-181635D01*
X-13130828Y185028D01*
X-13497491Y430025D01*
X-13930000Y516056D01*
X-14362509Y430025D01*
X-14729172Y185028D01*
X-14974169Y-181635D01*
X-15060200Y-614144D01*
X-15299800Y-614144D01*
X-15385831Y-181635D01*
X-15630828Y185028D01*
X-15997491Y430025D01*
X-16430000Y516056D01*
X-16862509Y430025D01*
X-17229172Y185028D01*
X-17474169Y-181635D01*
X-17560200Y-614144D01*
X-46423331Y-614144D01*
X-46423331Y5365000D01*
X-46456823Y5511389D01*
X-46537662Y5617808D01*
X-46653536Y5684392D01*
X-48920474Y6440038D01*
X-37390200Y6440038D01*
X-37390200Y2289962D01*
X-37250884Y1589575D01*
X-36854147Y995815D01*
X-36260387Y599078D01*
X-35560000Y459762D01*
X-34859613Y599078D01*
X-34265853Y995815D01*
X-33869116Y1589575D01*
X-33729800Y2289962D01*
X-33729800Y3175000D01*
X-24855749Y3175000D01*
X-24716433Y2474613D01*
X-24319696Y1880853D01*
X-23725936Y1484116D01*
X-23025549Y1344800D01*
X-21424451Y1344800D01*
X-20724064Y1484116D01*
X-20130304Y1880853D01*
X-19733567Y2474613D01*
X-19594251Y3175000D01*
X-19733567Y3875387D01*
X-20130304Y4469147D01*
X-20724064Y4865884D01*
X-21424451Y5005200D01*
X-23025549Y5005200D01*
X-23725936Y4865884D01*
X-24319696Y4469147D01*
X-24716433Y3875387D01*
X-24855749Y3175000D01*
X-33729800Y3175000D01*
X-33729800Y6195499D01*
X-19443700Y6195499D01*
X-19443700Y5234501D01*
X-19365395Y4840835D01*
X-19142401Y4507100D01*
X-18808666Y4284106D01*
X-18415000Y4205801D01*
X-18021334Y4284106D01*
X-17687599Y4507100D01*
X-17464605Y4840835D01*
X-17386300Y5234501D01*
X-17386300Y6195499D01*
X-16903700Y6195499D01*
X-16903700Y5234501D01*
X-16825395Y4840835D01*
X-16602401Y4507100D01*
X-16268666Y4284106D01*
X-15875000Y4205801D01*
X-15481334Y4284106D01*
X-15147599Y4507100D01*
X-14924605Y4840835D01*
X-14846300Y5234501D01*
X-14846300Y6195499D01*
X-14924605Y6589165D01*
X-15112720Y6870700D01*
X-13520200Y6870700D01*
X-13520200Y6470700D01*
X-13375204Y5970355D01*
X-13049771Y5563584D01*
X-12593446Y5312315D01*
X-12510212Y5293917D01*
X-12304300Y5342597D01*
X-12304300Y6870700D01*
X-12075700Y6870700D01*
X-12075700Y5342597D01*
X-11869788Y5293917D01*
X-11786554Y5312315D01*
X-11451153Y5496999D01*
X-8077200Y5496999D01*
X-8077200Y4663001D01*
X-7994061Y4245034D01*
X-7757302Y3890699D01*
X-7402967Y3653940D01*
X-6985000Y3570801D01*
X-6567033Y3653940D01*
X-6212698Y3890699D01*
X-5975939Y4245034D01*
X-5892800Y4663001D01*
X-5892800Y5496999D01*
X-5975939Y5914966D01*
X-6212698Y6269301D01*
X-6567033Y6506060D01*
X-6985000Y6589199D01*
X-7402967Y6506060D01*
X-7757302Y6269301D01*
X-7994061Y5914966D01*
X-8077200Y5496999D01*
X-11451153Y5496999D01*
X-11330229Y5563584D01*
X-11004796Y5970355D01*
X-10859800Y6470700D01*
X-10859800Y6870700D01*
X-12075700Y6870700D01*
X-12304300Y6870700D01*
X-13520200Y6870700D01*
X-15112720Y6870700D01*
X-15147599Y6922900D01*
X-15481334Y7145894D01*
X-15875000Y7224199D01*
X-16268666Y7145894D01*
X-16602401Y6922900D01*
X-16825395Y6589165D01*
X-16903700Y6195499D01*
X-17386300Y6195499D01*
X-17464605Y6589165D01*
X-17687599Y6922900D01*
X-18021334Y7145894D01*
X-18415000Y7224199D01*
X-18808666Y7145894D01*
X-19142401Y6922900D01*
X-19365395Y6589165D01*
X-19443700Y6195499D01*
X-33729800Y6195499D01*
X-33729800Y6440038D01*
X-33869116Y7140425D01*
X-34108908Y7499300D01*
X-13520200Y7499300D01*
X-13520200Y7099300D01*
X-12304300Y7099300D01*
X-12304300Y8627403D01*
X-12075700Y8627403D01*
X-12075700Y7099300D01*
X-10859800Y7099300D01*
X-10859800Y7202188D01*
X-10157950Y7202188D01*
X-10155802Y7172632D01*
X-9956124Y6793520D01*
X-9626566Y6519679D01*
X-9217300Y6392800D01*
X-8829300Y6392800D01*
X-8829300Y7370700D01*
X-8600700Y7370700D01*
X-8600700Y6392800D01*
X-8212700Y6392800D01*
X-7803434Y6519679D01*
X-7473876Y6793520D01*
X-7274198Y7172632D01*
X-7272050Y7202188D01*
X-7323841Y7370700D01*
X-8600700Y7370700D01*
X-8829300Y7370700D01*
X-10106159Y7370700D01*
X-10157950Y7202188D01*
X-10859800Y7202188D01*
X-10859800Y7485000D01*
X-6724199Y7485000D01*
X-6641060Y7067033D01*
X-6404301Y6712698D01*
X-6049966Y6475939D01*
X-5672200Y6400796D01*
X-5672200Y5485000D01*
X-5637398Y5310037D01*
X-5538289Y5161711D01*
X-4321258Y3944679D01*
X-4466060Y3727967D01*
X-4549199Y3310000D01*
X-4466060Y2892033D01*
X-4229301Y2537698D01*
X-3874966Y2300939D01*
X-3456999Y2217800D01*
X-2623001Y2217800D01*
X-2205034Y2300939D01*
X-1850699Y2537698D01*
X-1727200Y2722527D01*
X-1727200Y1336159D01*
X-2269490Y1336159D01*
X-2391855Y1313134D01*
X-2504239Y1240817D01*
X-2579634Y1130473D01*
X-2606159Y999490D01*
X-2606159Y-999490D01*
X-2583134Y-1121855D01*
X-2510817Y-1234239D01*
X-2400473Y-1309634D01*
X-2269490Y-1336159D01*
X-270510Y-1336159D01*
X-148145Y-1313134D01*
X-35761Y-1240817D01*
X39634Y-1130473D01*
X66159Y-999490D01*
X66159Y999490D01*
X568841Y999490D01*
X568841Y-999490D01*
X591866Y-1121855D01*
X664183Y-1234239D01*
X774527Y-1309634D01*
X905510Y-1336159D01*
X2904490Y-1336159D01*
X3026855Y-1313134D01*
X3139239Y-1240817D01*
X3214634Y-1130473D01*
X3241159Y-999490D01*
X3241159Y999490D01*
X3743841Y999490D01*
X3743841Y-999490D01*
X3766866Y-1121855D01*
X3839183Y-1234239D01*
X3949527Y-1309634D01*
X4080510Y-1336159D01*
X6079490Y-1336159D01*
X6201855Y-1313134D01*
X6314239Y-1240817D01*
X6389634Y-1130473D01*
X6416159Y-999490D01*
X6416159Y999490D01*
X6918841Y999490D01*
X6918841Y-999490D01*
X6941866Y-1121855D01*
X7014183Y-1234239D01*
X7124527Y-1309634D01*
X7255510Y-1336159D01*
X9254490Y-1336159D01*
X9376855Y-1313134D01*
X9489239Y-1240817D01*
X9564634Y-1130473D01*
X9591159Y-999490D01*
X9591159Y-257305D01*
X10671095Y-257305D01*
X10826427Y-576928D01*
X11103428Y-815652D01*
X11450700Y-930200D01*
X11950700Y-930200D01*
X11950700Y-114300D01*
X12179300Y-114300D01*
X12179300Y-930200D01*
X12679300Y-930200D01*
X13026572Y-815652D01*
X13303573Y-576928D01*
X13458905Y-257305D01*
X13404908Y-114300D01*
X12179300Y-114300D01*
X11950700Y-114300D01*
X10725092Y-114300D01*
X10671095Y-257305D01*
X9591159Y-257305D01*
X9591159Y0D01*
X18226781Y0D01*
X18297588Y-355972D01*
X18499230Y-657751D01*
X18801009Y-859393D01*
X19156981Y-930200D01*
X20213019Y-930200D01*
X20568991Y-859393D01*
X20870770Y-657751D01*
X21072412Y-355972D01*
X21143219Y0D01*
X21072412Y355972D01*
X20870770Y657751D01*
X20568991Y859393D01*
X20213019Y930200D01*
X19156981Y930200D01*
X18801009Y859393D01*
X18499230Y657751D01*
X18297588Y355972D01*
X18226781Y0D01*
X9591159Y0D01*
X9591159Y257305D01*
X10671095Y257305D01*
X10725092Y114300D01*
X11950700Y114300D01*
X11950700Y930200D01*
X12179300Y930200D01*
X12179300Y114300D01*
X13404908Y114300D01*
X13458905Y257305D01*
X13303573Y576928D01*
X13026572Y815652D01*
X12679300Y930200D01*
X12179300Y930200D01*
X11950700Y930200D01*
X11450700Y930200D01*
X11103428Y815652D01*
X10826427Y576928D01*
X10671095Y257305D01*
X9591159Y257305D01*
X9591159Y999490D01*
X9578801Y1065171D01*
X22165310Y1065171D01*
X22165310Y196850D01*
X22247860Y114300D01*
X23380700Y114300D01*
X23380700Y1247140D01*
X23609300Y1247140D01*
X23609300Y114300D01*
X24742140Y114300D01*
X24824690Y196850D01*
X24824690Y999490D01*
X25333841Y999490D01*
X25333841Y-999490D01*
X25356866Y-1121855D01*
X25429183Y-1234239D01*
X25539527Y-1309634D01*
X25670510Y-1336159D01*
X26212800Y-1336159D01*
X26212800Y-2540000D01*
X26247602Y-2714963D01*
X26346711Y-2863289D01*
X28435412Y-4951990D01*
X28435166Y-5233421D01*
X28552859Y-5518259D01*
X28770595Y-5736376D01*
X29055227Y-5854565D01*
X29363421Y-5854834D01*
X29648259Y-5737141D01*
X29866376Y-5519405D01*
X29984565Y-5234773D01*
X29984834Y-4926579D01*
X29867141Y-4641741D01*
X29649405Y-4423624D01*
X29364773Y-4305435D01*
X29081767Y-4305188D01*
X27127200Y-2350622D01*
X27127200Y-1336159D01*
X27669490Y-1336159D01*
X27791855Y-1313134D01*
X27904239Y-1240817D01*
X27979634Y-1130473D01*
X28006159Y-999490D01*
X28006159Y999490D01*
X27983134Y1121855D01*
X27910817Y1234239D01*
X27800473Y1309634D01*
X27669490Y1336159D01*
X25670510Y1336159D01*
X25548145Y1313134D01*
X25435761Y1240817D01*
X25360366Y1130473D01*
X25333841Y999490D01*
X24824690Y999490D01*
X24824690Y1065171D01*
X24774420Y1186533D01*
X24681533Y1279420D01*
X24560171Y1329690D01*
X23691850Y1329690D01*
X23609300Y1247140D01*
X23380700Y1247140D01*
X23298150Y1329690D01*
X22429829Y1329690D01*
X22308467Y1279420D01*
X22215580Y1186533D01*
X22165310Y1065171D01*
X9578801Y1065171D01*
X9568134Y1121855D01*
X9495817Y1234239D01*
X9385473Y1309634D01*
X9254490Y1336159D01*
X7255510Y1336159D01*
X7133145Y1313134D01*
X7020761Y1240817D01*
X6945366Y1130473D01*
X6918841Y999490D01*
X6416159Y999490D01*
X6393134Y1121855D01*
X6320817Y1234239D01*
X6210473Y1309634D01*
X6079490Y1336159D01*
X4080510Y1336159D01*
X3958145Y1313134D01*
X3845761Y1240817D01*
X3770366Y1130473D01*
X3743841Y999490D01*
X3241159Y999490D01*
X3218134Y1121855D01*
X3147775Y1231196D01*
X4768289Y2851710D01*
X4867398Y3000037D01*
X4902200Y3175000D01*
X4902200Y3680155D01*
X5217302Y3890699D01*
X5454061Y4245034D01*
X5537200Y4663001D01*
X5537200Y5496999D01*
X5454061Y5914966D01*
X5217302Y6269301D01*
X4862967Y6506060D01*
X4445000Y6589199D01*
X4027033Y6506060D01*
X3672698Y6269301D01*
X3435939Y5914966D01*
X3352800Y5496999D01*
X3352800Y4663001D01*
X3435939Y4245034D01*
X3672698Y3890699D01*
X3987800Y3680155D01*
X3987800Y3364379D01*
X1959581Y1336159D01*
X905510Y1336159D01*
X783145Y1313134D01*
X670761Y1240817D01*
X595366Y1130473D01*
X568841Y999490D01*
X66159Y999490D01*
X43134Y1121855D01*
X-29183Y1234239D01*
X-139527Y1309634D01*
X-270510Y1336159D01*
X-812800Y1336159D01*
X-812800Y2662663D01*
X-729301Y2537698D01*
X-374966Y2300939D01*
X43001Y2217800D01*
X876999Y2217800D01*
X1294966Y2300939D01*
X1649301Y2537698D01*
X1886060Y2892033D01*
X1969199Y3310000D01*
X1886060Y3727967D01*
X1649301Y4082302D01*
X1294966Y4319061D01*
X876999Y4402200D01*
X43001Y4402200D01*
X-374966Y4319061D01*
X-729301Y4082302D01*
X-812800Y3957337D01*
X-812800Y4315155D01*
X-497698Y4525699D01*
X-260939Y4880034D01*
X-177800Y5298001D01*
X-177800Y6131999D01*
X-260939Y6549966D01*
X-497698Y6904301D01*
X-852033Y7141060D01*
X-1270000Y7224199D01*
X-1687967Y7141060D01*
X-2042302Y6904301D01*
X-2279061Y6549966D01*
X-2362200Y6131999D01*
X-2362200Y5298001D01*
X-2279061Y4880034D01*
X-2042302Y4525699D01*
X-1727200Y4315155D01*
X-1727200Y3897473D01*
X-1850699Y4082302D01*
X-2205034Y4319061D01*
X-2623001Y4402200D01*
X-3456999Y4402200D01*
X-3480873Y4397451D01*
X-4757800Y5674378D01*
X-4757800Y6400796D01*
X-4380034Y6475939D01*
X-4025699Y6712698D01*
X-3788940Y7067033D01*
X-3705801Y7485000D01*
X1205801Y7485000D01*
X1288940Y7067033D01*
X1525699Y6712698D01*
X1880034Y6475939D01*
X2298001Y6392800D01*
X3131999Y6392800D01*
X3549966Y6475939D01*
X3904301Y6712698D01*
X4141060Y7067033D01*
X4224199Y7485000D01*
X4705801Y7485000D01*
X4788940Y7067033D01*
X5025699Y6712698D01*
X5380034Y6475939D01*
X5757800Y6400796D01*
X5757800Y5485000D01*
X5792602Y5310037D01*
X5891711Y5161711D01*
X7108742Y3944679D01*
X6963940Y3727967D01*
X6880801Y3310000D01*
X6963940Y2892033D01*
X7200699Y2537698D01*
X7555034Y2300939D01*
X7973001Y2217800D01*
X8806999Y2217800D01*
X9224966Y2300939D01*
X9579301Y2537698D01*
X9816060Y2892033D01*
X9842944Y3027188D01*
X10447050Y3027188D01*
X10449198Y2997632D01*
X10648876Y2618520D01*
X10978434Y2344679D01*
X11387700Y2217800D01*
X11775700Y2217800D01*
X11775700Y3195700D01*
X12004300Y3195700D01*
X12004300Y2217800D01*
X12392300Y2217800D01*
X12801566Y2344679D01*
X13131124Y2618520D01*
X13330802Y2997632D01*
X13332950Y3027188D01*
X13287522Y3175000D01*
X30389251Y3175000D01*
X30528567Y2474613D01*
X30925304Y1880853D01*
X31519064Y1484116D01*
X32219451Y1344800D01*
X33820549Y1344800D01*
X34520936Y1484116D01*
X35114696Y1880853D01*
X35511433Y2474613D01*
X35628331Y3062297D01*
X35628331Y-6635000D01*
X35661823Y-6781389D01*
X35742662Y-6887808D01*
X35858536Y-6954392D01*
X38858536Y-7954392D01*
X38955699Y-7971540D01*
X39087365Y-7948644D01*
X39199749Y-7876327D01*
X39275144Y-7765983D01*
X39301669Y-7635000D01*
X39301669Y6365000D01*
X39287212Y6462600D01*
X39223854Y6580269D01*
X39119709Y6664017D01*
X38991185Y6700649D01*
X38858536Y6684392D01*
X35858536Y5684392D01*
X35730251Y5606327D01*
X35654856Y5495983D01*
X35628331Y5365000D01*
X35628331Y3287703D01*
X35511433Y3875387D01*
X35114696Y4469147D01*
X34520936Y4865884D01*
X33820549Y5005200D01*
X32219451Y5005200D01*
X31519064Y4865884D01*
X30925304Y4469147D01*
X30528567Y3875387D01*
X30389251Y3175000D01*
X13287522Y3175000D01*
X13281159Y3195700D01*
X12004300Y3195700D01*
X11775700Y3195700D01*
X10498841Y3195700D01*
X10447050Y3027188D01*
X9842944Y3027188D01*
X9899199Y3310000D01*
X9842945Y3592812D01*
X10447050Y3592812D01*
X10498841Y3424300D01*
X11775700Y3424300D01*
X11775700Y4402200D01*
X12004300Y4402200D01*
X12004300Y3424300D01*
X13281159Y3424300D01*
X13332950Y3592812D01*
X13330802Y3622368D01*
X13131124Y4001480D01*
X12801566Y4275321D01*
X12392300Y4402200D01*
X12004300Y4402200D01*
X11775700Y4402200D01*
X11387700Y4402200D01*
X10978434Y4275321D01*
X10648876Y4001480D01*
X10449198Y3622368D01*
X10447050Y3592812D01*
X9842945Y3592812D01*
X9816060Y3727967D01*
X9579301Y4082302D01*
X9224966Y4319061D01*
X8806999Y4402200D01*
X7973001Y4402200D01*
X7949127Y4397451D01*
X6672200Y5674378D01*
X6672200Y6131999D01*
X9067800Y6131999D01*
X9067800Y5298001D01*
X9150939Y4880034D01*
X9387698Y4525699D01*
X9742033Y4288940D01*
X10160000Y4205801D01*
X10577967Y4288940D01*
X10932302Y4525699D01*
X11169061Y4880034D01*
X11252200Y5298001D01*
X11252200Y5600700D01*
X14846300Y5600700D01*
X14846300Y5149200D01*
X14968346Y4764234D01*
X15228422Y4455277D01*
X15602180Y4271637D01*
X15760700Y4324279D01*
X15760700Y5600700D01*
X15989300Y5600700D01*
X15989300Y4324279D01*
X16147820Y4271637D01*
X16521578Y4455277D01*
X16781654Y4764234D01*
X16903700Y5149200D01*
X16903700Y5600700D01*
X15989300Y5600700D01*
X15760700Y5600700D01*
X14846300Y5600700D01*
X11252200Y5600700D01*
X11252200Y6131999D01*
X11222602Y6280800D01*
X14846300Y6280800D01*
X14846300Y5829300D01*
X15760700Y5829300D01*
X15760700Y7105721D01*
X15989300Y7105721D01*
X15989300Y5829300D01*
X16903700Y5829300D01*
X16903700Y6195499D01*
X17386300Y6195499D01*
X17386300Y5234501D01*
X17464605Y4840835D01*
X17687599Y4507100D01*
X18021334Y4284106D01*
X18415000Y4205801D01*
X18808666Y4284106D01*
X19142401Y4507100D01*
X19365395Y4840835D01*
X19443700Y5234501D01*
X19443700Y6195499D01*
X19365395Y6589165D01*
X19214498Y6815000D01*
X22408331Y6815000D01*
X22408331Y4815000D01*
X22431356Y4692635D01*
X22503673Y4580251D01*
X22614017Y4504856D01*
X22745000Y4478331D01*
X24245000Y4478331D01*
X24367365Y4501356D01*
X24479749Y4573673D01*
X24555144Y4684017D01*
X24581669Y4815000D01*
X24581669Y6091060D01*
X24954800Y6091060D01*
X24954800Y5538940D01*
X25037025Y5125565D01*
X25271183Y4775123D01*
X25621625Y4540965D01*
X26035000Y4458740D01*
X26448375Y4540965D01*
X26798817Y4775123D01*
X27032975Y5125565D01*
X27115200Y5538940D01*
X27115200Y6091060D01*
X27494800Y6091060D01*
X27494800Y5538940D01*
X27577025Y5125565D01*
X27811183Y4775123D01*
X28161625Y4540965D01*
X28575000Y4458740D01*
X28988375Y4540965D01*
X29338817Y4775123D01*
X29572975Y5125565D01*
X29655200Y5538940D01*
X29655200Y6091060D01*
X29572975Y6504435D01*
X29338817Y6854877D01*
X28988375Y7089035D01*
X28575000Y7171260D01*
X28161625Y7089035D01*
X27811183Y6854877D01*
X27577025Y6504435D01*
X27494800Y6091060D01*
X27115200Y6091060D01*
X27032975Y6504435D01*
X26798817Y6854877D01*
X26448375Y7089035D01*
X26035000Y7171260D01*
X25621625Y7089035D01*
X25271183Y6854877D01*
X25037025Y6504435D01*
X24954800Y6091060D01*
X24581669Y6091060D01*
X24581669Y6815000D01*
X24558644Y6937365D01*
X24486327Y7049749D01*
X24375983Y7125144D01*
X24245000Y7151669D01*
X22745000Y7151669D01*
X22622635Y7128644D01*
X22510251Y7056327D01*
X22434856Y6945983D01*
X22408331Y6815000D01*
X19214498Y6815000D01*
X19142401Y6922900D01*
X18808666Y7145894D01*
X18415000Y7224199D01*
X18021334Y7145894D01*
X17687599Y6922900D01*
X17464605Y6589165D01*
X17386300Y6195499D01*
X16903700Y6195499D01*
X16903700Y6280800D01*
X16781654Y6665766D01*
X16521578Y6974723D01*
X16147820Y7158363D01*
X15989300Y7105721D01*
X15760700Y7105721D01*
X15602180Y7158363D01*
X15228422Y6974723D01*
X14968346Y6665766D01*
X14846300Y6280800D01*
X11222602Y6280800D01*
X11169061Y6549966D01*
X10932302Y6904301D01*
X10577967Y7141060D01*
X10160000Y7224199D01*
X9742033Y7141060D01*
X9387698Y6904301D01*
X9150939Y6549966D01*
X9067800Y6131999D01*
X6672200Y6131999D01*
X6672200Y6400796D01*
X7049966Y6475939D01*
X7404301Y6712698D01*
X7641060Y7067033D01*
X7711050Y7418897D01*
X31179800Y7418897D01*
X31179800Y6551103D01*
X31281055Y6042057D01*
X31569407Y5610510D01*
X32000954Y5322158D01*
X32510000Y5220903D01*
X33019046Y5322158D01*
X33450593Y5610510D01*
X33738945Y6042057D01*
X33840200Y6551103D01*
X33840200Y7418897D01*
X33738945Y7927943D01*
X33450593Y8359490D01*
X33019046Y8647842D01*
X32510000Y8749097D01*
X32000954Y8647842D01*
X31569407Y8359490D01*
X31281055Y7927943D01*
X31179800Y7418897D01*
X7711050Y7418897D01*
X7724199Y7485000D01*
X7641060Y7902967D01*
X7404301Y8257302D01*
X7049966Y8494061D01*
X6631999Y8577200D01*
X5798001Y8577200D01*
X5380034Y8494061D01*
X5025699Y8257302D01*
X4788940Y7902967D01*
X4705801Y7485000D01*
X4224199Y7485000D01*
X4141060Y7902967D01*
X3904301Y8257302D01*
X3549966Y8494061D01*
X3131999Y8577200D01*
X2298001Y8577200D01*
X1880034Y8494061D01*
X1525699Y8257302D01*
X1288940Y7902967D01*
X1205801Y7485000D01*
X-3705801Y7485000D01*
X-3788940Y7902967D01*
X-4025699Y8257302D01*
X-4380034Y8494061D01*
X-4798001Y8577200D01*
X-5631999Y8577200D01*
X-6049966Y8494061D01*
X-6404301Y8257302D01*
X-6641060Y7902967D01*
X-6724199Y7485000D01*
X-10859800Y7485000D01*
X-10859800Y7499300D01*
X-10937612Y7767812D01*
X-10157950Y7767812D01*
X-10106159Y7599300D01*
X-8829300Y7599300D01*
X-8829300Y8577200D01*
X-8600700Y8577200D01*
X-8600700Y7599300D01*
X-7323841Y7599300D01*
X-7272050Y7767812D01*
X-7274198Y7797368D01*
X-7473876Y8176480D01*
X-7803434Y8450321D01*
X-8212700Y8577200D01*
X-8600700Y8577200D01*
X-8829300Y8577200D01*
X-9217300Y8577200D01*
X-9626566Y8450321D01*
X-9956124Y8176480D01*
X-10155802Y7797368D01*
X-10157950Y7767812D01*
X-10937612Y7767812D01*
X-11004796Y7999645D01*
X-11330229Y8406416D01*
X-11786554Y8657685D01*
X-11869788Y8676083D01*
X-12075700Y8627403D01*
X-12304300Y8627403D01*
X-12510212Y8676083D01*
X-12593446Y8657685D01*
X-13049771Y8406416D01*
X-13375204Y7999645D01*
X-13520200Y7499300D01*
X-34108908Y7499300D01*
X-34265853Y7734185D01*
X-34859613Y8130922D01*
X-35560000Y8270238D01*
X-36260387Y8130922D01*
X-36854147Y7734185D01*
X-37250884Y7140425D01*
X-37390200Y6440038D01*
X-48920474Y6440038D01*
X-49653536Y6684392D01*
X-49750699Y6701540D01*
X-49882365Y6678644D01*
X-49994749Y6606327D01*
X-50070144Y6495983D01*
X-50096669Y6365000D01*
X-50257569Y6365000D01*
X-50031618Y7500931D01*
X-49019968Y9014970D01*
X-47505930Y10026618D01*
X-45680092Y10389800D01*
X34885092Y10389800D01*
X36710931Y10026618D01*
M02*
