G04 #@! TF.FileFunction,Copper,L2,Bot,Signal*
%FSLAX46Y46*%
G04 Gerber Fmt 4.6, Leading zero omitted, Abs format (unit mm)*
G04 Created by KiCad (PCBNEW (after 2015-may-01 BZR unknown)-product) date 19/09/2015 1:00:18*
%MOMM*%
G01*
G04 APERTURE LIST*
%ADD10C,0.150000*%
%ADD11R,2.032000X2.032000*%
%ADD12O,2.400000X2.032000*%
%ADD13O,2.300000X1.397000*%
%ADD14O,2.032000X2.032000*%
%ADD15O,1.397000X2.300000*%
%ADD16O,2.300000X1.600000*%
%ADD17R,2.235200X2.235200*%
%ADD18O,1.524000X2.300000*%
%ADD19O,2.300000X1.524000*%
%ADD20C,0.508000*%
%ADD21C,0.254000*%
G04 APERTURE END LIST*
D10*
D11*
X92710000Y-85725000D03*
D12*
X92710000Y-83185000D03*
D13*
X97790000Y-83185000D03*
X97790000Y-85725000D03*
X116332000Y-88392000D03*
X116332000Y-85892000D03*
X83820000Y-86360000D03*
X83820000Y-88900000D03*
D11*
X124460000Y-88265000D03*
D14*
X124460000Y-85725000D03*
D15*
X121412000Y-90678000D03*
X121412000Y-83058000D03*
X118872000Y-83058000D03*
X118872000Y-90678000D03*
D16*
X103124000Y-83312000D03*
X103124000Y-85852000D03*
X103124000Y-88392000D03*
X103124000Y-90932000D03*
X110744000Y-90932000D03*
X110744000Y-88392000D03*
X110744000Y-85852000D03*
X110744000Y-83312000D03*
D15*
X113792000Y-90678000D03*
D13*
X113792000Y-83058000D03*
D17*
X88900000Y-83312000D03*
D18*
X97790000Y-88519000D03*
D19*
X96020000Y-90924000D03*
X99520000Y-90924000D03*
X91313000Y-88646000D03*
D18*
X88908000Y-86876000D03*
X88908000Y-90376000D03*
D20*
X118745000Y-90805000D02*
X118745000Y-91059000D01*
X105156000Y-88900000D02*
X103124000Y-90932000D01*
D21*
X102108000Y-87122000D02*
X104140000Y-87122000D01*
D20*
X104140000Y-87122000D02*
X105156000Y-88138000D01*
X105156000Y-88138000D02*
X105156000Y-88900000D01*
X101346000Y-86360000D02*
X102108000Y-87122000D01*
X106172000Y-83312000D02*
X104902000Y-84582000D01*
D21*
X104902000Y-84582000D02*
X102362000Y-84582000D01*
X102362000Y-84582000D02*
X101346000Y-85598000D01*
D20*
X101346000Y-85598000D02*
X101346000Y-86360000D01*
X110744000Y-83312000D02*
X106172000Y-83312000D01*
X105410000Y-92710000D02*
X116840000Y-92710000D01*
X116840000Y-92710000D02*
X118745000Y-90805000D01*
X103632000Y-90932000D02*
X105410000Y-92710000D01*
X103124000Y-90932000D02*
X103632000Y-90932000D01*
X92710000Y-85725000D02*
X92075000Y-86360000D01*
X92710000Y-85725000D02*
X97790000Y-85725000D01*
X97790000Y-85725000D02*
X100711000Y-85725000D01*
X100711000Y-85725000D02*
X101346000Y-86360000D01*
X92448000Y-85987000D02*
X92710000Y-85725000D01*
X92448000Y-86876000D02*
X88908000Y-86876000D01*
X92710000Y-86614000D02*
X92448000Y-86876000D01*
X92710000Y-85725000D02*
X92710000Y-86614000D01*
X101219000Y-85725000D02*
X100711000Y-85725000D01*
X101346000Y-85598000D02*
X101219000Y-85725000D01*
X101219000Y-85217000D02*
X101473000Y-85217000D01*
X100711000Y-85725000D02*
X101219000Y-85217000D01*
X101854000Y-84582000D02*
X101219000Y-85217000D01*
X102362000Y-84582000D02*
X101854000Y-84582000D01*
X110998000Y-90678000D02*
X110744000Y-90932000D01*
X113538000Y-90932000D02*
X113665000Y-90805000D01*
X110744000Y-90932000D02*
X113538000Y-90932000D01*
X110744000Y-88392000D02*
X111506000Y-88392000D01*
X108204000Y-88392000D02*
X105664000Y-85852000D01*
X105664000Y-85852000D02*
X103124000Y-85852000D01*
X110744000Y-88392000D02*
X108204000Y-88392000D01*
X121285000Y-85725000D02*
X121285000Y-83185000D01*
X118745000Y-88265000D02*
X121285000Y-85725000D01*
X116205000Y-88265000D02*
X118745000Y-88265000D01*
X116078000Y-88392000D02*
X116205000Y-88265000D01*
X110744000Y-88392000D02*
X116078000Y-88392000D01*
X85852000Y-86360000D02*
X88900000Y-83312000D01*
X83820000Y-86360000D02*
X85852000Y-86360000D01*
X87432000Y-88900000D02*
X83820000Y-88900000D01*
X89456000Y-90924000D02*
X87432000Y-88900000D01*
X96020000Y-90924000D02*
X89456000Y-90924000D01*
X121920000Y-90805000D02*
X124460000Y-88265000D01*
X121285000Y-90805000D02*
X121920000Y-90805000D01*
X110744000Y-85979000D02*
X110744000Y-85852000D01*
X120650000Y-81280000D02*
X122555000Y-81280000D01*
X122555000Y-81280000D02*
X124460000Y-83185000D01*
X124460000Y-83185000D02*
X124460000Y-85725000D01*
X118745000Y-83185000D02*
X120650000Y-81280000D01*
X113284000Y-85852000D02*
X114554000Y-87122000D01*
X114554000Y-87122000D02*
X117602000Y-87122000D01*
X117602000Y-87122000D02*
X118872000Y-85852000D01*
X118872000Y-85852000D02*
X118872000Y-83058000D01*
X110744000Y-85852000D02*
X113284000Y-85852000D01*
X102997000Y-88265000D02*
X103124000Y-88392000D01*
X102592000Y-88924000D02*
X102568000Y-88900000D01*
X102592000Y-88924000D02*
X103124000Y-88392000D01*
X91206000Y-88924000D02*
X90908000Y-88626000D01*
X103124000Y-88392000D02*
X97917000Y-88392000D01*
X97917000Y-88392000D02*
X97663000Y-88646000D01*
X97663000Y-88646000D02*
X91313000Y-88646000D01*
D21*
G36*
X118148480Y-81482000D02*
X117929073Y-81628603D01*
X117640007Y-82061222D01*
X117538500Y-82571530D01*
X117538500Y-83544470D01*
X117640007Y-84054778D01*
X117929073Y-84487397D01*
X117983000Y-84523429D01*
X117983000Y-85348475D01*
X117816230Y-85038875D01*
X117411141Y-84708607D01*
X116910500Y-84558500D01*
X116459000Y-84558500D01*
X116459000Y-85765000D01*
X116479000Y-85765000D01*
X116479000Y-86019000D01*
X116459000Y-86019000D01*
X116459000Y-86039000D01*
X116205000Y-86039000D01*
X116205000Y-86019000D01*
X116185000Y-86019000D01*
X116185000Y-85765000D01*
X116205000Y-85765000D01*
X116205000Y-84558500D01*
X115753500Y-84558500D01*
X115534729Y-84624094D01*
X115534729Y-83391094D01*
X115534729Y-82724906D01*
X115524095Y-82665024D01*
X115276230Y-82204875D01*
X114871141Y-81874607D01*
X114370500Y-81724500D01*
X113919000Y-81724500D01*
X113919000Y-82931000D01*
X115411365Y-82931000D01*
X115534729Y-82724906D01*
X115534729Y-83391094D01*
X115411365Y-83185000D01*
X113919000Y-83185000D01*
X113919000Y-84391500D01*
X114370500Y-84391500D01*
X114871141Y-84241393D01*
X115276230Y-83911125D01*
X115524095Y-83450976D01*
X115534729Y-83391094D01*
X115534729Y-84624094D01*
X115252859Y-84708607D01*
X114847770Y-85038875D01*
X114599905Y-85499024D01*
X114589271Y-85558906D01*
X114712633Y-85764998D01*
X114547000Y-85764998D01*
X114547000Y-85857764D01*
X113912618Y-85223382D01*
X113624206Y-85030671D01*
X113284000Y-84963000D01*
X112227656Y-84963000D01*
X112143668Y-84837302D01*
X111761582Y-84582000D01*
X112143668Y-84326698D01*
X112381292Y-83971067D01*
X112712859Y-84241393D01*
X113213500Y-84391500D01*
X113665000Y-84391500D01*
X113665000Y-83185000D01*
X113645000Y-83185000D01*
X113645000Y-82931000D01*
X113665000Y-82931000D01*
X113665000Y-81724500D01*
X113213500Y-81724500D01*
X112712859Y-81874607D01*
X112307770Y-82204875D01*
X112206959Y-82392024D01*
X112143668Y-82297302D01*
X111678121Y-81986233D01*
X111128970Y-81877000D01*
X110359030Y-81877000D01*
X109809879Y-81986233D01*
X109344332Y-82297302D01*
X109260343Y-82423000D01*
X106172000Y-82423000D01*
X105831794Y-82490671D01*
X105543382Y-82683382D01*
X104865904Y-83360859D01*
X104865904Y-82962961D01*
X104848367Y-82880181D01*
X104578500Y-82387104D01*
X104140483Y-82034834D01*
X103601000Y-81877000D01*
X103251000Y-81877000D01*
X103251000Y-83185000D01*
X104743915Y-83185000D01*
X104865904Y-82962961D01*
X104865904Y-83360859D01*
X104759463Y-83467300D01*
X104743915Y-83439000D01*
X103251000Y-83439000D01*
X103251000Y-83459000D01*
X102997000Y-83459000D01*
X102997000Y-83439000D01*
X102997000Y-83185000D01*
X102997000Y-81877000D01*
X102647000Y-81877000D01*
X102107517Y-82034834D01*
X101669500Y-82387104D01*
X101399633Y-82880181D01*
X101382096Y-82962961D01*
X101504085Y-83185000D01*
X102997000Y-83185000D01*
X102997000Y-83439000D01*
X101504085Y-83439000D01*
X101382096Y-83661039D01*
X101399633Y-83743819D01*
X101436956Y-83812012D01*
X101225382Y-83953382D01*
X100590382Y-84588382D01*
X100342764Y-84836000D01*
X99255429Y-84836000D01*
X99219397Y-84782073D01*
X98786778Y-84493007D01*
X98586436Y-84453156D01*
X98869141Y-84368393D01*
X99274230Y-84038125D01*
X99522095Y-83577976D01*
X99532729Y-83518094D01*
X99532729Y-82851906D01*
X99522095Y-82792024D01*
X99274230Y-82331875D01*
X98869141Y-82001607D01*
X98368500Y-81851500D01*
X97917000Y-81851500D01*
X97917000Y-83058000D01*
X99409365Y-83058000D01*
X99532729Y-82851906D01*
X99532729Y-83518094D01*
X99409365Y-83312000D01*
X97917000Y-83312000D01*
X97917000Y-83332000D01*
X97663000Y-83332000D01*
X97663000Y-83312000D01*
X97663000Y-83058000D01*
X97663000Y-81851500D01*
X97211500Y-81851500D01*
X96710859Y-82001607D01*
X96305770Y-82331875D01*
X96057905Y-82792024D01*
X96047271Y-82851906D01*
X96170635Y-83058000D01*
X97663000Y-83058000D01*
X97663000Y-83312000D01*
X96170635Y-83312000D01*
X96047271Y-83518094D01*
X96057905Y-83577976D01*
X96305770Y-84038125D01*
X96710859Y-84368393D01*
X96993563Y-84453156D01*
X96793222Y-84493007D01*
X96360603Y-84782073D01*
X96324570Y-84836000D01*
X94373440Y-84836000D01*
X94373440Y-84709000D01*
X94326463Y-84466877D01*
X94186673Y-84254073D01*
X94159671Y-84235846D01*
X94197952Y-84202833D01*
X94488202Y-83626354D01*
X94499975Y-83567944D01*
X94499975Y-82802056D01*
X94488202Y-82743646D01*
X94197952Y-82167167D01*
X93709187Y-81745644D01*
X93096317Y-81543250D01*
X92837000Y-81690563D01*
X92837000Y-83058000D01*
X94380836Y-83058000D01*
X94499975Y-82802056D01*
X94499975Y-83567944D01*
X94380836Y-83312000D01*
X92837000Y-83312000D01*
X92837000Y-83332000D01*
X92583000Y-83332000D01*
X92583000Y-83312000D01*
X92583000Y-83058000D01*
X92583000Y-81690563D01*
X92323683Y-81543250D01*
X91710813Y-81745644D01*
X91222048Y-82167167D01*
X90931798Y-82743646D01*
X90920025Y-82802056D01*
X91039164Y-83058000D01*
X92583000Y-83058000D01*
X92583000Y-83312000D01*
X91039164Y-83312000D01*
X90920025Y-83567944D01*
X90931798Y-83626354D01*
X91222048Y-84202833D01*
X91259352Y-84235005D01*
X91239073Y-84248327D01*
X91096623Y-84459360D01*
X91046560Y-84709000D01*
X91046560Y-85987000D01*
X90212301Y-85987000D01*
X90198660Y-85918421D01*
X89895828Y-85465202D01*
X89442609Y-85162370D01*
X89013624Y-85077040D01*
X90017600Y-85077040D01*
X90259723Y-85030063D01*
X90472527Y-84890273D01*
X90614977Y-84679240D01*
X90665040Y-84429600D01*
X90665040Y-82194400D01*
X90618063Y-81952277D01*
X90478273Y-81739473D01*
X90267240Y-81597023D01*
X90017600Y-81546960D01*
X87782400Y-81546960D01*
X87540277Y-81593937D01*
X87327473Y-81733727D01*
X87185023Y-81944760D01*
X87134960Y-82194400D01*
X87134960Y-83819804D01*
X85483764Y-85471000D01*
X85285429Y-85471000D01*
X85249397Y-85417073D01*
X84816778Y-85128007D01*
X84306470Y-85026500D01*
X83333530Y-85026500D01*
X82823222Y-85128007D01*
X82390603Y-85417073D01*
X82101537Y-85849692D01*
X82000030Y-86360000D01*
X82101537Y-86870308D01*
X82390603Y-87302927D01*
X82823222Y-87591993D01*
X83014295Y-87630000D01*
X82823222Y-87668007D01*
X82390603Y-87957073D01*
X82101537Y-88389692D01*
X82000030Y-88900000D01*
X82101537Y-89410308D01*
X82390603Y-89842927D01*
X82823222Y-90131993D01*
X83333530Y-90233500D01*
X84306470Y-90233500D01*
X84816778Y-90131993D01*
X85249397Y-89842927D01*
X85285429Y-89789000D01*
X87063764Y-89789000D01*
X87511000Y-90236236D01*
X87511000Y-90798970D01*
X87617340Y-91333579D01*
X87920172Y-91786798D01*
X88373391Y-92089630D01*
X88908000Y-92195970D01*
X89442609Y-92089630D01*
X89856614Y-91813000D01*
X94543167Y-91813000D01*
X94609202Y-91911828D01*
X95062421Y-92214660D01*
X95597030Y-92321000D01*
X96442970Y-92321000D01*
X96977579Y-92214660D01*
X97430798Y-91911828D01*
X97733630Y-91458609D01*
X97814707Y-91051002D01*
X97900278Y-91051002D01*
X97777780Y-91267070D01*
X97792740Y-91341277D01*
X98054370Y-91822026D01*
X98480059Y-92166059D01*
X99005000Y-92321000D01*
X99393000Y-92321000D01*
X99393000Y-91051000D01*
X99373000Y-91051000D01*
X99373000Y-90797000D01*
X99393000Y-90797000D01*
X99393000Y-89527000D01*
X99046969Y-89527000D01*
X99080660Y-89476579D01*
X99119562Y-89281000D01*
X101473000Y-89281000D01*
X101473000Y-90293446D01*
X101413263Y-90382849D01*
X101304030Y-90932000D01*
X101413263Y-91481151D01*
X101473000Y-91570553D01*
X101473000Y-92762000D01*
X101262220Y-92762000D01*
X101262220Y-91267070D01*
X101262220Y-90580930D01*
X101247260Y-90506723D01*
X100985630Y-90025974D01*
X100559941Y-89681941D01*
X100035000Y-89527000D01*
X99647000Y-89527000D01*
X99647000Y-90797000D01*
X101139720Y-90797000D01*
X101262220Y-90580930D01*
X101262220Y-91267070D01*
X101139720Y-91051000D01*
X99647000Y-91051000D01*
X99647000Y-92321000D01*
X100035000Y-92321000D01*
X100559941Y-92166059D01*
X100985630Y-91822026D01*
X101247260Y-91341277D01*
X101262220Y-91267070D01*
X101262220Y-92762000D01*
X99393000Y-92762000D01*
X83312000Y-92762000D01*
X82873931Y-92762000D01*
X82303413Y-92648516D01*
X81879041Y-92364960D01*
X81595482Y-91940584D01*
X81482000Y-91370069D01*
X81482000Y-82873930D01*
X81595482Y-82303415D01*
X81879041Y-81879039D01*
X82303413Y-81595483D01*
X82873931Y-81482000D01*
X118148480Y-81482000D01*
X118148480Y-81482000D01*
G37*
X118148480Y-81482000D02*
X117929073Y-81628603D01*
X117640007Y-82061222D01*
X117538500Y-82571530D01*
X117538500Y-83544470D01*
X117640007Y-84054778D01*
X117929073Y-84487397D01*
X117983000Y-84523429D01*
X117983000Y-85348475D01*
X117816230Y-85038875D01*
X117411141Y-84708607D01*
X116910500Y-84558500D01*
X116459000Y-84558500D01*
X116459000Y-85765000D01*
X116479000Y-85765000D01*
X116479000Y-86019000D01*
X116459000Y-86019000D01*
X116459000Y-86039000D01*
X116205000Y-86039000D01*
X116205000Y-86019000D01*
X116185000Y-86019000D01*
X116185000Y-85765000D01*
X116205000Y-85765000D01*
X116205000Y-84558500D01*
X115753500Y-84558500D01*
X115534729Y-84624094D01*
X115534729Y-83391094D01*
X115534729Y-82724906D01*
X115524095Y-82665024D01*
X115276230Y-82204875D01*
X114871141Y-81874607D01*
X114370500Y-81724500D01*
X113919000Y-81724500D01*
X113919000Y-82931000D01*
X115411365Y-82931000D01*
X115534729Y-82724906D01*
X115534729Y-83391094D01*
X115411365Y-83185000D01*
X113919000Y-83185000D01*
X113919000Y-84391500D01*
X114370500Y-84391500D01*
X114871141Y-84241393D01*
X115276230Y-83911125D01*
X115524095Y-83450976D01*
X115534729Y-83391094D01*
X115534729Y-84624094D01*
X115252859Y-84708607D01*
X114847770Y-85038875D01*
X114599905Y-85499024D01*
X114589271Y-85558906D01*
X114712633Y-85764998D01*
X114547000Y-85764998D01*
X114547000Y-85857764D01*
X113912618Y-85223382D01*
X113624206Y-85030671D01*
X113284000Y-84963000D01*
X112227656Y-84963000D01*
X112143668Y-84837302D01*
X111761582Y-84582000D01*
X112143668Y-84326698D01*
X112381292Y-83971067D01*
X112712859Y-84241393D01*
X113213500Y-84391500D01*
X113665000Y-84391500D01*
X113665000Y-83185000D01*
X113645000Y-83185000D01*
X113645000Y-82931000D01*
X113665000Y-82931000D01*
X113665000Y-81724500D01*
X113213500Y-81724500D01*
X112712859Y-81874607D01*
X112307770Y-82204875D01*
X112206959Y-82392024D01*
X112143668Y-82297302D01*
X111678121Y-81986233D01*
X111128970Y-81877000D01*
X110359030Y-81877000D01*
X109809879Y-81986233D01*
X109344332Y-82297302D01*
X109260343Y-82423000D01*
X106172000Y-82423000D01*
X105831794Y-82490671D01*
X105543382Y-82683382D01*
X104865904Y-83360859D01*
X104865904Y-82962961D01*
X104848367Y-82880181D01*
X104578500Y-82387104D01*
X104140483Y-82034834D01*
X103601000Y-81877000D01*
X103251000Y-81877000D01*
X103251000Y-83185000D01*
X104743915Y-83185000D01*
X104865904Y-82962961D01*
X104865904Y-83360859D01*
X104759463Y-83467300D01*
X104743915Y-83439000D01*
X103251000Y-83439000D01*
X103251000Y-83459000D01*
X102997000Y-83459000D01*
X102997000Y-83439000D01*
X102997000Y-83185000D01*
X102997000Y-81877000D01*
X102647000Y-81877000D01*
X102107517Y-82034834D01*
X101669500Y-82387104D01*
X101399633Y-82880181D01*
X101382096Y-82962961D01*
X101504085Y-83185000D01*
X102997000Y-83185000D01*
X102997000Y-83439000D01*
X101504085Y-83439000D01*
X101382096Y-83661039D01*
X101399633Y-83743819D01*
X101436956Y-83812012D01*
X101225382Y-83953382D01*
X100590382Y-84588382D01*
X100342764Y-84836000D01*
X99255429Y-84836000D01*
X99219397Y-84782073D01*
X98786778Y-84493007D01*
X98586436Y-84453156D01*
X98869141Y-84368393D01*
X99274230Y-84038125D01*
X99522095Y-83577976D01*
X99532729Y-83518094D01*
X99532729Y-82851906D01*
X99522095Y-82792024D01*
X99274230Y-82331875D01*
X98869141Y-82001607D01*
X98368500Y-81851500D01*
X97917000Y-81851500D01*
X97917000Y-83058000D01*
X99409365Y-83058000D01*
X99532729Y-82851906D01*
X99532729Y-83518094D01*
X99409365Y-83312000D01*
X97917000Y-83312000D01*
X97917000Y-83332000D01*
X97663000Y-83332000D01*
X97663000Y-83312000D01*
X97663000Y-83058000D01*
X97663000Y-81851500D01*
X97211500Y-81851500D01*
X96710859Y-82001607D01*
X96305770Y-82331875D01*
X96057905Y-82792024D01*
X96047271Y-82851906D01*
X96170635Y-83058000D01*
X97663000Y-83058000D01*
X97663000Y-83312000D01*
X96170635Y-83312000D01*
X96047271Y-83518094D01*
X96057905Y-83577976D01*
X96305770Y-84038125D01*
X96710859Y-84368393D01*
X96993563Y-84453156D01*
X96793222Y-84493007D01*
X96360603Y-84782073D01*
X96324570Y-84836000D01*
X94373440Y-84836000D01*
X94373440Y-84709000D01*
X94326463Y-84466877D01*
X94186673Y-84254073D01*
X94159671Y-84235846D01*
X94197952Y-84202833D01*
X94488202Y-83626354D01*
X94499975Y-83567944D01*
X94499975Y-82802056D01*
X94488202Y-82743646D01*
X94197952Y-82167167D01*
X93709187Y-81745644D01*
X93096317Y-81543250D01*
X92837000Y-81690563D01*
X92837000Y-83058000D01*
X94380836Y-83058000D01*
X94499975Y-82802056D01*
X94499975Y-83567944D01*
X94380836Y-83312000D01*
X92837000Y-83312000D01*
X92837000Y-83332000D01*
X92583000Y-83332000D01*
X92583000Y-83312000D01*
X92583000Y-83058000D01*
X92583000Y-81690563D01*
X92323683Y-81543250D01*
X91710813Y-81745644D01*
X91222048Y-82167167D01*
X90931798Y-82743646D01*
X90920025Y-82802056D01*
X91039164Y-83058000D01*
X92583000Y-83058000D01*
X92583000Y-83312000D01*
X91039164Y-83312000D01*
X90920025Y-83567944D01*
X90931798Y-83626354D01*
X91222048Y-84202833D01*
X91259352Y-84235005D01*
X91239073Y-84248327D01*
X91096623Y-84459360D01*
X91046560Y-84709000D01*
X91046560Y-85987000D01*
X90212301Y-85987000D01*
X90198660Y-85918421D01*
X89895828Y-85465202D01*
X89442609Y-85162370D01*
X89013624Y-85077040D01*
X90017600Y-85077040D01*
X90259723Y-85030063D01*
X90472527Y-84890273D01*
X90614977Y-84679240D01*
X90665040Y-84429600D01*
X90665040Y-82194400D01*
X90618063Y-81952277D01*
X90478273Y-81739473D01*
X90267240Y-81597023D01*
X90017600Y-81546960D01*
X87782400Y-81546960D01*
X87540277Y-81593937D01*
X87327473Y-81733727D01*
X87185023Y-81944760D01*
X87134960Y-82194400D01*
X87134960Y-83819804D01*
X85483764Y-85471000D01*
X85285429Y-85471000D01*
X85249397Y-85417073D01*
X84816778Y-85128007D01*
X84306470Y-85026500D01*
X83333530Y-85026500D01*
X82823222Y-85128007D01*
X82390603Y-85417073D01*
X82101537Y-85849692D01*
X82000030Y-86360000D01*
X82101537Y-86870308D01*
X82390603Y-87302927D01*
X82823222Y-87591993D01*
X83014295Y-87630000D01*
X82823222Y-87668007D01*
X82390603Y-87957073D01*
X82101537Y-88389692D01*
X82000030Y-88900000D01*
X82101537Y-89410308D01*
X82390603Y-89842927D01*
X82823222Y-90131993D01*
X83333530Y-90233500D01*
X84306470Y-90233500D01*
X84816778Y-90131993D01*
X85249397Y-89842927D01*
X85285429Y-89789000D01*
X87063764Y-89789000D01*
X87511000Y-90236236D01*
X87511000Y-90798970D01*
X87617340Y-91333579D01*
X87920172Y-91786798D01*
X88373391Y-92089630D01*
X88908000Y-92195970D01*
X89442609Y-92089630D01*
X89856614Y-91813000D01*
X94543167Y-91813000D01*
X94609202Y-91911828D01*
X95062421Y-92214660D01*
X95597030Y-92321000D01*
X96442970Y-92321000D01*
X96977579Y-92214660D01*
X97430798Y-91911828D01*
X97733630Y-91458609D01*
X97814707Y-91051002D01*
X97900278Y-91051002D01*
X97777780Y-91267070D01*
X97792740Y-91341277D01*
X98054370Y-91822026D01*
X98480059Y-92166059D01*
X99005000Y-92321000D01*
X99393000Y-92321000D01*
X99393000Y-91051000D01*
X99373000Y-91051000D01*
X99373000Y-90797000D01*
X99393000Y-90797000D01*
X99393000Y-89527000D01*
X99046969Y-89527000D01*
X99080660Y-89476579D01*
X99119562Y-89281000D01*
X101473000Y-89281000D01*
X101473000Y-90293446D01*
X101413263Y-90382849D01*
X101304030Y-90932000D01*
X101413263Y-91481151D01*
X101473000Y-91570553D01*
X101473000Y-92762000D01*
X101262220Y-92762000D01*
X101262220Y-91267070D01*
X101262220Y-90580930D01*
X101247260Y-90506723D01*
X100985630Y-90025974D01*
X100559941Y-89681941D01*
X100035000Y-89527000D01*
X99647000Y-89527000D01*
X99647000Y-90797000D01*
X101139720Y-90797000D01*
X101262220Y-90580930D01*
X101262220Y-91267070D01*
X101139720Y-91051000D01*
X99647000Y-91051000D01*
X99647000Y-92321000D01*
X100035000Y-92321000D01*
X100559941Y-92166059D01*
X100985630Y-91822026D01*
X101247260Y-91341277D01*
X101262220Y-91267070D01*
X101262220Y-92762000D01*
X99393000Y-92762000D01*
X83312000Y-92762000D01*
X82873931Y-92762000D01*
X82303413Y-92648516D01*
X81879041Y-92364960D01*
X81595482Y-91940584D01*
X81482000Y-91370069D01*
X81482000Y-82873930D01*
X81595482Y-82303415D01*
X81879041Y-81879039D01*
X82303413Y-81595483D01*
X82873931Y-81482000D01*
X118148480Y-81482000D01*
M02*
