M48
;DRILL file {KiCad (after 2015-may-01 BZR unknown)-product} date 28/10/2015 1:31:07
;FORMAT={-:-/ absolute / metric / decimal}
FMAT,2
METRIC,TZ
T1C0.635
T2C0.762
T3C0.800
T4C0.813
T5C1.016
T6C1.200
T7C2.500
%
G90
G05
M71
T1
X-5.842Y3.302
X-4.826Y-1.27
X3.302Y-7.493
X3.556Y2.921
X3.81Y-1.651
X5.334Y-7.493
X6.604Y5.334
X7.112Y-1.651
X7.112Y-7.493
T2
X-1.776Y7.874
X42.924Y7.874
T3
X-16.256Y-1.27
X-16.256Y-5.08
X-13.716Y1.27
X-13.716Y-7.62
X-11.176Y-1.27
X-11.176Y-5.08
X-7.366Y-1.27
X-7.366Y-5.08
X-4.826Y1.27
X-4.826Y-7.62
X-2.286Y-1.27
X-2.286Y-5.08
X1.524Y1.651
X1.524Y-0.889
X1.524Y-3.429
X1.524Y-5.969
X9.144Y1.651
X9.144Y-0.889
X9.144Y-3.429
X9.144Y-5.969
T4
X-18.796Y-7.62
X-16.764Y6.604
X-16.256Y-7.62
X-14.224Y6.604
X-11.684Y3.302
X-9.144Y3.302
X-7.874Y6.604
X-5.334Y6.604
X-1.778Y4.278
X-1.778Y1.778
X12.954Y1.651
X12.954Y-5.969
X15.494Y1.651
X15.494Y-5.969
X18.034Y1.524
X18.034Y-6.096
T6
X-28.702Y5.
X-28.702Y-5.
T7
X-39.116Y7.62
X-39.116Y-7.62
X20.574Y8.636
X20.574Y-8.636
T3
X-41.148Y3.6G85X-41.148Y-3.6
G05
X45.72Y-3.6G85X45.72Y3.6
G05
T5
X20.942Y0.508G85X20.942Y-0.508
G05
X42.05Y0.508G85X42.05Y-0.508
G05
T0
M30
