G04 #@! TF.FileFunction,Copper,L1,Top,Signal*
%FSLAX46Y46*%
G04 Gerber Fmt 4.6, Leading zero omitted, Abs format (unit mm)*
G04 Created by KiCad (PCBNEW (after 2015-may-01 BZR unknown)-product) date 19/09/2015 1:00:18*
%MOMM*%
G01*
G04 APERTURE LIST*
%ADD10C,0.150000*%
%ADD11R,2.032000X2.032000*%
%ADD12O,2.400000X2.032000*%
%ADD13O,2.300000X1.397000*%
%ADD14O,2.032000X2.032000*%
%ADD15O,1.397000X2.300000*%
%ADD16O,2.300000X1.600000*%
%ADD17R,2.235200X2.235200*%
%ADD18O,1.524000X2.300000*%
%ADD19O,2.300000X1.524000*%
%ADD20C,0.254000*%
G04 APERTURE END LIST*
D10*
X96090740Y-85455760D02*
X96090740Y-84955380D01*
X96090740Y-85455760D02*
X95590360Y-85455760D01*
X96090740Y-85956140D02*
X96090740Y-85455760D01*
X96090740Y-85455760D02*
X96489520Y-85455760D01*
X96489520Y-85455760D02*
X96591120Y-85455760D01*
X82120740Y-88630760D02*
X82120740Y-88130380D01*
X82120740Y-88630760D02*
X81620360Y-88630760D01*
X82120740Y-89131140D02*
X82120740Y-88630760D01*
X82120740Y-88630760D02*
X82519520Y-88630760D01*
X82519520Y-88630760D02*
X82621120Y-88630760D01*
D11*
X92710000Y-85725000D03*
D12*
X92710000Y-83185000D03*
D13*
X97790000Y-83185000D03*
X97790000Y-85725000D03*
X116332000Y-88392000D03*
X116332000Y-85892000D03*
X83820000Y-86360000D03*
X83820000Y-88900000D03*
D11*
X124460000Y-88265000D03*
D14*
X124460000Y-85725000D03*
D15*
X121412000Y-90678000D03*
X121412000Y-83058000D03*
X118872000Y-83058000D03*
X118872000Y-90678000D03*
D16*
X103124000Y-83312000D03*
X103124000Y-85852000D03*
X103124000Y-88392000D03*
X103124000Y-90932000D03*
X110744000Y-90932000D03*
X110744000Y-88392000D03*
X110744000Y-85852000D03*
X110744000Y-83312000D03*
D15*
X113792000Y-90678000D03*
D13*
X113792000Y-83058000D03*
D17*
X88900000Y-83312000D03*
D18*
X97790000Y-88519000D03*
D19*
X96020000Y-90924000D03*
X99520000Y-90924000D03*
X91313000Y-88646000D03*
D18*
X88908000Y-86876000D03*
X88908000Y-90376000D03*
D20*
G36*
X125782000Y-91878072D02*
X125707187Y-92254179D01*
X125533749Y-92513749D01*
X125274182Y-92687186D01*
X124898073Y-92762000D01*
X122745500Y-92762000D01*
X122745500Y-91164470D01*
X122745500Y-90191530D01*
X122643993Y-89681222D01*
X122354927Y-89248603D01*
X121922308Y-88959537D01*
X121412000Y-88858030D01*
X120901692Y-88959537D01*
X120469073Y-89248603D01*
X120180007Y-89681222D01*
X120142000Y-89872295D01*
X120103993Y-89681222D01*
X119814927Y-89248603D01*
X119382308Y-88959537D01*
X118872000Y-88858030D01*
X118361692Y-88959537D01*
X118151970Y-89099668D01*
X118151970Y-88392000D01*
X118050463Y-87881692D01*
X117761397Y-87449073D01*
X117328778Y-87160007D01*
X117208637Y-87136109D01*
X117411141Y-87075393D01*
X117816230Y-86745125D01*
X118064095Y-86284976D01*
X118074729Y-86225094D01*
X118074729Y-85558906D01*
X118064095Y-85499024D01*
X117816230Y-85038875D01*
X117411141Y-84708607D01*
X116910500Y-84558500D01*
X116459000Y-84558500D01*
X116459000Y-85765000D01*
X117951365Y-85765000D01*
X118074729Y-85558906D01*
X118074729Y-86225094D01*
X117951365Y-86019000D01*
X116459000Y-86019000D01*
X116459000Y-86039000D01*
X116205000Y-86039000D01*
X116205000Y-86019000D01*
X116205000Y-85765000D01*
X116205000Y-84558500D01*
X115753500Y-84558500D01*
X115534729Y-84624094D01*
X115534729Y-83391094D01*
X115534729Y-82724906D01*
X115524095Y-82665024D01*
X115276230Y-82204875D01*
X114871141Y-81874607D01*
X114370500Y-81724500D01*
X113919000Y-81724500D01*
X113919000Y-82931000D01*
X115411365Y-82931000D01*
X115534729Y-82724906D01*
X115534729Y-83391094D01*
X115411365Y-83185000D01*
X113919000Y-83185000D01*
X113919000Y-84391500D01*
X114370500Y-84391500D01*
X114871141Y-84241393D01*
X115276230Y-83911125D01*
X115524095Y-83450976D01*
X115534729Y-83391094D01*
X115534729Y-84624094D01*
X115252859Y-84708607D01*
X114847770Y-85038875D01*
X114599905Y-85499024D01*
X114589271Y-85558906D01*
X114712635Y-85765000D01*
X116205000Y-85765000D01*
X116205000Y-86019000D01*
X114712635Y-86019000D01*
X114589271Y-86225094D01*
X114599905Y-86284976D01*
X114847770Y-86745125D01*
X115252859Y-87075393D01*
X115455362Y-87136109D01*
X115335222Y-87160007D01*
X114902603Y-87449073D01*
X114613537Y-87881692D01*
X114512030Y-88392000D01*
X114613537Y-88902308D01*
X114902603Y-89334927D01*
X115335222Y-89623993D01*
X115845530Y-89725500D01*
X116818470Y-89725500D01*
X117328778Y-89623993D01*
X117761397Y-89334927D01*
X118050463Y-88902308D01*
X118151970Y-88392000D01*
X118151970Y-89099668D01*
X117929073Y-89248603D01*
X117640007Y-89681222D01*
X117538500Y-90191530D01*
X117538500Y-91164470D01*
X117640007Y-91674778D01*
X117929073Y-92107397D01*
X118361692Y-92396463D01*
X118872000Y-92497970D01*
X119382308Y-92396463D01*
X119814927Y-92107397D01*
X120103993Y-91674778D01*
X120142000Y-91483704D01*
X120180007Y-91674778D01*
X120469073Y-92107397D01*
X120901692Y-92396463D01*
X121412000Y-92497970D01*
X121922308Y-92396463D01*
X122354927Y-92107397D01*
X122643993Y-91674778D01*
X122745500Y-91164470D01*
X122745500Y-92762000D01*
X115125500Y-92762000D01*
X115125500Y-91164470D01*
X115125500Y-90191530D01*
X115023993Y-89681222D01*
X114734927Y-89248603D01*
X114302308Y-88959537D01*
X113792000Y-88858030D01*
X113281692Y-88959537D01*
X112849073Y-89248603D01*
X112560007Y-89681222D01*
X112458500Y-90191530D01*
X112458500Y-90401766D01*
X112454737Y-90382849D01*
X112143668Y-89917302D01*
X111761582Y-89662000D01*
X112143668Y-89406698D01*
X112454737Y-88941151D01*
X112563970Y-88392000D01*
X112454737Y-87842849D01*
X112143668Y-87377302D01*
X111761582Y-87122000D01*
X112143668Y-86866698D01*
X112454737Y-86401151D01*
X112563970Y-85852000D01*
X112454737Y-85302849D01*
X112143668Y-84837302D01*
X111761582Y-84582000D01*
X112143668Y-84326698D01*
X112381292Y-83971067D01*
X112712859Y-84241393D01*
X113213500Y-84391500D01*
X113665000Y-84391500D01*
X113665000Y-83185000D01*
X113645000Y-83185000D01*
X113645000Y-82931000D01*
X113665000Y-82931000D01*
X113665000Y-81724500D01*
X113213500Y-81724500D01*
X112712859Y-81874607D01*
X112307770Y-82204875D01*
X112206959Y-82392024D01*
X112143668Y-82297302D01*
X111678121Y-81986233D01*
X111128970Y-81877000D01*
X110359030Y-81877000D01*
X109809879Y-81986233D01*
X109344332Y-82297302D01*
X109033263Y-82762849D01*
X108924030Y-83312000D01*
X109033263Y-83861151D01*
X109344332Y-84326698D01*
X109726417Y-84582000D01*
X109344332Y-84837302D01*
X109033263Y-85302849D01*
X108924030Y-85852000D01*
X109033263Y-86401151D01*
X109344332Y-86866698D01*
X109726417Y-87122000D01*
X109344332Y-87377302D01*
X109033263Y-87842849D01*
X108924030Y-88392000D01*
X109033263Y-88941151D01*
X109344332Y-89406698D01*
X109726417Y-89662000D01*
X109344332Y-89917302D01*
X109033263Y-90382849D01*
X108924030Y-90932000D01*
X109033263Y-91481151D01*
X109344332Y-91946698D01*
X109809879Y-92257767D01*
X110359030Y-92367000D01*
X111128970Y-92367000D01*
X111678121Y-92257767D01*
X112143668Y-91946698D01*
X112454737Y-91481151D01*
X112488114Y-91313351D01*
X112560007Y-91674778D01*
X112849073Y-92107397D01*
X113281692Y-92396463D01*
X113792000Y-92497970D01*
X114302308Y-92396463D01*
X114734927Y-92107397D01*
X115023993Y-91674778D01*
X115125500Y-91164470D01*
X115125500Y-92762000D01*
X104943970Y-92762000D01*
X104943970Y-90932000D01*
X104834737Y-90382849D01*
X104523668Y-89917302D01*
X104141582Y-89662000D01*
X104523668Y-89406698D01*
X104834737Y-88941151D01*
X104943970Y-88392000D01*
X104834737Y-87842849D01*
X104523668Y-87377302D01*
X104141582Y-87122000D01*
X104523668Y-86866698D01*
X104834737Y-86401151D01*
X104943970Y-85852000D01*
X104834737Y-85302849D01*
X104523668Y-84837302D01*
X104145848Y-84584850D01*
X104578500Y-84236896D01*
X104848367Y-83743819D01*
X104865904Y-83661039D01*
X104865904Y-82962961D01*
X104848367Y-82880181D01*
X104578500Y-82387104D01*
X104140483Y-82034834D01*
X103601000Y-81877000D01*
X103251000Y-81877000D01*
X103251000Y-83185000D01*
X104743915Y-83185000D01*
X104865904Y-82962961D01*
X104865904Y-83661039D01*
X104743915Y-83439000D01*
X103251000Y-83439000D01*
X103251000Y-83459000D01*
X102997000Y-83459000D01*
X102997000Y-83439000D01*
X102997000Y-83185000D01*
X102997000Y-81877000D01*
X102647000Y-81877000D01*
X102107517Y-82034834D01*
X101669500Y-82387104D01*
X101399633Y-82880181D01*
X101382096Y-82962961D01*
X101504085Y-83185000D01*
X102997000Y-83185000D01*
X102997000Y-83439000D01*
X101504085Y-83439000D01*
X101382096Y-83661039D01*
X101399633Y-83743819D01*
X101669500Y-84236896D01*
X102102151Y-84584850D01*
X101724332Y-84837302D01*
X101413263Y-85302849D01*
X101304030Y-85852000D01*
X101413263Y-86401151D01*
X101724332Y-86866698D01*
X102106417Y-87122000D01*
X101724332Y-87377302D01*
X101413263Y-87842849D01*
X101304030Y-88392000D01*
X101413263Y-88941151D01*
X101724332Y-89406698D01*
X102106417Y-89662000D01*
X101724332Y-89917302D01*
X101413263Y-90382849D01*
X101304030Y-90932000D01*
X101413263Y-91481151D01*
X101724332Y-91946698D01*
X102189879Y-92257767D01*
X102739030Y-92367000D01*
X103508970Y-92367000D01*
X104058121Y-92257767D01*
X104523668Y-91946698D01*
X104834737Y-91481151D01*
X104943970Y-90932000D01*
X104943970Y-92762000D01*
X101262220Y-92762000D01*
X101262220Y-91267070D01*
X101262220Y-90580930D01*
X101247260Y-90506723D01*
X100985630Y-90025974D01*
X100559941Y-89681941D01*
X100035000Y-89527000D01*
X99647000Y-89527000D01*
X99647000Y-90797000D01*
X101139720Y-90797000D01*
X101262220Y-90580930D01*
X101262220Y-91267070D01*
X101139720Y-91051000D01*
X99647000Y-91051000D01*
X99647000Y-92321000D01*
X100035000Y-92321000D01*
X100559941Y-92166059D01*
X100985630Y-91822026D01*
X101247260Y-91341277D01*
X101262220Y-91267070D01*
X101262220Y-92762000D01*
X99609970Y-92762000D01*
X99609970Y-85725000D01*
X99508463Y-85214692D01*
X99219397Y-84782073D01*
X98786778Y-84493007D01*
X98586436Y-84453156D01*
X98869141Y-84368393D01*
X99274230Y-84038125D01*
X99522095Y-83577976D01*
X99532729Y-83518094D01*
X99532729Y-82851906D01*
X99522095Y-82792024D01*
X99274230Y-82331875D01*
X98869141Y-82001607D01*
X98368500Y-81851500D01*
X97917000Y-81851500D01*
X97917000Y-83058000D01*
X99409365Y-83058000D01*
X99532729Y-82851906D01*
X99532729Y-83518094D01*
X99409365Y-83312000D01*
X97917000Y-83312000D01*
X97917000Y-83332000D01*
X97663000Y-83332000D01*
X97663000Y-83312000D01*
X97663000Y-83058000D01*
X97663000Y-81851500D01*
X97211500Y-81851500D01*
X96710859Y-82001607D01*
X96305770Y-82331875D01*
X96057905Y-82792024D01*
X96047271Y-82851906D01*
X96170635Y-83058000D01*
X97663000Y-83058000D01*
X97663000Y-83312000D01*
X96170635Y-83312000D01*
X96047271Y-83518094D01*
X96057905Y-83577976D01*
X96305770Y-84038125D01*
X96710859Y-84368393D01*
X96993563Y-84453156D01*
X96793222Y-84493007D01*
X96672978Y-84573351D01*
X96592786Y-84453334D01*
X96362445Y-84299426D01*
X96090740Y-84245380D01*
X95819035Y-84299426D01*
X95588694Y-84453334D01*
X95434786Y-84683675D01*
X95415518Y-84780538D01*
X95318655Y-84799806D01*
X95088314Y-84953714D01*
X94934406Y-85184055D01*
X94880360Y-85455760D01*
X94934406Y-85727465D01*
X95088314Y-85957806D01*
X95318655Y-86111714D01*
X95415518Y-86130981D01*
X95434786Y-86227845D01*
X95588694Y-86458186D01*
X95819035Y-86612094D01*
X96090740Y-86666140D01*
X96327889Y-86618967D01*
X96360603Y-86667927D01*
X96793222Y-86956993D01*
X96974504Y-86993052D01*
X96802172Y-87108202D01*
X96499340Y-87561421D01*
X96393000Y-88096030D01*
X96393000Y-88941970D01*
X96499340Y-89476579D01*
X96546834Y-89547659D01*
X96442970Y-89527000D01*
X95597030Y-89527000D01*
X95062421Y-89633340D01*
X94609202Y-89936172D01*
X94499975Y-90099641D01*
X94499975Y-83567944D01*
X94499975Y-82802056D01*
X94488202Y-82743646D01*
X94197952Y-82167167D01*
X93709187Y-81745644D01*
X93096317Y-81543250D01*
X92837000Y-81690563D01*
X92837000Y-83058000D01*
X94380836Y-83058000D01*
X94499975Y-82802056D01*
X94499975Y-83567944D01*
X94380836Y-83312000D01*
X92837000Y-83312000D01*
X92837000Y-83332000D01*
X92583000Y-83332000D01*
X92583000Y-83312000D01*
X92583000Y-83058000D01*
X92583000Y-81690563D01*
X92323683Y-81543250D01*
X91710813Y-81745644D01*
X91222048Y-82167167D01*
X90931798Y-82743646D01*
X90920025Y-82802056D01*
X91039164Y-83058000D01*
X92583000Y-83058000D01*
X92583000Y-83312000D01*
X91039164Y-83312000D01*
X90920025Y-83567944D01*
X90931798Y-83626354D01*
X91222048Y-84202833D01*
X91259352Y-84235005D01*
X91239073Y-84248327D01*
X91096623Y-84459360D01*
X91046560Y-84709000D01*
X91046560Y-86741000D01*
X91093537Y-86983123D01*
X91233327Y-87195927D01*
X91311952Y-87249000D01*
X90890030Y-87249000D01*
X90355421Y-87355340D01*
X90284340Y-87402834D01*
X90305000Y-87298970D01*
X90305000Y-86453030D01*
X90198660Y-85918421D01*
X89895828Y-85465202D01*
X89442609Y-85162370D01*
X89013624Y-85077040D01*
X90017600Y-85077040D01*
X90259723Y-85030063D01*
X90472527Y-84890273D01*
X90614977Y-84679240D01*
X90665040Y-84429600D01*
X90665040Y-82194400D01*
X90618063Y-81952277D01*
X90478273Y-81739473D01*
X90267240Y-81597023D01*
X90017600Y-81546960D01*
X87782400Y-81546960D01*
X87540277Y-81593937D01*
X87327473Y-81733727D01*
X87185023Y-81944760D01*
X87134960Y-82194400D01*
X87134960Y-84429600D01*
X87181937Y-84671723D01*
X87321727Y-84884527D01*
X87532760Y-85026977D01*
X87782400Y-85077040D01*
X88802375Y-85077040D01*
X88373391Y-85162370D01*
X87920172Y-85465202D01*
X87617340Y-85918421D01*
X87511000Y-86453030D01*
X87511000Y-87298970D01*
X87617340Y-87833579D01*
X87920172Y-88286798D01*
X88373391Y-88589630D01*
X88556235Y-88626000D01*
X88373391Y-88662370D01*
X87920172Y-88965202D01*
X87617340Y-89418421D01*
X87511000Y-89953030D01*
X87511000Y-90798970D01*
X87617340Y-91333579D01*
X87920172Y-91786798D01*
X88373391Y-92089630D01*
X88908000Y-92195970D01*
X89442609Y-92089630D01*
X89895828Y-91786798D01*
X90198660Y-91333579D01*
X90305000Y-90798970D01*
X90305000Y-89953030D01*
X90293516Y-89895296D01*
X90355421Y-89936660D01*
X90890030Y-90043000D01*
X91735970Y-90043000D01*
X92270579Y-89936660D01*
X92723798Y-89633828D01*
X93026630Y-89180609D01*
X93132970Y-88646000D01*
X93026630Y-88111391D01*
X92723798Y-87658172D01*
X92320116Y-87388440D01*
X93726000Y-87388440D01*
X93968123Y-87341463D01*
X94180927Y-87201673D01*
X94323377Y-86990640D01*
X94373440Y-86741000D01*
X94373440Y-84709000D01*
X94326463Y-84466877D01*
X94186673Y-84254073D01*
X94159671Y-84235846D01*
X94197952Y-84202833D01*
X94488202Y-83626354D01*
X94499975Y-83567944D01*
X94499975Y-90099641D01*
X94306370Y-90389391D01*
X94200030Y-90924000D01*
X94306370Y-91458609D01*
X94609202Y-91911828D01*
X95062421Y-92214660D01*
X95597030Y-92321000D01*
X96442970Y-92321000D01*
X96977579Y-92214660D01*
X97430798Y-91911828D01*
X97733630Y-91458609D01*
X97814707Y-91051002D01*
X97900278Y-91051002D01*
X97777780Y-91267070D01*
X97792740Y-91341277D01*
X98054370Y-91822026D01*
X98480059Y-92166059D01*
X99005000Y-92321000D01*
X99393000Y-92321000D01*
X99393000Y-91051000D01*
X99373000Y-91051000D01*
X99373000Y-90797000D01*
X99393000Y-90797000D01*
X99393000Y-89527000D01*
X99046969Y-89527000D01*
X99080660Y-89476579D01*
X99187000Y-88941970D01*
X99187000Y-88096030D01*
X99080660Y-87561421D01*
X98777828Y-87108202D01*
X98605495Y-86993052D01*
X98786778Y-86956993D01*
X99219397Y-86667927D01*
X99508463Y-86235308D01*
X99609970Y-85725000D01*
X99609970Y-92762000D01*
X99393000Y-92762000D01*
X83312000Y-92762000D01*
X82873931Y-92762000D01*
X82303413Y-92648516D01*
X81879041Y-92364960D01*
X81595482Y-91940584D01*
X81482000Y-91370069D01*
X81482000Y-89428607D01*
X81618694Y-89633186D01*
X81849035Y-89787094D01*
X82120740Y-89841140D01*
X82357889Y-89793967D01*
X82390603Y-89842927D01*
X82823222Y-90131993D01*
X83333530Y-90233500D01*
X84306470Y-90233500D01*
X84816778Y-90131993D01*
X85249397Y-89842927D01*
X85538463Y-89410308D01*
X85639970Y-88900000D01*
X85538463Y-88389692D01*
X85249397Y-87957073D01*
X84816778Y-87668007D01*
X84625704Y-87630000D01*
X84816778Y-87591993D01*
X85249397Y-87302927D01*
X85538463Y-86870308D01*
X85639970Y-86360000D01*
X85538463Y-85849692D01*
X85249397Y-85417073D01*
X84816778Y-85128007D01*
X84306470Y-85026500D01*
X83333530Y-85026500D01*
X82823222Y-85128007D01*
X82390603Y-85417073D01*
X82101537Y-85849692D01*
X82000030Y-86360000D01*
X82101537Y-86870308D01*
X82390603Y-87302927D01*
X82823222Y-87591993D01*
X83014295Y-87630000D01*
X82823222Y-87668007D01*
X82702978Y-87748351D01*
X82622786Y-87628334D01*
X82392445Y-87474426D01*
X82120740Y-87420380D01*
X81849035Y-87474426D01*
X81618694Y-87628334D01*
X81482000Y-87832912D01*
X81482000Y-82873930D01*
X81595482Y-82303415D01*
X81879041Y-81879039D01*
X82303413Y-81595483D01*
X82873931Y-81482000D01*
X118148480Y-81482000D01*
X117929073Y-81628603D01*
X117640007Y-82061222D01*
X117538500Y-82571530D01*
X117538500Y-83544470D01*
X117640007Y-84054778D01*
X117929073Y-84487397D01*
X118361692Y-84776463D01*
X118872000Y-84877970D01*
X119382308Y-84776463D01*
X119814927Y-84487397D01*
X120103993Y-84054778D01*
X120142000Y-83863704D01*
X120180007Y-84054778D01*
X120469073Y-84487397D01*
X120901692Y-84776463D01*
X121412000Y-84877970D01*
X121922308Y-84776463D01*
X122354927Y-84487397D01*
X122643993Y-84054778D01*
X122745500Y-83544470D01*
X122745500Y-82571530D01*
X122643993Y-82061222D01*
X122354927Y-81628603D01*
X122135519Y-81482000D01*
X124898073Y-81482000D01*
X125274182Y-81556813D01*
X125533749Y-81730250D01*
X125707187Y-81989820D01*
X125782000Y-82365927D01*
X125782000Y-84740485D01*
X125659778Y-84557567D01*
X125124155Y-84199675D01*
X124492345Y-84074000D01*
X124427655Y-84074000D01*
X123795845Y-84199675D01*
X123260222Y-84557567D01*
X122902330Y-85093190D01*
X122776655Y-85725000D01*
X122902330Y-86356810D01*
X123129169Y-86696298D01*
X122989073Y-86788327D01*
X122846623Y-86999360D01*
X122796560Y-87249000D01*
X122796560Y-89281000D01*
X122843537Y-89523123D01*
X122983327Y-89735927D01*
X123194360Y-89878377D01*
X123444000Y-89928440D01*
X125476000Y-89928440D01*
X125718123Y-89881463D01*
X125782000Y-89839502D01*
X125782000Y-91878072D01*
X125782000Y-91878072D01*
G37*
X125782000Y-91878072D02*
X125707187Y-92254179D01*
X125533749Y-92513749D01*
X125274182Y-92687186D01*
X124898073Y-92762000D01*
X122745500Y-92762000D01*
X122745500Y-91164470D01*
X122745500Y-90191530D01*
X122643993Y-89681222D01*
X122354927Y-89248603D01*
X121922308Y-88959537D01*
X121412000Y-88858030D01*
X120901692Y-88959537D01*
X120469073Y-89248603D01*
X120180007Y-89681222D01*
X120142000Y-89872295D01*
X120103993Y-89681222D01*
X119814927Y-89248603D01*
X119382308Y-88959537D01*
X118872000Y-88858030D01*
X118361692Y-88959537D01*
X118151970Y-89099668D01*
X118151970Y-88392000D01*
X118050463Y-87881692D01*
X117761397Y-87449073D01*
X117328778Y-87160007D01*
X117208637Y-87136109D01*
X117411141Y-87075393D01*
X117816230Y-86745125D01*
X118064095Y-86284976D01*
X118074729Y-86225094D01*
X118074729Y-85558906D01*
X118064095Y-85499024D01*
X117816230Y-85038875D01*
X117411141Y-84708607D01*
X116910500Y-84558500D01*
X116459000Y-84558500D01*
X116459000Y-85765000D01*
X117951365Y-85765000D01*
X118074729Y-85558906D01*
X118074729Y-86225094D01*
X117951365Y-86019000D01*
X116459000Y-86019000D01*
X116459000Y-86039000D01*
X116205000Y-86039000D01*
X116205000Y-86019000D01*
X116205000Y-85765000D01*
X116205000Y-84558500D01*
X115753500Y-84558500D01*
X115534729Y-84624094D01*
X115534729Y-83391094D01*
X115534729Y-82724906D01*
X115524095Y-82665024D01*
X115276230Y-82204875D01*
X114871141Y-81874607D01*
X114370500Y-81724500D01*
X113919000Y-81724500D01*
X113919000Y-82931000D01*
X115411365Y-82931000D01*
X115534729Y-82724906D01*
X115534729Y-83391094D01*
X115411365Y-83185000D01*
X113919000Y-83185000D01*
X113919000Y-84391500D01*
X114370500Y-84391500D01*
X114871141Y-84241393D01*
X115276230Y-83911125D01*
X115524095Y-83450976D01*
X115534729Y-83391094D01*
X115534729Y-84624094D01*
X115252859Y-84708607D01*
X114847770Y-85038875D01*
X114599905Y-85499024D01*
X114589271Y-85558906D01*
X114712635Y-85765000D01*
X116205000Y-85765000D01*
X116205000Y-86019000D01*
X114712635Y-86019000D01*
X114589271Y-86225094D01*
X114599905Y-86284976D01*
X114847770Y-86745125D01*
X115252859Y-87075393D01*
X115455362Y-87136109D01*
X115335222Y-87160007D01*
X114902603Y-87449073D01*
X114613537Y-87881692D01*
X114512030Y-88392000D01*
X114613537Y-88902308D01*
X114902603Y-89334927D01*
X115335222Y-89623993D01*
X115845530Y-89725500D01*
X116818470Y-89725500D01*
X117328778Y-89623993D01*
X117761397Y-89334927D01*
X118050463Y-88902308D01*
X118151970Y-88392000D01*
X118151970Y-89099668D01*
X117929073Y-89248603D01*
X117640007Y-89681222D01*
X117538500Y-90191530D01*
X117538500Y-91164470D01*
X117640007Y-91674778D01*
X117929073Y-92107397D01*
X118361692Y-92396463D01*
X118872000Y-92497970D01*
X119382308Y-92396463D01*
X119814927Y-92107397D01*
X120103993Y-91674778D01*
X120142000Y-91483704D01*
X120180007Y-91674778D01*
X120469073Y-92107397D01*
X120901692Y-92396463D01*
X121412000Y-92497970D01*
X121922308Y-92396463D01*
X122354927Y-92107397D01*
X122643993Y-91674778D01*
X122745500Y-91164470D01*
X122745500Y-92762000D01*
X115125500Y-92762000D01*
X115125500Y-91164470D01*
X115125500Y-90191530D01*
X115023993Y-89681222D01*
X114734927Y-89248603D01*
X114302308Y-88959537D01*
X113792000Y-88858030D01*
X113281692Y-88959537D01*
X112849073Y-89248603D01*
X112560007Y-89681222D01*
X112458500Y-90191530D01*
X112458500Y-90401766D01*
X112454737Y-90382849D01*
X112143668Y-89917302D01*
X111761582Y-89662000D01*
X112143668Y-89406698D01*
X112454737Y-88941151D01*
X112563970Y-88392000D01*
X112454737Y-87842849D01*
X112143668Y-87377302D01*
X111761582Y-87122000D01*
X112143668Y-86866698D01*
X112454737Y-86401151D01*
X112563970Y-85852000D01*
X112454737Y-85302849D01*
X112143668Y-84837302D01*
X111761582Y-84582000D01*
X112143668Y-84326698D01*
X112381292Y-83971067D01*
X112712859Y-84241393D01*
X113213500Y-84391500D01*
X113665000Y-84391500D01*
X113665000Y-83185000D01*
X113645000Y-83185000D01*
X113645000Y-82931000D01*
X113665000Y-82931000D01*
X113665000Y-81724500D01*
X113213500Y-81724500D01*
X112712859Y-81874607D01*
X112307770Y-82204875D01*
X112206959Y-82392024D01*
X112143668Y-82297302D01*
X111678121Y-81986233D01*
X111128970Y-81877000D01*
X110359030Y-81877000D01*
X109809879Y-81986233D01*
X109344332Y-82297302D01*
X109033263Y-82762849D01*
X108924030Y-83312000D01*
X109033263Y-83861151D01*
X109344332Y-84326698D01*
X109726417Y-84582000D01*
X109344332Y-84837302D01*
X109033263Y-85302849D01*
X108924030Y-85852000D01*
X109033263Y-86401151D01*
X109344332Y-86866698D01*
X109726417Y-87122000D01*
X109344332Y-87377302D01*
X109033263Y-87842849D01*
X108924030Y-88392000D01*
X109033263Y-88941151D01*
X109344332Y-89406698D01*
X109726417Y-89662000D01*
X109344332Y-89917302D01*
X109033263Y-90382849D01*
X108924030Y-90932000D01*
X109033263Y-91481151D01*
X109344332Y-91946698D01*
X109809879Y-92257767D01*
X110359030Y-92367000D01*
X111128970Y-92367000D01*
X111678121Y-92257767D01*
X112143668Y-91946698D01*
X112454737Y-91481151D01*
X112488114Y-91313351D01*
X112560007Y-91674778D01*
X112849073Y-92107397D01*
X113281692Y-92396463D01*
X113792000Y-92497970D01*
X114302308Y-92396463D01*
X114734927Y-92107397D01*
X115023993Y-91674778D01*
X115125500Y-91164470D01*
X115125500Y-92762000D01*
X104943970Y-92762000D01*
X104943970Y-90932000D01*
X104834737Y-90382849D01*
X104523668Y-89917302D01*
X104141582Y-89662000D01*
X104523668Y-89406698D01*
X104834737Y-88941151D01*
X104943970Y-88392000D01*
X104834737Y-87842849D01*
X104523668Y-87377302D01*
X104141582Y-87122000D01*
X104523668Y-86866698D01*
X104834737Y-86401151D01*
X104943970Y-85852000D01*
X104834737Y-85302849D01*
X104523668Y-84837302D01*
X104145848Y-84584850D01*
X104578500Y-84236896D01*
X104848367Y-83743819D01*
X104865904Y-83661039D01*
X104865904Y-82962961D01*
X104848367Y-82880181D01*
X104578500Y-82387104D01*
X104140483Y-82034834D01*
X103601000Y-81877000D01*
X103251000Y-81877000D01*
X103251000Y-83185000D01*
X104743915Y-83185000D01*
X104865904Y-82962961D01*
X104865904Y-83661039D01*
X104743915Y-83439000D01*
X103251000Y-83439000D01*
X103251000Y-83459000D01*
X102997000Y-83459000D01*
X102997000Y-83439000D01*
X102997000Y-83185000D01*
X102997000Y-81877000D01*
X102647000Y-81877000D01*
X102107517Y-82034834D01*
X101669500Y-82387104D01*
X101399633Y-82880181D01*
X101382096Y-82962961D01*
X101504085Y-83185000D01*
X102997000Y-83185000D01*
X102997000Y-83439000D01*
X101504085Y-83439000D01*
X101382096Y-83661039D01*
X101399633Y-83743819D01*
X101669500Y-84236896D01*
X102102151Y-84584850D01*
X101724332Y-84837302D01*
X101413263Y-85302849D01*
X101304030Y-85852000D01*
X101413263Y-86401151D01*
X101724332Y-86866698D01*
X102106417Y-87122000D01*
X101724332Y-87377302D01*
X101413263Y-87842849D01*
X101304030Y-88392000D01*
X101413263Y-88941151D01*
X101724332Y-89406698D01*
X102106417Y-89662000D01*
X101724332Y-89917302D01*
X101413263Y-90382849D01*
X101304030Y-90932000D01*
X101413263Y-91481151D01*
X101724332Y-91946698D01*
X102189879Y-92257767D01*
X102739030Y-92367000D01*
X103508970Y-92367000D01*
X104058121Y-92257767D01*
X104523668Y-91946698D01*
X104834737Y-91481151D01*
X104943970Y-90932000D01*
X104943970Y-92762000D01*
X101262220Y-92762000D01*
X101262220Y-91267070D01*
X101262220Y-90580930D01*
X101247260Y-90506723D01*
X100985630Y-90025974D01*
X100559941Y-89681941D01*
X100035000Y-89527000D01*
X99647000Y-89527000D01*
X99647000Y-90797000D01*
X101139720Y-90797000D01*
X101262220Y-90580930D01*
X101262220Y-91267070D01*
X101139720Y-91051000D01*
X99647000Y-91051000D01*
X99647000Y-92321000D01*
X100035000Y-92321000D01*
X100559941Y-92166059D01*
X100985630Y-91822026D01*
X101247260Y-91341277D01*
X101262220Y-91267070D01*
X101262220Y-92762000D01*
X99609970Y-92762000D01*
X99609970Y-85725000D01*
X99508463Y-85214692D01*
X99219397Y-84782073D01*
X98786778Y-84493007D01*
X98586436Y-84453156D01*
X98869141Y-84368393D01*
X99274230Y-84038125D01*
X99522095Y-83577976D01*
X99532729Y-83518094D01*
X99532729Y-82851906D01*
X99522095Y-82792024D01*
X99274230Y-82331875D01*
X98869141Y-82001607D01*
X98368500Y-81851500D01*
X97917000Y-81851500D01*
X97917000Y-83058000D01*
X99409365Y-83058000D01*
X99532729Y-82851906D01*
X99532729Y-83518094D01*
X99409365Y-83312000D01*
X97917000Y-83312000D01*
X97917000Y-83332000D01*
X97663000Y-83332000D01*
X97663000Y-83312000D01*
X97663000Y-83058000D01*
X97663000Y-81851500D01*
X97211500Y-81851500D01*
X96710859Y-82001607D01*
X96305770Y-82331875D01*
X96057905Y-82792024D01*
X96047271Y-82851906D01*
X96170635Y-83058000D01*
X97663000Y-83058000D01*
X97663000Y-83312000D01*
X96170635Y-83312000D01*
X96047271Y-83518094D01*
X96057905Y-83577976D01*
X96305770Y-84038125D01*
X96710859Y-84368393D01*
X96993563Y-84453156D01*
X96793222Y-84493007D01*
X96672978Y-84573351D01*
X96592786Y-84453334D01*
X96362445Y-84299426D01*
X96090740Y-84245380D01*
X95819035Y-84299426D01*
X95588694Y-84453334D01*
X95434786Y-84683675D01*
X95415518Y-84780538D01*
X95318655Y-84799806D01*
X95088314Y-84953714D01*
X94934406Y-85184055D01*
X94880360Y-85455760D01*
X94934406Y-85727465D01*
X95088314Y-85957806D01*
X95318655Y-86111714D01*
X95415518Y-86130981D01*
X95434786Y-86227845D01*
X95588694Y-86458186D01*
X95819035Y-86612094D01*
X96090740Y-86666140D01*
X96327889Y-86618967D01*
X96360603Y-86667927D01*
X96793222Y-86956993D01*
X96974504Y-86993052D01*
X96802172Y-87108202D01*
X96499340Y-87561421D01*
X96393000Y-88096030D01*
X96393000Y-88941970D01*
X96499340Y-89476579D01*
X96546834Y-89547659D01*
X96442970Y-89527000D01*
X95597030Y-89527000D01*
X95062421Y-89633340D01*
X94609202Y-89936172D01*
X94499975Y-90099641D01*
X94499975Y-83567944D01*
X94499975Y-82802056D01*
X94488202Y-82743646D01*
X94197952Y-82167167D01*
X93709187Y-81745644D01*
X93096317Y-81543250D01*
X92837000Y-81690563D01*
X92837000Y-83058000D01*
X94380836Y-83058000D01*
X94499975Y-82802056D01*
X94499975Y-83567944D01*
X94380836Y-83312000D01*
X92837000Y-83312000D01*
X92837000Y-83332000D01*
X92583000Y-83332000D01*
X92583000Y-83312000D01*
X92583000Y-83058000D01*
X92583000Y-81690563D01*
X92323683Y-81543250D01*
X91710813Y-81745644D01*
X91222048Y-82167167D01*
X90931798Y-82743646D01*
X90920025Y-82802056D01*
X91039164Y-83058000D01*
X92583000Y-83058000D01*
X92583000Y-83312000D01*
X91039164Y-83312000D01*
X90920025Y-83567944D01*
X90931798Y-83626354D01*
X91222048Y-84202833D01*
X91259352Y-84235005D01*
X91239073Y-84248327D01*
X91096623Y-84459360D01*
X91046560Y-84709000D01*
X91046560Y-86741000D01*
X91093537Y-86983123D01*
X91233327Y-87195927D01*
X91311952Y-87249000D01*
X90890030Y-87249000D01*
X90355421Y-87355340D01*
X90284340Y-87402834D01*
X90305000Y-87298970D01*
X90305000Y-86453030D01*
X90198660Y-85918421D01*
X89895828Y-85465202D01*
X89442609Y-85162370D01*
X89013624Y-85077040D01*
X90017600Y-85077040D01*
X90259723Y-85030063D01*
X90472527Y-84890273D01*
X90614977Y-84679240D01*
X90665040Y-84429600D01*
X90665040Y-82194400D01*
X90618063Y-81952277D01*
X90478273Y-81739473D01*
X90267240Y-81597023D01*
X90017600Y-81546960D01*
X87782400Y-81546960D01*
X87540277Y-81593937D01*
X87327473Y-81733727D01*
X87185023Y-81944760D01*
X87134960Y-82194400D01*
X87134960Y-84429600D01*
X87181937Y-84671723D01*
X87321727Y-84884527D01*
X87532760Y-85026977D01*
X87782400Y-85077040D01*
X88802375Y-85077040D01*
X88373391Y-85162370D01*
X87920172Y-85465202D01*
X87617340Y-85918421D01*
X87511000Y-86453030D01*
X87511000Y-87298970D01*
X87617340Y-87833579D01*
X87920172Y-88286798D01*
X88373391Y-88589630D01*
X88556235Y-88626000D01*
X88373391Y-88662370D01*
X87920172Y-88965202D01*
X87617340Y-89418421D01*
X87511000Y-89953030D01*
X87511000Y-90798970D01*
X87617340Y-91333579D01*
X87920172Y-91786798D01*
X88373391Y-92089630D01*
X88908000Y-92195970D01*
X89442609Y-92089630D01*
X89895828Y-91786798D01*
X90198660Y-91333579D01*
X90305000Y-90798970D01*
X90305000Y-89953030D01*
X90293516Y-89895296D01*
X90355421Y-89936660D01*
X90890030Y-90043000D01*
X91735970Y-90043000D01*
X92270579Y-89936660D01*
X92723798Y-89633828D01*
X93026630Y-89180609D01*
X93132970Y-88646000D01*
X93026630Y-88111391D01*
X92723798Y-87658172D01*
X92320116Y-87388440D01*
X93726000Y-87388440D01*
X93968123Y-87341463D01*
X94180927Y-87201673D01*
X94323377Y-86990640D01*
X94373440Y-86741000D01*
X94373440Y-84709000D01*
X94326463Y-84466877D01*
X94186673Y-84254073D01*
X94159671Y-84235846D01*
X94197952Y-84202833D01*
X94488202Y-83626354D01*
X94499975Y-83567944D01*
X94499975Y-90099641D01*
X94306370Y-90389391D01*
X94200030Y-90924000D01*
X94306370Y-91458609D01*
X94609202Y-91911828D01*
X95062421Y-92214660D01*
X95597030Y-92321000D01*
X96442970Y-92321000D01*
X96977579Y-92214660D01*
X97430798Y-91911828D01*
X97733630Y-91458609D01*
X97814707Y-91051002D01*
X97900278Y-91051002D01*
X97777780Y-91267070D01*
X97792740Y-91341277D01*
X98054370Y-91822026D01*
X98480059Y-92166059D01*
X99005000Y-92321000D01*
X99393000Y-92321000D01*
X99393000Y-91051000D01*
X99373000Y-91051000D01*
X99373000Y-90797000D01*
X99393000Y-90797000D01*
X99393000Y-89527000D01*
X99046969Y-89527000D01*
X99080660Y-89476579D01*
X99187000Y-88941970D01*
X99187000Y-88096030D01*
X99080660Y-87561421D01*
X98777828Y-87108202D01*
X98605495Y-86993052D01*
X98786778Y-86956993D01*
X99219397Y-86667927D01*
X99508463Y-86235308D01*
X99609970Y-85725000D01*
X99609970Y-92762000D01*
X99393000Y-92762000D01*
X83312000Y-92762000D01*
X82873931Y-92762000D01*
X82303413Y-92648516D01*
X81879041Y-92364960D01*
X81595482Y-91940584D01*
X81482000Y-91370069D01*
X81482000Y-89428607D01*
X81618694Y-89633186D01*
X81849035Y-89787094D01*
X82120740Y-89841140D01*
X82357889Y-89793967D01*
X82390603Y-89842927D01*
X82823222Y-90131993D01*
X83333530Y-90233500D01*
X84306470Y-90233500D01*
X84816778Y-90131993D01*
X85249397Y-89842927D01*
X85538463Y-89410308D01*
X85639970Y-88900000D01*
X85538463Y-88389692D01*
X85249397Y-87957073D01*
X84816778Y-87668007D01*
X84625704Y-87630000D01*
X84816778Y-87591993D01*
X85249397Y-87302927D01*
X85538463Y-86870308D01*
X85639970Y-86360000D01*
X85538463Y-85849692D01*
X85249397Y-85417073D01*
X84816778Y-85128007D01*
X84306470Y-85026500D01*
X83333530Y-85026500D01*
X82823222Y-85128007D01*
X82390603Y-85417073D01*
X82101537Y-85849692D01*
X82000030Y-86360000D01*
X82101537Y-86870308D01*
X82390603Y-87302927D01*
X82823222Y-87591993D01*
X83014295Y-87630000D01*
X82823222Y-87668007D01*
X82702978Y-87748351D01*
X82622786Y-87628334D01*
X82392445Y-87474426D01*
X82120740Y-87420380D01*
X81849035Y-87474426D01*
X81618694Y-87628334D01*
X81482000Y-87832912D01*
X81482000Y-82873930D01*
X81595482Y-82303415D01*
X81879041Y-81879039D01*
X82303413Y-81595483D01*
X82873931Y-81482000D01*
X118148480Y-81482000D01*
X117929073Y-81628603D01*
X117640007Y-82061222D01*
X117538500Y-82571530D01*
X117538500Y-83544470D01*
X117640007Y-84054778D01*
X117929073Y-84487397D01*
X118361692Y-84776463D01*
X118872000Y-84877970D01*
X119382308Y-84776463D01*
X119814927Y-84487397D01*
X120103993Y-84054778D01*
X120142000Y-83863704D01*
X120180007Y-84054778D01*
X120469073Y-84487397D01*
X120901692Y-84776463D01*
X121412000Y-84877970D01*
X121922308Y-84776463D01*
X122354927Y-84487397D01*
X122643993Y-84054778D01*
X122745500Y-83544470D01*
X122745500Y-82571530D01*
X122643993Y-82061222D01*
X122354927Y-81628603D01*
X122135519Y-81482000D01*
X124898073Y-81482000D01*
X125274182Y-81556813D01*
X125533749Y-81730250D01*
X125707187Y-81989820D01*
X125782000Y-82365927D01*
X125782000Y-84740485D01*
X125659778Y-84557567D01*
X125124155Y-84199675D01*
X124492345Y-84074000D01*
X124427655Y-84074000D01*
X123795845Y-84199675D01*
X123260222Y-84557567D01*
X122902330Y-85093190D01*
X122776655Y-85725000D01*
X122902330Y-86356810D01*
X123129169Y-86696298D01*
X122989073Y-86788327D01*
X122846623Y-86999360D01*
X122796560Y-87249000D01*
X122796560Y-89281000D01*
X122843537Y-89523123D01*
X122983327Y-89735927D01*
X123194360Y-89878377D01*
X123444000Y-89928440D01*
X125476000Y-89928440D01*
X125718123Y-89881463D01*
X125782000Y-89839502D01*
X125782000Y-91878072D01*
M02*
