M48
;DRILL file {KiCad (after 2015-may-01 BZR unknown)-product} date 19/09/2015 1:00:28
;FORMAT={-:-/ absolute / inch / decimal}
FMAT,2
INCH,TZ
T1C0.030
T2C0.031
T3C0.032
T4C0.040
%
G90
G05
M72
T1
X3.5003Y-3.4203
X3.5003Y-3.5581
X3.595Y-3.49
X3.7803Y-3.5797
X3.85Y-3.485
X3.9181Y-3.5797
T2
X4.06Y-3.28
X4.06Y-3.38
X4.06Y-3.48
X4.06Y-3.58
X4.36Y-3.28
X4.36Y-3.38
X4.36Y-3.48
X4.36Y-3.58
T3
X3.3Y-3.4
X3.3Y-3.5
X3.85Y-3.275
X3.85Y-3.375
X4.48Y-3.27
X4.48Y-3.57
X4.58Y-3.3816
X4.58Y-3.48
X4.68Y-3.27
X4.68Y-3.57
X4.78Y-3.27
X4.78Y-3.57
T4
X3.5Y-3.28
X3.65Y-3.375
X4.9Y-3.375
X4.9Y-3.475
T4
X3.6576Y-3.275G85X3.6424Y-3.275
G05
T0
M30
