M48
;DRILL file {KiCad 4.0.5} date 02/06/17 01:28:29
;FORMAT={-:-/ absolute / metric / decimal}
FMAT,2
METRIC,TZ
T1C0.500
T2C0.635
T3C0.762
T4C0.800
T5C0.813
T6C1.001
T7C1.100
T8C1.200
T9C3.000
%
G90
G05
M71
T2
X15.24Y-2.54
X16.51Y-5.08
X21.59Y-1.27
X28.702Y-5.207
T3
X-8.715Y7.485
X-6.985Y5.08
X-5.215Y7.485
X-3.04Y3.31
X-1.27Y5.715
X0.46Y3.31
X2.715Y7.485
X4.445Y5.08
X6.215Y7.485
X8.39Y3.31
X10.16Y5.715
X11.89Y3.31
T4
X12.065Y0.
X12.065Y-2.54
X12.065Y-5.08
X12.065Y-7.62
X19.685Y0.
X19.685Y-2.54
X19.685Y-5.08
X19.685Y-7.62
T5
X-18.415Y5.715
X-15.875Y5.715
X15.875Y5.715
X18.415Y5.715
T6
X-1.27Y0.
X-1.27Y-7.62
X1.905Y0.
X1.905Y-7.62
X5.08Y0.
X5.08Y-7.62
X8.255Y0.
X8.255Y-7.62
X23.495Y0.
X23.495Y-7.62
X26.67Y0.
X26.67Y-7.62
T1
X-16.43Y-1.9G85X-16.43Y-0.8
G05
X-13.93Y-1.9G85X-13.93Y-0.8
G05
X-11.98Y-6.35G85X-10.88Y-6.35
G05
X-8.93Y-1.9G85X-8.93Y-0.8
G05
X-6.43Y-1.9G85X-6.43Y-0.8
G05
T4
X23.345Y5.815G85X23.645Y5.815
G05
X25.885Y5.815G85X26.185Y5.815
G05
X28.425Y5.815G85X28.725Y5.815
G05
T7
X-12.19Y6.785G85X-12.19Y7.185
G05
X32.51Y6.785G85X32.51Y7.185
G05
T8
X-48.26Y4.765G85X-48.26Y-6.035
G05
X-35.56Y2.465G85X-35.56Y6.265
G05
X-35.56Y-7.535G85X-35.56Y-3.735
G05
X37.465Y-6.035G85X37.465Y4.765
G05
T9
X-22.34Y1.905G85X-20.84Y1.905
G05
X-22.34Y-9.525G85X-20.84Y-9.525
G05
X32.27Y1.905G85X33.77Y1.905
G05
X32.27Y-9.525G85X33.77Y-9.525
G05
T0
M30
