G04 #@! TF.FileFunction,Copper,L1,Top,Signal*
%FSLAX46Y46*%
G04 Gerber Fmt 4.6, Leading zero omitted, Abs format (unit mm)*
G04 Created by KiCad (PCBNEW (after 2015-may-01 BZR unknown)-product) date 28/10/2015 1:31:10*
%MOMM*%
G01*
G04 APERTURE LIST*
%ADD10C,0.150000*%
%ADD11O,5.080000X2.540000*%
%ADD12O,1.397000X2.300000*%
%ADD13O,2.300000X1.397000*%
%ADD14O,2.300000X1.600000*%
%ADD15O,2.200000X1.600000*%
%ADD16O,1.501140X1.998980*%
%ADD17O,1.998980X1.501140*%
%ADD18O,2.540000X5.080000*%
%ADD19C,10.000000*%
%ADD20R,0.600000X1.550000*%
%ADD21O,1.500000X2.000000*%
%ADD22O,1.524000X2.300000*%
%ADD23C,0.889000*%
%ADD24C,0.254000*%
%ADD25C,0.508000*%
G04 APERTURE END LIST*
D10*
X-5603240Y4904740D02*
X-6103620Y4904740D01*
X-5603240Y4904740D02*
X-5603240Y4404360D01*
X-5102860Y4904740D02*
X-5603240Y4904740D01*
X-5603240Y4904740D02*
X-5603240Y5303520D01*
X-5603240Y5303520D02*
X-5603240Y5405120D01*
X-14493240Y4904740D02*
X-14993620Y4904740D01*
X-14493240Y4904740D02*
X-14493240Y4404360D01*
X-13992860Y4904740D02*
X-14493240Y4904740D01*
X-14493240Y4904740D02*
X-14493240Y5303520D01*
X-14493240Y5303520D02*
X-14493240Y5405120D01*
D11*
X-28702000Y5000000D03*
X-28702000Y-5000000D03*
D12*
X-7874000Y6604000D03*
X-5334000Y6604000D03*
D13*
X-1778000Y1778000D03*
X-1778000Y4278000D03*
D12*
X-16764000Y6604000D03*
X-14224000Y6604000D03*
X15494000Y-5969000D03*
X15494000Y1651000D03*
X12954000Y1651000D03*
X12954000Y-5969000D03*
D14*
X1524000Y1651000D03*
X1524000Y-889000D03*
X1524000Y-3429000D03*
D15*
X1224000Y-5969000D03*
D14*
X9144000Y-5969000D03*
X9144000Y-3429000D03*
X9144000Y-889000D03*
D15*
X9544000Y1651000D03*
D12*
X18034000Y-6096000D03*
X18034000Y1524000D03*
D16*
X-4826000Y1270000D03*
D17*
X-7366000Y-1270000D03*
X-2286000Y-1270000D03*
D16*
X-13716000Y1270000D03*
D17*
X-16256000Y-1270000D03*
X-11176000Y-1270000D03*
D16*
X-13716000Y-7620000D03*
D17*
X-11176000Y-5080000D03*
X-16256000Y-5080000D03*
D16*
X-4826000Y-7620000D03*
D17*
X-2286000Y-5080000D03*
X-7366000Y-5080000D03*
D18*
X42049700Y0D03*
D19*
X31496000Y0D03*
D18*
X20942300Y0D03*
D10*
G36*
X-42648000Y6000000D02*
X-39648000Y4000000D01*
X-39648000Y-4000000D01*
X-42648000Y-6000000D01*
X-42648000Y6000000D01*
X-42648000Y6000000D01*
G37*
G36*
X47220000Y-6000000D02*
X44220000Y-4000000D01*
X44220000Y4000000D01*
X47220000Y6000000D01*
X47220000Y-6000000D01*
X47220000Y-6000000D01*
G37*
D20*
X3429000Y-4859000D03*
X4699000Y-4859000D03*
X5969000Y-4859000D03*
X7239000Y-4859000D03*
X7239000Y541000D03*
X5969000Y541000D03*
X4699000Y541000D03*
X3429000Y541000D03*
D21*
X-11684000Y3302000D03*
X-9144000Y3302000D03*
X-18796000Y-7620000D03*
X-16256000Y-7620000D03*
D22*
X42924000Y7874000D03*
X-1776000Y7874000D03*
D23*
X3810000Y-1651000D03*
X3302000Y-7493000D03*
X5334000Y-7493000D03*
X3556000Y2921000D03*
X7112000Y-7493000D03*
X7112000Y-1651000D03*
X6604000Y5334000D03*
X-4826000Y-1270000D03*
X-5842000Y3302000D03*
D24*
X3810000Y-4478000D02*
X3810000Y-1651000D01*
X3429000Y-4859000D02*
X3810000Y-4478000D01*
X7112000Y-5715000D02*
X5334000Y-7493000D01*
X7112000Y-4986000D02*
X7112000Y-5715000D01*
X7239000Y-4859000D02*
X7112000Y-4986000D01*
X3556000Y668000D02*
X3556000Y2921000D01*
X3429000Y541000D02*
X3556000Y668000D01*
D25*
X-2286000Y-5080000D02*
X-3048000Y-5080000D01*
X-4826000Y-3302000D02*
X-9398000Y-3302000D01*
X-3048000Y-5080000D02*
X-4826000Y-3302000D01*
X-9398000Y-3302000D02*
X-11176000Y-5080000D01*
X-13716000Y-1270000D02*
X-12192000Y254000D01*
X-12192000Y254000D02*
X-8890000Y254000D01*
X-8890000Y254000D02*
X-7366000Y-1270000D01*
X-16256000Y-1270000D02*
X-13716000Y-1270000D01*
X-10668000Y1270000D02*
X-13716000Y1270000D01*
X-4826000Y1270000D02*
X-10668000Y1270000D01*
X-11684000Y3302000D02*
X-13716000Y1270000D01*
D24*
X7620000Y-7493000D02*
X9144000Y-5969000D01*
X7112000Y-7493000D02*
X7620000Y-7493000D01*
X7112000Y414000D02*
X7112000Y-1651000D01*
X7239000Y541000D02*
X7112000Y414000D01*
D25*
X16002000Y-8128000D02*
X11303000Y-8128000D01*
X11303000Y-8128000D02*
X9144000Y-5969000D01*
X18034000Y-6096000D02*
X16002000Y-8128000D01*
X15494000Y-889000D02*
X15494000Y1651000D01*
D24*
X5969000Y-2032000D02*
X5969000Y541000D01*
X4699000Y-3810000D02*
X4699000Y-4859000D01*
D25*
X11684000Y5334000D02*
X6604000Y5334000D01*
X15367000Y1651000D02*
X11684000Y5334000D01*
X15494000Y1651000D02*
X15367000Y1651000D01*
X9144000Y-3429000D02*
X12954000Y-3429000D01*
X12954000Y-3429000D02*
X15494000Y-889000D01*
D24*
X7366000Y-3429000D02*
X5969000Y-2032000D01*
X9144000Y-3429000D02*
X7366000Y-3429000D01*
X5080000Y-3429000D02*
X4699000Y-3810000D01*
X7366000Y-3429000D02*
X5080000Y-3429000D01*
D25*
X12954000Y381000D02*
X12954000Y1651000D01*
D24*
X8001000Y889000D02*
X8001000Y1651000D01*
X8001000Y1651000D02*
X7620000Y2159000D01*
X7620000Y2159000D02*
X5334000Y2159000D01*
X5334000Y2159000D02*
X4699000Y1524000D01*
X4699000Y1524000D02*
X4699000Y541000D01*
D25*
X9144000Y-889000D02*
X10414000Y-889000D01*
X11684000Y-889000D02*
X12954000Y381000D01*
X10414000Y-889000D02*
X11684000Y-889000D01*
D24*
X9144000Y127000D02*
X8001000Y889000D01*
X9144000Y-889000D02*
X9144000Y127000D01*
X5969000Y-5588000D02*
X5969000Y-4859000D01*
D25*
X1016000Y-3429000D02*
X1524000Y-3429000D01*
X1524000Y-3429000D02*
X1016000Y-3429000D01*
D24*
X2540000Y-4445000D02*
X2794000Y-6223000D01*
X2794000Y-6223000D02*
X3048000Y-6223000D01*
X3048000Y-6223000D02*
X5334000Y-6223000D01*
X5334000Y-6223000D02*
X5969000Y-5588000D01*
X1524000Y-3429000D02*
X2540000Y-4445000D01*
X1524000Y-3429000D02*
X1524000Y-3429000D01*
D25*
X-8890000Y3302000D02*
X-9144000Y3302000D01*
X-2667000Y-3429000D02*
X1524000Y-3429000D01*
X-5842000Y3302000D02*
X-6604000Y2540000D01*
X-6604000Y2540000D02*
X-8128000Y2540000D01*
X-2667000Y-3429000D02*
X-4826000Y-1270000D01*
X-8890000Y3302000D02*
X-8128000Y2540000D01*
X-4826000Y-7620000D02*
X-13716000Y-7620000D01*
X-13716000Y-7874000D02*
X-13716000Y-7620000D01*
X-17018000Y-9398000D02*
X-15240000Y-9398000D01*
X-15240000Y-9398000D02*
X-13716000Y-7874000D01*
X-18796000Y-7620000D02*
X-17018000Y-9398000D01*
D24*
G36*
X5526369Y-2667000D02*
X5080000Y-2667000D01*
X4788395Y-2725004D01*
X4541184Y-2890185D01*
X4160185Y-3271185D01*
X4001039Y-3509363D01*
X3855310Y-3449000D01*
X3714750Y-3449000D01*
X3556000Y-3607750D01*
X3556000Y-4732000D01*
X3576000Y-4732000D01*
X3576000Y-4986000D01*
X3556000Y-4986000D01*
X3556000Y-5006000D01*
X3389878Y-5006000D01*
X3302000Y-4390843D01*
X3302000Y-3639997D01*
X3343970Y-3429000D01*
X3234737Y-2879849D01*
X2923668Y-2414302D01*
X2541582Y-2159000D01*
X2923668Y-1903698D01*
X3234737Y-1438151D01*
X3343970Y-889000D01*
X3342466Y-881440D01*
X3729000Y-881440D01*
X3971123Y-834463D01*
X4063770Y-773603D01*
X4149360Y-831377D01*
X4399000Y-881440D01*
X4999000Y-881440D01*
X5207000Y-841083D01*
X5207000Y-2032000D01*
X5265004Y-2323605D01*
X5430185Y-2570815D01*
X5526369Y-2667000D01*
X5526369Y-2667000D01*
G37*
X5526369Y-2667000D02*
X5080000Y-2667000D01*
X4788395Y-2725004D01*
X4541184Y-2890185D01*
X4160185Y-3271185D01*
X4001039Y-3509363D01*
X3855310Y-3449000D01*
X3714750Y-3449000D01*
X3556000Y-3607750D01*
X3556000Y-4732000D01*
X3576000Y-4732000D01*
X3576000Y-4986000D01*
X3556000Y-4986000D01*
X3556000Y-5006000D01*
X3389878Y-5006000D01*
X3302000Y-4390843D01*
X3302000Y-3639997D01*
X3343970Y-3429000D01*
X3234737Y-2879849D01*
X2923668Y-2414302D01*
X2541582Y-2159000D01*
X2923668Y-1903698D01*
X3234737Y-1438151D01*
X3343970Y-889000D01*
X3342466Y-881440D01*
X3729000Y-881440D01*
X3971123Y-834463D01*
X4063770Y-773603D01*
X4149360Y-831377D01*
X4399000Y-881440D01*
X4999000Y-881440D01*
X5207000Y-841083D01*
X5207000Y-2032000D01*
X5265004Y-2323605D01*
X5430185Y-2570815D01*
X5526369Y-2667000D01*
G36*
X48678000Y-6054610D02*
X48340043Y-7753634D01*
X47867440Y-8460933D01*
X47867440Y-6000000D01*
X47867440Y6000000D01*
X47763168Y6352346D01*
X47585309Y6534535D01*
X47350955Y6634058D01*
X47096348Y6635523D01*
X46860865Y6538703D01*
X44321000Y4845460D01*
X44321000Y7359000D01*
X44321000Y7747000D01*
X44321000Y8001000D01*
X44321000Y8389000D01*
X44166059Y8913941D01*
X43822026Y9339630D01*
X43341277Y9601260D01*
X43267070Y9616220D01*
X43051000Y9493720D01*
X43051000Y8001000D01*
X44321000Y8001000D01*
X44321000Y7747000D01*
X43051000Y7747000D01*
X43051000Y6254280D01*
X43267070Y6131780D01*
X43341277Y6146740D01*
X43822026Y6408370D01*
X44166059Y6834059D01*
X44321000Y7359000D01*
X44321000Y4845460D01*
X43860865Y4538703D01*
X43622623Y4249640D01*
X43572560Y4000000D01*
X43572560Y2416105D01*
X43396738Y2679240D01*
X42797000Y3079974D01*
X42797000Y6254280D01*
X42797000Y7747000D01*
X42797000Y8001000D01*
X42797000Y9493720D01*
X42580930Y9616220D01*
X42506723Y9601260D01*
X42025974Y9339630D01*
X41681941Y8913941D01*
X41527000Y8389000D01*
X41527000Y8001000D01*
X42797000Y8001000D01*
X42797000Y7747000D01*
X41527000Y7747000D01*
X41527000Y7359000D01*
X41681941Y6834059D01*
X42025974Y6408370D01*
X42506723Y6146740D01*
X42580930Y6131780D01*
X42797000Y6254280D01*
X42797000Y3079974D01*
X42778712Y3092193D01*
X42049700Y3237202D01*
X41320688Y3092193D01*
X40702662Y2679240D01*
X40489802Y2360674D01*
X39504492Y4739423D01*
X37931290Y5200682D01*
X36696682Y3966074D01*
X36696682Y6435290D01*
X36235423Y8008492D01*
X32809939Y9212580D01*
X29184419Y9014137D01*
X26756577Y8008492D01*
X26295318Y6435290D01*
X31496000Y1234608D01*
X36696682Y6435290D01*
X36696682Y3966074D01*
X32730608Y0D01*
X37931290Y-5200682D01*
X39504492Y-4739423D01*
X40392061Y-2214395D01*
X40702662Y-2679240D01*
X41320688Y-3092193D01*
X42049700Y-3237202D01*
X42778712Y-3092193D01*
X43396738Y-2679240D01*
X43572560Y-2416104D01*
X43572560Y-4000000D01*
X43680922Y-4358572D01*
X43860865Y-4538703D01*
X46860865Y-6538703D01*
X47211874Y-6647389D01*
X47462123Y-6600463D01*
X47674927Y-6460673D01*
X47817377Y-6249640D01*
X47867440Y-6000000D01*
X47867440Y-8460933D01*
X47418628Y-9132628D01*
X46039634Y-10054043D01*
X44340610Y-10392000D01*
X36696682Y-10392000D01*
X36696682Y-6435290D01*
X31496000Y-1234608D01*
X30261392Y-2469216D01*
X30261392Y0D01*
X25060710Y5200682D01*
X23487508Y4739423D01*
X22599938Y2214396D01*
X22289338Y2679240D01*
X21671312Y3092193D01*
X20942300Y3237202D01*
X20213288Y3092193D01*
X19595262Y2679240D01*
X19318683Y2265313D01*
X19217393Y2603141D01*
X18887125Y3008230D01*
X18426976Y3256095D01*
X18367094Y3266729D01*
X18161000Y3143365D01*
X18161000Y1651000D01*
X18181000Y1651000D01*
X18181000Y1397000D01*
X18161000Y1397000D01*
X18161000Y-95365D01*
X18367094Y-218729D01*
X18426976Y-208095D01*
X18887125Y39770D01*
X19037300Y223967D01*
X19037300Y-1332202D01*
X19182309Y-2061214D01*
X19595262Y-2679240D01*
X20213288Y-3092193D01*
X20942300Y-3237202D01*
X21671312Y-3092193D01*
X22289338Y-2679240D01*
X22502197Y-2360673D01*
X23487508Y-4739423D01*
X25060710Y-5200682D01*
X30261392Y0D01*
X30261392Y-2469216D01*
X26295318Y-6435290D01*
X26756577Y-8008492D01*
X30182061Y-9212580D01*
X33807581Y-9014137D01*
X36235423Y-8008492D01*
X36696682Y-6435290D01*
X36696682Y-10392000D01*
X21260298Y-10392000D01*
X21640372Y-10234957D01*
X22171093Y-9705161D01*
X22458672Y-9012595D01*
X22459326Y-8262695D01*
X22172957Y-7569628D01*
X21643161Y-7038907D01*
X20950595Y-6751328D01*
X20200695Y-6750674D01*
X19507628Y-7037043D01*
X19367500Y-7176926D01*
X19367500Y-6582470D01*
X19367500Y-5609530D01*
X19265993Y-5099222D01*
X18976927Y-4666603D01*
X18544308Y-4377537D01*
X18034000Y-4276030D01*
X17523692Y-4377537D01*
X17091073Y-4666603D01*
X16802007Y-5099222D01*
X16776630Y-5226795D01*
X16725993Y-4972222D01*
X16436927Y-4539603D01*
X16004308Y-4250537D01*
X15494000Y-4149030D01*
X14983692Y-4250537D01*
X14551073Y-4539603D01*
X14262007Y-4972222D01*
X14224000Y-5163295D01*
X14185993Y-4972222D01*
X13896927Y-4539603D01*
X13464308Y-4250537D01*
X13332987Y-4224415D01*
X13582618Y-4057618D01*
X16122618Y-1517618D01*
X16315329Y-1229206D01*
X16383000Y-889000D01*
X16383000Y185571D01*
X16436927Y221603D01*
X16725993Y654222D01*
X16750656Y778216D01*
X16850607Y444859D01*
X17180875Y39770D01*
X17641024Y-208095D01*
X17700906Y-218729D01*
X17907000Y-95365D01*
X17907000Y1397000D01*
X17887000Y1397000D01*
X17887000Y1651000D01*
X17907000Y1651000D01*
X17907000Y3143365D01*
X17700906Y3266729D01*
X17641024Y3256095D01*
X17180875Y3008230D01*
X16850607Y2603141D01*
X16781030Y2371088D01*
X16725993Y2647778D01*
X16436927Y3080397D01*
X16004308Y3369463D01*
X15494000Y3470970D01*
X14983692Y3369463D01*
X14936982Y3338254D01*
X12312618Y5962618D01*
X12024206Y6155329D01*
X11684000Y6223000D01*
X7241863Y6223000D01*
X7216286Y6248622D01*
X6819668Y6413313D01*
X6390216Y6413687D01*
X5993311Y6249689D01*
X5689378Y5946286D01*
X5524687Y5549668D01*
X5524313Y5120216D01*
X5688311Y4723311D01*
X5991714Y4419378D01*
X6388332Y4254687D01*
X6817784Y4254313D01*
X7214689Y4418311D01*
X7241424Y4445000D01*
X11315764Y4445000D01*
X12412285Y3348479D01*
X12011073Y3080397D01*
X11722007Y2647778D01*
X11620500Y2137470D01*
X11620500Y1164530D01*
X11722007Y654222D01*
X11821333Y505570D01*
X11315764Y0D01*
X10627656Y0D01*
X10543668Y125698D01*
X10286816Y297321D01*
X10427142Y325233D01*
X10892689Y636302D01*
X11203758Y1101849D01*
X11312991Y1651000D01*
X11203758Y2200151D01*
X10892689Y2665698D01*
X10427142Y2976767D01*
X9877991Y3086000D01*
X9210009Y3086000D01*
X8660858Y2976767D01*
X8195311Y2665698D01*
X8187792Y2654447D01*
X8158815Y2697815D01*
X8079375Y2750896D01*
X8008234Y2814682D01*
X7956872Y2832749D01*
X7911605Y2862996D01*
X7817894Y2881637D01*
X7727763Y2913341D01*
X7673400Y2910379D01*
X7620000Y2921000D01*
X5334000Y2921000D01*
X5042395Y2862996D01*
X4943376Y2796835D01*
X4795185Y2697816D01*
X4516450Y2419082D01*
X4635313Y2705332D01*
X4635687Y3134784D01*
X4471689Y3531689D01*
X4168286Y3835622D01*
X3771668Y4000313D01*
X3342216Y4000687D01*
X2945311Y3836689D01*
X2641378Y3533286D01*
X2476687Y3136668D01*
X2476521Y2946879D01*
X2001000Y3086000D01*
X1651000Y3086000D01*
X1651000Y1778000D01*
X1671000Y1778000D01*
X1671000Y1524000D01*
X1651000Y1524000D01*
X1651000Y1504000D01*
X1397000Y1504000D01*
X1397000Y1524000D01*
X1377000Y1524000D01*
X1377000Y1778000D01*
X1397000Y1778000D01*
X1397000Y3086000D01*
X1047000Y3086000D01*
X507517Y2928166D01*
X69500Y2575896D01*
X-75129Y2311643D01*
X-348603Y2720927D01*
X-781222Y3009993D01*
X-901363Y3033891D01*
X-698859Y3094607D01*
X-293770Y3424875D01*
X-45905Y3885024D01*
X-35271Y3944906D01*
X-35271Y4611094D01*
X-45905Y4670976D01*
X-293770Y5131125D01*
X-379000Y5200613D01*
X-379000Y7451030D01*
X-379000Y8296970D01*
X-485340Y8831579D01*
X-788172Y9284798D01*
X-1241391Y9587630D01*
X-1776000Y9693970D01*
X-2310609Y9587630D01*
X-2763828Y9284798D01*
X-3066660Y8831579D01*
X-3173000Y8296970D01*
X-3173000Y7451030D01*
X-3066660Y6916421D01*
X-2763828Y6463202D01*
X-2310609Y6160370D01*
X-1776000Y6054030D01*
X-1241391Y6160370D01*
X-788172Y6463202D01*
X-485340Y6916421D01*
X-379000Y7451030D01*
X-379000Y5200613D01*
X-698859Y5461393D01*
X-1199500Y5611500D01*
X-1651000Y5611500D01*
X-1651000Y4405000D01*
X-158635Y4405000D01*
X-35271Y4611094D01*
X-35271Y3944906D01*
X-158635Y4151000D01*
X-1651000Y4151000D01*
X-1651000Y4131000D01*
X-1905000Y4131000D01*
X-1905000Y4151000D01*
X-1905000Y4405000D01*
X-1905000Y5611500D01*
X-2356500Y5611500D01*
X-2857141Y5461393D01*
X-3262230Y5131125D01*
X-3510095Y4670976D01*
X-3520729Y4611094D01*
X-3397365Y4405000D01*
X-1905000Y4405000D01*
X-1905000Y4151000D01*
X-3397365Y4151000D01*
X-3520729Y3944906D01*
X-3510095Y3885024D01*
X-3262230Y3424875D01*
X-2857141Y3094607D01*
X-2654638Y3033891D01*
X-2774778Y3009993D01*
X-3207397Y2720927D01*
X-3496463Y2288308D01*
X-3541783Y2060475D01*
X-3545900Y2081177D01*
X-3846254Y2530688D01*
X-4295765Y2831042D01*
X-4824983Y2936310D01*
X-4762687Y3086332D01*
X-4762313Y3515784D01*
X-4926311Y3912689D01*
X-5026920Y4013474D01*
X-4947286Y4132655D01*
X-4928019Y4229519D01*
X-4831155Y4248786D01*
X-4600814Y4402694D01*
X-4446906Y4633035D01*
X-4392860Y4904740D01*
X-4440033Y5141890D01*
X-4391073Y5174603D01*
X-4102007Y5607222D01*
X-4000500Y6117530D01*
X-4000500Y7090470D01*
X-4102007Y7600778D01*
X-4391073Y8033397D01*
X-4823692Y8322463D01*
X-5334000Y8423970D01*
X-5844308Y8322463D01*
X-6276927Y8033397D01*
X-6565993Y7600778D01*
X-6605844Y7400437D01*
X-6690607Y7683141D01*
X-7020875Y8088230D01*
X-7481024Y8336095D01*
X-7540906Y8346729D01*
X-7747000Y8223365D01*
X-7747000Y6731000D01*
X-7727000Y6731000D01*
X-7727000Y6477000D01*
X-7747000Y6477000D01*
X-7747000Y4984635D01*
X-7540906Y4861271D01*
X-7481024Y4871905D01*
X-7020875Y5119770D01*
X-6690607Y5524859D01*
X-6605844Y5807564D01*
X-6565993Y5607222D01*
X-6485649Y5486979D01*
X-6605666Y5406786D01*
X-6759574Y5176445D01*
X-6813620Y4904740D01*
X-6759574Y4633035D01*
X-6605666Y4402694D01*
X-6376129Y4249324D01*
X-6452689Y4217689D01*
X-6756622Y3914286D01*
X-6921313Y3517668D01*
X-6921346Y3479891D01*
X-6972236Y3429000D01*
X-7759000Y3429000D01*
X-7759000Y3584032D01*
X-7864427Y4114049D01*
X-8001000Y4318445D01*
X-8001000Y4984635D01*
X-8001000Y6477000D01*
X-8001000Y6731000D01*
X-8001000Y8223365D01*
X-8207094Y8346729D01*
X-8266976Y8336095D01*
X-8727125Y8088230D01*
X-9057393Y7683141D01*
X-9207500Y7182500D01*
X-9207500Y6731000D01*
X-8001000Y6731000D01*
X-8001000Y6477000D01*
X-9207500Y6477000D01*
X-9207500Y6025500D01*
X-9057393Y5524859D01*
X-8727125Y5119770D01*
X-8266976Y4871905D01*
X-8207094Y4861271D01*
X-8001000Y4984635D01*
X-8001000Y4318445D01*
X-8164657Y4563375D01*
X-8613983Y4863605D01*
X-9144000Y4969032D01*
X-9674017Y4863605D01*
X-10123343Y4563375D01*
X-10414000Y4128377D01*
X-10704657Y4563375D01*
X-11153983Y4863605D01*
X-11684000Y4969032D01*
X-12214017Y4863605D01*
X-12663343Y4563375D01*
X-12890500Y4223411D01*
X-12890500Y6117530D01*
X-12890500Y7090470D01*
X-12992007Y7600778D01*
X-13281073Y8033397D01*
X-13713692Y8322463D01*
X-14224000Y8423970D01*
X-14734308Y8322463D01*
X-15166927Y8033397D01*
X-15455993Y7600778D01*
X-15494000Y7409705D01*
X-15532007Y7600778D01*
X-15821073Y8033397D01*
X-16253692Y8322463D01*
X-16764000Y8423970D01*
X-17274308Y8322463D01*
X-17706927Y8033397D01*
X-17995993Y7600778D01*
X-18097500Y7090470D01*
X-18097500Y6117530D01*
X-17995993Y5607222D01*
X-17706927Y5174603D01*
X-17274308Y4885537D01*
X-16764000Y4784030D01*
X-16253692Y4885537D01*
X-15821073Y5174603D01*
X-15532007Y5607222D01*
X-15494000Y5798296D01*
X-15455993Y5607222D01*
X-15375649Y5486979D01*
X-15495666Y5406786D01*
X-15649574Y5176445D01*
X-15703620Y4904740D01*
X-15649574Y4633035D01*
X-15495666Y4402694D01*
X-15265325Y4248786D01*
X-15168462Y4229519D01*
X-15149194Y4132655D01*
X-14995286Y3902314D01*
X-14764945Y3748406D01*
X-14493240Y3694360D01*
X-14221535Y3748406D01*
X-13991194Y3902314D01*
X-13837286Y4132655D01*
X-13818019Y4229519D01*
X-13721155Y4248786D01*
X-13490814Y4402694D01*
X-13336906Y4633035D01*
X-13282860Y4904740D01*
X-13330033Y5141890D01*
X-13281073Y5174603D01*
X-12992007Y5607222D01*
X-12890500Y6117530D01*
X-12890500Y4223411D01*
X-12963573Y4114049D01*
X-13069000Y3584032D01*
X-13069000Y3174236D01*
X-13374628Y2868609D01*
X-13716000Y2936512D01*
X-14246235Y2831042D01*
X-14695746Y2530688D01*
X-14996100Y2081177D01*
X-15101570Y1550942D01*
X-15101570Y989058D01*
X-14996100Y458823D01*
X-14695746Y9312D01*
X-14246235Y-291042D01*
X-14036081Y-332844D01*
X-14084236Y-381000D01*
X-14934678Y-381000D01*
X-14995312Y-290254D01*
X-15444823Y10100D01*
X-15975058Y115570D01*
X-16536942Y115570D01*
X-17067177Y10100D01*
X-17516688Y-290254D01*
X-17817042Y-739765D01*
X-17922512Y-1270000D01*
X-17817042Y-1800235D01*
X-17516688Y-2249746D01*
X-17067177Y-2550100D01*
X-16536942Y-2655570D01*
X-15975058Y-2655570D01*
X-15444823Y-2550100D01*
X-14995312Y-2249746D01*
X-14934678Y-2159000D01*
X-13716000Y-2159000D01*
X-13375795Y-2091329D01*
X-13375794Y-2091329D01*
X-13087382Y-1898618D01*
X-12724649Y-1535884D01*
X-12767803Y-1611275D01*
X-12749157Y-1713305D01*
X-12478710Y-2186324D01*
X-12047833Y-2519841D01*
X-11522123Y-2663081D01*
X-11303000Y-2502386D01*
X-11303000Y-1397000D01*
X-11323000Y-1397000D01*
X-11323000Y-1143000D01*
X-11303000Y-1143000D01*
X-11303000Y-1123000D01*
X-11049000Y-1123000D01*
X-11049000Y-1143000D01*
X-9706851Y-1143000D01*
X-9584197Y-928725D01*
X-9602843Y-826695D01*
X-9712444Y-635000D01*
X-9258236Y-635000D01*
X-8964609Y-928627D01*
X-9032512Y-1270000D01*
X-8927042Y-1800235D01*
X-8626688Y-2249746D01*
X-8382362Y-2413000D01*
X-9398000Y-2413000D01*
X-9584197Y-2450036D01*
X-9584197Y-1611275D01*
X-9706851Y-1397000D01*
X-11049000Y-1397000D01*
X-11049000Y-2502386D01*
X-10829877Y-2663081D01*
X-10304167Y-2519841D01*
X-9873290Y-2186324D01*
X-9602843Y-1713305D01*
X-9584197Y-1611275D01*
X-9584197Y-2450036D01*
X-9738206Y-2480671D01*
X-10026618Y-2673382D01*
X-11047666Y-3694430D01*
X-11456942Y-3694430D01*
X-11987177Y-3799900D01*
X-12436688Y-4100254D01*
X-12737042Y-4549765D01*
X-12842512Y-5080000D01*
X-12737042Y-5610235D01*
X-12436688Y-6059746D01*
X-11987177Y-6360100D01*
X-11456942Y-6465570D01*
X-10895058Y-6465570D01*
X-10364823Y-6360100D01*
X-9915312Y-6059746D01*
X-9614958Y-5610235D01*
X-9509488Y-5080000D01*
X-9577392Y-4738627D01*
X-9029764Y-4191000D01*
X-8684333Y-4191000D01*
X-8939157Y-4636695D01*
X-8957803Y-4738725D01*
X-8835149Y-4953000D01*
X-7493000Y-4953000D01*
X-7493000Y-4933000D01*
X-7239000Y-4933000D01*
X-7239000Y-4953000D01*
X-5896851Y-4953000D01*
X-5774197Y-4738725D01*
X-5792843Y-4636695D01*
X-6047668Y-4191000D01*
X-5194236Y-4191000D01*
X-3864930Y-5520306D01*
X-3847042Y-5610235D01*
X-3546688Y-6059746D01*
X-3097177Y-6360100D01*
X-2566942Y-6465570D01*
X-2005058Y-6465570D01*
X-1474823Y-6360100D01*
X-1025312Y-6059746D01*
X-724958Y-5610235D01*
X-619488Y-5080000D01*
X-724958Y-4549765D01*
X-879819Y-4318000D01*
X40343Y-4318000D01*
X124332Y-4443698D01*
X404123Y-4630648D01*
X340858Y-4643233D01*
X-124689Y-4954302D01*
X-435758Y-5419849D01*
X-544991Y-5969000D01*
X-435758Y-6518151D01*
X-124689Y-6983698D01*
X340858Y-7294767D01*
X890009Y-7404000D01*
X1557991Y-7404000D01*
X2107142Y-7294767D01*
X2572689Y-6983698D01*
X2591907Y-6954935D01*
X2604886Y-6961159D01*
X2700285Y-6966358D01*
X2794000Y-6985000D01*
X3048000Y-6985000D01*
X4376074Y-6985000D01*
X4254687Y-7277332D01*
X4254313Y-7706784D01*
X4418311Y-8103689D01*
X4721714Y-8407622D01*
X5118332Y-8572313D01*
X5547784Y-8572687D01*
X5944689Y-8408689D01*
X6223219Y-8130644D01*
X6499714Y-8407622D01*
X6896332Y-8572313D01*
X7325784Y-8572687D01*
X7722689Y-8408689D01*
X7981608Y-8150220D01*
X7981609Y-8150219D01*
X8158815Y-8031815D01*
X8786630Y-7404000D01*
X9321764Y-7404000D01*
X10674382Y-8756618D01*
X10962794Y-8949329D01*
X10962795Y-8949329D01*
X11303000Y-9017000D01*
X16002000Y-9017000D01*
X16342205Y-8949329D01*
X16342206Y-8949329D01*
X16630618Y-8756618D01*
X17564629Y-7822606D01*
X18034000Y-7915970D01*
X18544308Y-7814463D01*
X18976927Y-7525397D01*
X19265993Y-7092778D01*
X19367500Y-6582470D01*
X19367500Y-7176926D01*
X18976907Y-7566839D01*
X18689328Y-8259405D01*
X18688674Y-9009305D01*
X18975043Y-9702372D01*
X19504839Y-10233093D01*
X19887528Y-10392000D01*
X-3440430Y-10392000D01*
X-3440430Y-7900942D01*
X-3440430Y-7339058D01*
X-3545900Y-6808823D01*
X-3846254Y-6359312D01*
X-4295765Y-6058958D01*
X-4826000Y-5953488D01*
X-5356235Y-6058958D01*
X-5774197Y-6338231D01*
X-5774197Y-5421275D01*
X-5896851Y-5207000D01*
X-7239000Y-5207000D01*
X-7239000Y-6312386D01*
X-7019877Y-6473081D01*
X-6494167Y-6329841D01*
X-6063290Y-5996324D01*
X-5792843Y-5523305D01*
X-5774197Y-5421275D01*
X-5774197Y-6338231D01*
X-5805746Y-6359312D01*
X-6054101Y-6731000D01*
X-7493000Y-6731000D01*
X-7493000Y-6312386D01*
X-7493000Y-5207000D01*
X-8835149Y-5207000D01*
X-8957803Y-5421275D01*
X-8939157Y-5523305D01*
X-8668710Y-5996324D01*
X-8237833Y-6329841D01*
X-7712123Y-6473081D01*
X-7493000Y-6312386D01*
X-7493000Y-6731000D01*
X-12487900Y-6731000D01*
X-12736254Y-6359312D01*
X-13185765Y-6058958D01*
X-13716000Y-5953488D01*
X-14246235Y-6058958D01*
X-14695746Y-6359312D01*
X-14985973Y-6793665D01*
X-15276657Y-6358625D01*
X-15359637Y-6303180D01*
X-14995312Y-6059746D01*
X-14694958Y-5610235D01*
X-14589488Y-5080000D01*
X-14694958Y-4549765D01*
X-14995312Y-4100254D01*
X-15444823Y-3799900D01*
X-15975058Y-3694430D01*
X-16536942Y-3694430D01*
X-17067177Y-3799900D01*
X-17516688Y-4100254D01*
X-17817042Y-4549765D01*
X-17922512Y-5080000D01*
X-17817042Y-5610235D01*
X-17516688Y-6059746D01*
X-17152364Y-6303180D01*
X-17235343Y-6358625D01*
X-17526000Y-6793623D01*
X-17816657Y-6358625D01*
X-18265983Y-6058395D01*
X-18796000Y-5952968D01*
X-19326017Y-6058395D01*
X-19775343Y-6358625D01*
X-20075573Y-6807951D01*
X-20181000Y-7337968D01*
X-20181000Y-7902032D01*
X-20075573Y-8432049D01*
X-19775343Y-8881375D01*
X-19326017Y-9181605D01*
X-18796000Y-9287032D01*
X-18454194Y-9219042D01*
X-17646618Y-10026618D01*
X-17358206Y-10219329D01*
X-17358205Y-10219329D01*
X-17018000Y-10287000D01*
X-15240000Y-10287000D01*
X-14899795Y-10219329D01*
X-14899794Y-10219329D01*
X-14611382Y-10026618D01*
X-13845515Y-9260750D01*
X-13716000Y-9286512D01*
X-13185765Y-9181042D01*
X-12736254Y-8880688D01*
X-12487900Y-8509000D01*
X-6054101Y-8509000D01*
X-5805746Y-8880688D01*
X-5356235Y-9181042D01*
X-4826000Y-9286512D01*
X-4295765Y-9181042D01*
X-3846254Y-8880688D01*
X-3545900Y-8431177D01*
X-3440430Y-7900942D01*
X-3440430Y-10392000D01*
X-25464798Y-10392000D01*
X-25464798Y-5000000D01*
X-25464798Y5000000D01*
X-25609807Y5729012D01*
X-26022760Y6347038D01*
X-26640786Y6759991D01*
X-27369798Y6905000D01*
X-30034202Y6905000D01*
X-30763214Y6759991D01*
X-31381240Y6347038D01*
X-31794193Y5729012D01*
X-31939202Y5000000D01*
X-31794193Y4270988D01*
X-31381240Y3652962D01*
X-30763214Y3240009D01*
X-30034202Y3095000D01*
X-27369798Y3095000D01*
X-26640786Y3240009D01*
X-26022760Y3652962D01*
X-25609807Y4270988D01*
X-25464798Y5000000D01*
X-25464798Y-5000000D01*
X-25609807Y-4270988D01*
X-26022760Y-3652962D01*
X-26640786Y-3240009D01*
X-27369798Y-3095000D01*
X-30034202Y-3095000D01*
X-30763214Y-3240009D01*
X-31381240Y-3652962D01*
X-31794193Y-4270988D01*
X-31939202Y-5000000D01*
X-31794193Y-5729012D01*
X-31381240Y-6347038D01*
X-30763214Y-6759991D01*
X-30034202Y-6905000D01*
X-27369798Y-6905000D01*
X-26640786Y-6759991D01*
X-26022760Y-6347038D01*
X-25609807Y-5729012D01*
X-25464798Y-5000000D01*
X-25464798Y-10392000D01*
X-37230674Y-10392000D01*
X-37230674Y-7246695D01*
X-37230674Y7993305D01*
X-37517043Y8686372D01*
X-38046839Y9217093D01*
X-38739405Y9504672D01*
X-39489305Y9505326D01*
X-40182372Y9218957D01*
X-40713093Y8689161D01*
X-41000672Y7996595D01*
X-41001326Y7246695D01*
X-40714957Y6553628D01*
X-40185161Y6022907D01*
X-39492595Y5735328D01*
X-38742695Y5734674D01*
X-38049628Y6021043D01*
X-37518907Y6550839D01*
X-37231328Y7243405D01*
X-37230674Y7993305D01*
X-37230674Y-7246695D01*
X-37517043Y-6553628D01*
X-38046839Y-6022907D01*
X-38739405Y-5735328D01*
X-39000560Y-5735100D01*
X-39000560Y-4000000D01*
X-39000560Y4000000D01*
X-39108922Y4358572D01*
X-39288865Y4538703D01*
X-42288865Y6538703D01*
X-42639874Y6647389D01*
X-42890123Y6600463D01*
X-43102927Y6460673D01*
X-43245377Y6249640D01*
X-43295440Y6000000D01*
X-43295440Y-6000000D01*
X-43191168Y-6352346D01*
X-43013309Y-6534535D01*
X-42778955Y-6634058D01*
X-42524348Y-6635523D01*
X-42288865Y-6538703D01*
X-39288865Y-4538703D01*
X-39050623Y-4249640D01*
X-39000560Y-4000000D01*
X-39000560Y-5735100D01*
X-39489305Y-5734674D01*
X-40182372Y-6021043D01*
X-40713093Y-6550839D01*
X-41000672Y-7243405D01*
X-41001326Y-7993305D01*
X-40714957Y-8686372D01*
X-40185161Y-9217093D01*
X-39492595Y-9504672D01*
X-38742695Y-9505326D01*
X-38049628Y-9218957D01*
X-37518907Y-8689161D01*
X-37231328Y-7996595D01*
X-37230674Y-7246695D01*
X-37230674Y-10392000D01*
X-39514611Y-10392000D01*
X-41213635Y-10054043D01*
X-42592629Y-9132628D01*
X-43514044Y-7753634D01*
X-43852000Y-6054610D01*
X-43852000Y5800611D01*
X-43514044Y7499635D01*
X-42592629Y8878629D01*
X-41213635Y9800044D01*
X-39514611Y10138000D01*
X19410501Y10138000D01*
X18976907Y9705161D01*
X18689328Y9012595D01*
X18688674Y8262695D01*
X18975043Y7569628D01*
X19504839Y7038907D01*
X20197405Y6751328D01*
X20947305Y6750674D01*
X21640372Y7037043D01*
X22171093Y7566839D01*
X22458672Y8259405D01*
X22459326Y9009305D01*
X22172957Y9702372D01*
X21738088Y10138000D01*
X44340610Y10138000D01*
X46039634Y9800044D01*
X47418628Y8878629D01*
X48340043Y7499635D01*
X48678000Y5800611D01*
X48678000Y-6054610D01*
X48678000Y-6054610D01*
G37*
X48678000Y-6054610D02*
X48340043Y-7753634D01*
X47867440Y-8460933D01*
X47867440Y-6000000D01*
X47867440Y6000000D01*
X47763168Y6352346D01*
X47585309Y6534535D01*
X47350955Y6634058D01*
X47096348Y6635523D01*
X46860865Y6538703D01*
X44321000Y4845460D01*
X44321000Y7359000D01*
X44321000Y7747000D01*
X44321000Y8001000D01*
X44321000Y8389000D01*
X44166059Y8913941D01*
X43822026Y9339630D01*
X43341277Y9601260D01*
X43267070Y9616220D01*
X43051000Y9493720D01*
X43051000Y8001000D01*
X44321000Y8001000D01*
X44321000Y7747000D01*
X43051000Y7747000D01*
X43051000Y6254280D01*
X43267070Y6131780D01*
X43341277Y6146740D01*
X43822026Y6408370D01*
X44166059Y6834059D01*
X44321000Y7359000D01*
X44321000Y4845460D01*
X43860865Y4538703D01*
X43622623Y4249640D01*
X43572560Y4000000D01*
X43572560Y2416105D01*
X43396738Y2679240D01*
X42797000Y3079974D01*
X42797000Y6254280D01*
X42797000Y7747000D01*
X42797000Y8001000D01*
X42797000Y9493720D01*
X42580930Y9616220D01*
X42506723Y9601260D01*
X42025974Y9339630D01*
X41681941Y8913941D01*
X41527000Y8389000D01*
X41527000Y8001000D01*
X42797000Y8001000D01*
X42797000Y7747000D01*
X41527000Y7747000D01*
X41527000Y7359000D01*
X41681941Y6834059D01*
X42025974Y6408370D01*
X42506723Y6146740D01*
X42580930Y6131780D01*
X42797000Y6254280D01*
X42797000Y3079974D01*
X42778712Y3092193D01*
X42049700Y3237202D01*
X41320688Y3092193D01*
X40702662Y2679240D01*
X40489802Y2360674D01*
X39504492Y4739423D01*
X37931290Y5200682D01*
X36696682Y3966074D01*
X36696682Y6435290D01*
X36235423Y8008492D01*
X32809939Y9212580D01*
X29184419Y9014137D01*
X26756577Y8008492D01*
X26295318Y6435290D01*
X31496000Y1234608D01*
X36696682Y6435290D01*
X36696682Y3966074D01*
X32730608Y0D01*
X37931290Y-5200682D01*
X39504492Y-4739423D01*
X40392061Y-2214395D01*
X40702662Y-2679240D01*
X41320688Y-3092193D01*
X42049700Y-3237202D01*
X42778712Y-3092193D01*
X43396738Y-2679240D01*
X43572560Y-2416104D01*
X43572560Y-4000000D01*
X43680922Y-4358572D01*
X43860865Y-4538703D01*
X46860865Y-6538703D01*
X47211874Y-6647389D01*
X47462123Y-6600463D01*
X47674927Y-6460673D01*
X47817377Y-6249640D01*
X47867440Y-6000000D01*
X47867440Y-8460933D01*
X47418628Y-9132628D01*
X46039634Y-10054043D01*
X44340610Y-10392000D01*
X36696682Y-10392000D01*
X36696682Y-6435290D01*
X31496000Y-1234608D01*
X30261392Y-2469216D01*
X30261392Y0D01*
X25060710Y5200682D01*
X23487508Y4739423D01*
X22599938Y2214396D01*
X22289338Y2679240D01*
X21671312Y3092193D01*
X20942300Y3237202D01*
X20213288Y3092193D01*
X19595262Y2679240D01*
X19318683Y2265313D01*
X19217393Y2603141D01*
X18887125Y3008230D01*
X18426976Y3256095D01*
X18367094Y3266729D01*
X18161000Y3143365D01*
X18161000Y1651000D01*
X18181000Y1651000D01*
X18181000Y1397000D01*
X18161000Y1397000D01*
X18161000Y-95365D01*
X18367094Y-218729D01*
X18426976Y-208095D01*
X18887125Y39770D01*
X19037300Y223967D01*
X19037300Y-1332202D01*
X19182309Y-2061214D01*
X19595262Y-2679240D01*
X20213288Y-3092193D01*
X20942300Y-3237202D01*
X21671312Y-3092193D01*
X22289338Y-2679240D01*
X22502197Y-2360673D01*
X23487508Y-4739423D01*
X25060710Y-5200682D01*
X30261392Y0D01*
X30261392Y-2469216D01*
X26295318Y-6435290D01*
X26756577Y-8008492D01*
X30182061Y-9212580D01*
X33807581Y-9014137D01*
X36235423Y-8008492D01*
X36696682Y-6435290D01*
X36696682Y-10392000D01*
X21260298Y-10392000D01*
X21640372Y-10234957D01*
X22171093Y-9705161D01*
X22458672Y-9012595D01*
X22459326Y-8262695D01*
X22172957Y-7569628D01*
X21643161Y-7038907D01*
X20950595Y-6751328D01*
X20200695Y-6750674D01*
X19507628Y-7037043D01*
X19367500Y-7176926D01*
X19367500Y-6582470D01*
X19367500Y-5609530D01*
X19265993Y-5099222D01*
X18976927Y-4666603D01*
X18544308Y-4377537D01*
X18034000Y-4276030D01*
X17523692Y-4377537D01*
X17091073Y-4666603D01*
X16802007Y-5099222D01*
X16776630Y-5226795D01*
X16725993Y-4972222D01*
X16436927Y-4539603D01*
X16004308Y-4250537D01*
X15494000Y-4149030D01*
X14983692Y-4250537D01*
X14551073Y-4539603D01*
X14262007Y-4972222D01*
X14224000Y-5163295D01*
X14185993Y-4972222D01*
X13896927Y-4539603D01*
X13464308Y-4250537D01*
X13332987Y-4224415D01*
X13582618Y-4057618D01*
X16122618Y-1517618D01*
X16315329Y-1229206D01*
X16383000Y-889000D01*
X16383000Y185571D01*
X16436927Y221603D01*
X16725993Y654222D01*
X16750656Y778216D01*
X16850607Y444859D01*
X17180875Y39770D01*
X17641024Y-208095D01*
X17700906Y-218729D01*
X17907000Y-95365D01*
X17907000Y1397000D01*
X17887000Y1397000D01*
X17887000Y1651000D01*
X17907000Y1651000D01*
X17907000Y3143365D01*
X17700906Y3266729D01*
X17641024Y3256095D01*
X17180875Y3008230D01*
X16850607Y2603141D01*
X16781030Y2371088D01*
X16725993Y2647778D01*
X16436927Y3080397D01*
X16004308Y3369463D01*
X15494000Y3470970D01*
X14983692Y3369463D01*
X14936982Y3338254D01*
X12312618Y5962618D01*
X12024206Y6155329D01*
X11684000Y6223000D01*
X7241863Y6223000D01*
X7216286Y6248622D01*
X6819668Y6413313D01*
X6390216Y6413687D01*
X5993311Y6249689D01*
X5689378Y5946286D01*
X5524687Y5549668D01*
X5524313Y5120216D01*
X5688311Y4723311D01*
X5991714Y4419378D01*
X6388332Y4254687D01*
X6817784Y4254313D01*
X7214689Y4418311D01*
X7241424Y4445000D01*
X11315764Y4445000D01*
X12412285Y3348479D01*
X12011073Y3080397D01*
X11722007Y2647778D01*
X11620500Y2137470D01*
X11620500Y1164530D01*
X11722007Y654222D01*
X11821333Y505570D01*
X11315764Y0D01*
X10627656Y0D01*
X10543668Y125698D01*
X10286816Y297321D01*
X10427142Y325233D01*
X10892689Y636302D01*
X11203758Y1101849D01*
X11312991Y1651000D01*
X11203758Y2200151D01*
X10892689Y2665698D01*
X10427142Y2976767D01*
X9877991Y3086000D01*
X9210009Y3086000D01*
X8660858Y2976767D01*
X8195311Y2665698D01*
X8187792Y2654447D01*
X8158815Y2697815D01*
X8079375Y2750896D01*
X8008234Y2814682D01*
X7956872Y2832749D01*
X7911605Y2862996D01*
X7817894Y2881637D01*
X7727763Y2913341D01*
X7673400Y2910379D01*
X7620000Y2921000D01*
X5334000Y2921000D01*
X5042395Y2862996D01*
X4943376Y2796835D01*
X4795185Y2697816D01*
X4516450Y2419082D01*
X4635313Y2705332D01*
X4635687Y3134784D01*
X4471689Y3531689D01*
X4168286Y3835622D01*
X3771668Y4000313D01*
X3342216Y4000687D01*
X2945311Y3836689D01*
X2641378Y3533286D01*
X2476687Y3136668D01*
X2476521Y2946879D01*
X2001000Y3086000D01*
X1651000Y3086000D01*
X1651000Y1778000D01*
X1671000Y1778000D01*
X1671000Y1524000D01*
X1651000Y1524000D01*
X1651000Y1504000D01*
X1397000Y1504000D01*
X1397000Y1524000D01*
X1377000Y1524000D01*
X1377000Y1778000D01*
X1397000Y1778000D01*
X1397000Y3086000D01*
X1047000Y3086000D01*
X507517Y2928166D01*
X69500Y2575896D01*
X-75129Y2311643D01*
X-348603Y2720927D01*
X-781222Y3009993D01*
X-901363Y3033891D01*
X-698859Y3094607D01*
X-293770Y3424875D01*
X-45905Y3885024D01*
X-35271Y3944906D01*
X-35271Y4611094D01*
X-45905Y4670976D01*
X-293770Y5131125D01*
X-379000Y5200613D01*
X-379000Y7451030D01*
X-379000Y8296970D01*
X-485340Y8831579D01*
X-788172Y9284798D01*
X-1241391Y9587630D01*
X-1776000Y9693970D01*
X-2310609Y9587630D01*
X-2763828Y9284798D01*
X-3066660Y8831579D01*
X-3173000Y8296970D01*
X-3173000Y7451030D01*
X-3066660Y6916421D01*
X-2763828Y6463202D01*
X-2310609Y6160370D01*
X-1776000Y6054030D01*
X-1241391Y6160370D01*
X-788172Y6463202D01*
X-485340Y6916421D01*
X-379000Y7451030D01*
X-379000Y5200613D01*
X-698859Y5461393D01*
X-1199500Y5611500D01*
X-1651000Y5611500D01*
X-1651000Y4405000D01*
X-158635Y4405000D01*
X-35271Y4611094D01*
X-35271Y3944906D01*
X-158635Y4151000D01*
X-1651000Y4151000D01*
X-1651000Y4131000D01*
X-1905000Y4131000D01*
X-1905000Y4151000D01*
X-1905000Y4405000D01*
X-1905000Y5611500D01*
X-2356500Y5611500D01*
X-2857141Y5461393D01*
X-3262230Y5131125D01*
X-3510095Y4670976D01*
X-3520729Y4611094D01*
X-3397365Y4405000D01*
X-1905000Y4405000D01*
X-1905000Y4151000D01*
X-3397365Y4151000D01*
X-3520729Y3944906D01*
X-3510095Y3885024D01*
X-3262230Y3424875D01*
X-2857141Y3094607D01*
X-2654638Y3033891D01*
X-2774778Y3009993D01*
X-3207397Y2720927D01*
X-3496463Y2288308D01*
X-3541783Y2060475D01*
X-3545900Y2081177D01*
X-3846254Y2530688D01*
X-4295765Y2831042D01*
X-4824983Y2936310D01*
X-4762687Y3086332D01*
X-4762313Y3515784D01*
X-4926311Y3912689D01*
X-5026920Y4013474D01*
X-4947286Y4132655D01*
X-4928019Y4229519D01*
X-4831155Y4248786D01*
X-4600814Y4402694D01*
X-4446906Y4633035D01*
X-4392860Y4904740D01*
X-4440033Y5141890D01*
X-4391073Y5174603D01*
X-4102007Y5607222D01*
X-4000500Y6117530D01*
X-4000500Y7090470D01*
X-4102007Y7600778D01*
X-4391073Y8033397D01*
X-4823692Y8322463D01*
X-5334000Y8423970D01*
X-5844308Y8322463D01*
X-6276927Y8033397D01*
X-6565993Y7600778D01*
X-6605844Y7400437D01*
X-6690607Y7683141D01*
X-7020875Y8088230D01*
X-7481024Y8336095D01*
X-7540906Y8346729D01*
X-7747000Y8223365D01*
X-7747000Y6731000D01*
X-7727000Y6731000D01*
X-7727000Y6477000D01*
X-7747000Y6477000D01*
X-7747000Y4984635D01*
X-7540906Y4861271D01*
X-7481024Y4871905D01*
X-7020875Y5119770D01*
X-6690607Y5524859D01*
X-6605844Y5807564D01*
X-6565993Y5607222D01*
X-6485649Y5486979D01*
X-6605666Y5406786D01*
X-6759574Y5176445D01*
X-6813620Y4904740D01*
X-6759574Y4633035D01*
X-6605666Y4402694D01*
X-6376129Y4249324D01*
X-6452689Y4217689D01*
X-6756622Y3914286D01*
X-6921313Y3517668D01*
X-6921346Y3479891D01*
X-6972236Y3429000D01*
X-7759000Y3429000D01*
X-7759000Y3584032D01*
X-7864427Y4114049D01*
X-8001000Y4318445D01*
X-8001000Y4984635D01*
X-8001000Y6477000D01*
X-8001000Y6731000D01*
X-8001000Y8223365D01*
X-8207094Y8346729D01*
X-8266976Y8336095D01*
X-8727125Y8088230D01*
X-9057393Y7683141D01*
X-9207500Y7182500D01*
X-9207500Y6731000D01*
X-8001000Y6731000D01*
X-8001000Y6477000D01*
X-9207500Y6477000D01*
X-9207500Y6025500D01*
X-9057393Y5524859D01*
X-8727125Y5119770D01*
X-8266976Y4871905D01*
X-8207094Y4861271D01*
X-8001000Y4984635D01*
X-8001000Y4318445D01*
X-8164657Y4563375D01*
X-8613983Y4863605D01*
X-9144000Y4969032D01*
X-9674017Y4863605D01*
X-10123343Y4563375D01*
X-10414000Y4128377D01*
X-10704657Y4563375D01*
X-11153983Y4863605D01*
X-11684000Y4969032D01*
X-12214017Y4863605D01*
X-12663343Y4563375D01*
X-12890500Y4223411D01*
X-12890500Y6117530D01*
X-12890500Y7090470D01*
X-12992007Y7600778D01*
X-13281073Y8033397D01*
X-13713692Y8322463D01*
X-14224000Y8423970D01*
X-14734308Y8322463D01*
X-15166927Y8033397D01*
X-15455993Y7600778D01*
X-15494000Y7409705D01*
X-15532007Y7600778D01*
X-15821073Y8033397D01*
X-16253692Y8322463D01*
X-16764000Y8423970D01*
X-17274308Y8322463D01*
X-17706927Y8033397D01*
X-17995993Y7600778D01*
X-18097500Y7090470D01*
X-18097500Y6117530D01*
X-17995993Y5607222D01*
X-17706927Y5174603D01*
X-17274308Y4885537D01*
X-16764000Y4784030D01*
X-16253692Y4885537D01*
X-15821073Y5174603D01*
X-15532007Y5607222D01*
X-15494000Y5798296D01*
X-15455993Y5607222D01*
X-15375649Y5486979D01*
X-15495666Y5406786D01*
X-15649574Y5176445D01*
X-15703620Y4904740D01*
X-15649574Y4633035D01*
X-15495666Y4402694D01*
X-15265325Y4248786D01*
X-15168462Y4229519D01*
X-15149194Y4132655D01*
X-14995286Y3902314D01*
X-14764945Y3748406D01*
X-14493240Y3694360D01*
X-14221535Y3748406D01*
X-13991194Y3902314D01*
X-13837286Y4132655D01*
X-13818019Y4229519D01*
X-13721155Y4248786D01*
X-13490814Y4402694D01*
X-13336906Y4633035D01*
X-13282860Y4904740D01*
X-13330033Y5141890D01*
X-13281073Y5174603D01*
X-12992007Y5607222D01*
X-12890500Y6117530D01*
X-12890500Y4223411D01*
X-12963573Y4114049D01*
X-13069000Y3584032D01*
X-13069000Y3174236D01*
X-13374628Y2868609D01*
X-13716000Y2936512D01*
X-14246235Y2831042D01*
X-14695746Y2530688D01*
X-14996100Y2081177D01*
X-15101570Y1550942D01*
X-15101570Y989058D01*
X-14996100Y458823D01*
X-14695746Y9312D01*
X-14246235Y-291042D01*
X-14036081Y-332844D01*
X-14084236Y-381000D01*
X-14934678Y-381000D01*
X-14995312Y-290254D01*
X-15444823Y10100D01*
X-15975058Y115570D01*
X-16536942Y115570D01*
X-17067177Y10100D01*
X-17516688Y-290254D01*
X-17817042Y-739765D01*
X-17922512Y-1270000D01*
X-17817042Y-1800235D01*
X-17516688Y-2249746D01*
X-17067177Y-2550100D01*
X-16536942Y-2655570D01*
X-15975058Y-2655570D01*
X-15444823Y-2550100D01*
X-14995312Y-2249746D01*
X-14934678Y-2159000D01*
X-13716000Y-2159000D01*
X-13375795Y-2091329D01*
X-13375794Y-2091329D01*
X-13087382Y-1898618D01*
X-12724649Y-1535884D01*
X-12767803Y-1611275D01*
X-12749157Y-1713305D01*
X-12478710Y-2186324D01*
X-12047833Y-2519841D01*
X-11522123Y-2663081D01*
X-11303000Y-2502386D01*
X-11303000Y-1397000D01*
X-11323000Y-1397000D01*
X-11323000Y-1143000D01*
X-11303000Y-1143000D01*
X-11303000Y-1123000D01*
X-11049000Y-1123000D01*
X-11049000Y-1143000D01*
X-9706851Y-1143000D01*
X-9584197Y-928725D01*
X-9602843Y-826695D01*
X-9712444Y-635000D01*
X-9258236Y-635000D01*
X-8964609Y-928627D01*
X-9032512Y-1270000D01*
X-8927042Y-1800235D01*
X-8626688Y-2249746D01*
X-8382362Y-2413000D01*
X-9398000Y-2413000D01*
X-9584197Y-2450036D01*
X-9584197Y-1611275D01*
X-9706851Y-1397000D01*
X-11049000Y-1397000D01*
X-11049000Y-2502386D01*
X-10829877Y-2663081D01*
X-10304167Y-2519841D01*
X-9873290Y-2186324D01*
X-9602843Y-1713305D01*
X-9584197Y-1611275D01*
X-9584197Y-2450036D01*
X-9738206Y-2480671D01*
X-10026618Y-2673382D01*
X-11047666Y-3694430D01*
X-11456942Y-3694430D01*
X-11987177Y-3799900D01*
X-12436688Y-4100254D01*
X-12737042Y-4549765D01*
X-12842512Y-5080000D01*
X-12737042Y-5610235D01*
X-12436688Y-6059746D01*
X-11987177Y-6360100D01*
X-11456942Y-6465570D01*
X-10895058Y-6465570D01*
X-10364823Y-6360100D01*
X-9915312Y-6059746D01*
X-9614958Y-5610235D01*
X-9509488Y-5080000D01*
X-9577392Y-4738627D01*
X-9029764Y-4191000D01*
X-8684333Y-4191000D01*
X-8939157Y-4636695D01*
X-8957803Y-4738725D01*
X-8835149Y-4953000D01*
X-7493000Y-4953000D01*
X-7493000Y-4933000D01*
X-7239000Y-4933000D01*
X-7239000Y-4953000D01*
X-5896851Y-4953000D01*
X-5774197Y-4738725D01*
X-5792843Y-4636695D01*
X-6047668Y-4191000D01*
X-5194236Y-4191000D01*
X-3864930Y-5520306D01*
X-3847042Y-5610235D01*
X-3546688Y-6059746D01*
X-3097177Y-6360100D01*
X-2566942Y-6465570D01*
X-2005058Y-6465570D01*
X-1474823Y-6360100D01*
X-1025312Y-6059746D01*
X-724958Y-5610235D01*
X-619488Y-5080000D01*
X-724958Y-4549765D01*
X-879819Y-4318000D01*
X40343Y-4318000D01*
X124332Y-4443698D01*
X404123Y-4630648D01*
X340858Y-4643233D01*
X-124689Y-4954302D01*
X-435758Y-5419849D01*
X-544991Y-5969000D01*
X-435758Y-6518151D01*
X-124689Y-6983698D01*
X340858Y-7294767D01*
X890009Y-7404000D01*
X1557991Y-7404000D01*
X2107142Y-7294767D01*
X2572689Y-6983698D01*
X2591907Y-6954935D01*
X2604886Y-6961159D01*
X2700285Y-6966358D01*
X2794000Y-6985000D01*
X3048000Y-6985000D01*
X4376074Y-6985000D01*
X4254687Y-7277332D01*
X4254313Y-7706784D01*
X4418311Y-8103689D01*
X4721714Y-8407622D01*
X5118332Y-8572313D01*
X5547784Y-8572687D01*
X5944689Y-8408689D01*
X6223219Y-8130644D01*
X6499714Y-8407622D01*
X6896332Y-8572313D01*
X7325784Y-8572687D01*
X7722689Y-8408689D01*
X7981608Y-8150220D01*
X7981609Y-8150219D01*
X8158815Y-8031815D01*
X8786630Y-7404000D01*
X9321764Y-7404000D01*
X10674382Y-8756618D01*
X10962794Y-8949329D01*
X10962795Y-8949329D01*
X11303000Y-9017000D01*
X16002000Y-9017000D01*
X16342205Y-8949329D01*
X16342206Y-8949329D01*
X16630618Y-8756618D01*
X17564629Y-7822606D01*
X18034000Y-7915970D01*
X18544308Y-7814463D01*
X18976927Y-7525397D01*
X19265993Y-7092778D01*
X19367500Y-6582470D01*
X19367500Y-7176926D01*
X18976907Y-7566839D01*
X18689328Y-8259405D01*
X18688674Y-9009305D01*
X18975043Y-9702372D01*
X19504839Y-10233093D01*
X19887528Y-10392000D01*
X-3440430Y-10392000D01*
X-3440430Y-7900942D01*
X-3440430Y-7339058D01*
X-3545900Y-6808823D01*
X-3846254Y-6359312D01*
X-4295765Y-6058958D01*
X-4826000Y-5953488D01*
X-5356235Y-6058958D01*
X-5774197Y-6338231D01*
X-5774197Y-5421275D01*
X-5896851Y-5207000D01*
X-7239000Y-5207000D01*
X-7239000Y-6312386D01*
X-7019877Y-6473081D01*
X-6494167Y-6329841D01*
X-6063290Y-5996324D01*
X-5792843Y-5523305D01*
X-5774197Y-5421275D01*
X-5774197Y-6338231D01*
X-5805746Y-6359312D01*
X-6054101Y-6731000D01*
X-7493000Y-6731000D01*
X-7493000Y-6312386D01*
X-7493000Y-5207000D01*
X-8835149Y-5207000D01*
X-8957803Y-5421275D01*
X-8939157Y-5523305D01*
X-8668710Y-5996324D01*
X-8237833Y-6329841D01*
X-7712123Y-6473081D01*
X-7493000Y-6312386D01*
X-7493000Y-6731000D01*
X-12487900Y-6731000D01*
X-12736254Y-6359312D01*
X-13185765Y-6058958D01*
X-13716000Y-5953488D01*
X-14246235Y-6058958D01*
X-14695746Y-6359312D01*
X-14985973Y-6793665D01*
X-15276657Y-6358625D01*
X-15359637Y-6303180D01*
X-14995312Y-6059746D01*
X-14694958Y-5610235D01*
X-14589488Y-5080000D01*
X-14694958Y-4549765D01*
X-14995312Y-4100254D01*
X-15444823Y-3799900D01*
X-15975058Y-3694430D01*
X-16536942Y-3694430D01*
X-17067177Y-3799900D01*
X-17516688Y-4100254D01*
X-17817042Y-4549765D01*
X-17922512Y-5080000D01*
X-17817042Y-5610235D01*
X-17516688Y-6059746D01*
X-17152364Y-6303180D01*
X-17235343Y-6358625D01*
X-17526000Y-6793623D01*
X-17816657Y-6358625D01*
X-18265983Y-6058395D01*
X-18796000Y-5952968D01*
X-19326017Y-6058395D01*
X-19775343Y-6358625D01*
X-20075573Y-6807951D01*
X-20181000Y-7337968D01*
X-20181000Y-7902032D01*
X-20075573Y-8432049D01*
X-19775343Y-8881375D01*
X-19326017Y-9181605D01*
X-18796000Y-9287032D01*
X-18454194Y-9219042D01*
X-17646618Y-10026618D01*
X-17358206Y-10219329D01*
X-17358205Y-10219329D01*
X-17018000Y-10287000D01*
X-15240000Y-10287000D01*
X-14899795Y-10219329D01*
X-14899794Y-10219329D01*
X-14611382Y-10026618D01*
X-13845515Y-9260750D01*
X-13716000Y-9286512D01*
X-13185765Y-9181042D01*
X-12736254Y-8880688D01*
X-12487900Y-8509000D01*
X-6054101Y-8509000D01*
X-5805746Y-8880688D01*
X-5356235Y-9181042D01*
X-4826000Y-9286512D01*
X-4295765Y-9181042D01*
X-3846254Y-8880688D01*
X-3545900Y-8431177D01*
X-3440430Y-7900942D01*
X-3440430Y-10392000D01*
X-25464798Y-10392000D01*
X-25464798Y-5000000D01*
X-25464798Y5000000D01*
X-25609807Y5729012D01*
X-26022760Y6347038D01*
X-26640786Y6759991D01*
X-27369798Y6905000D01*
X-30034202Y6905000D01*
X-30763214Y6759991D01*
X-31381240Y6347038D01*
X-31794193Y5729012D01*
X-31939202Y5000000D01*
X-31794193Y4270988D01*
X-31381240Y3652962D01*
X-30763214Y3240009D01*
X-30034202Y3095000D01*
X-27369798Y3095000D01*
X-26640786Y3240009D01*
X-26022760Y3652962D01*
X-25609807Y4270988D01*
X-25464798Y5000000D01*
X-25464798Y-5000000D01*
X-25609807Y-4270988D01*
X-26022760Y-3652962D01*
X-26640786Y-3240009D01*
X-27369798Y-3095000D01*
X-30034202Y-3095000D01*
X-30763214Y-3240009D01*
X-31381240Y-3652962D01*
X-31794193Y-4270988D01*
X-31939202Y-5000000D01*
X-31794193Y-5729012D01*
X-31381240Y-6347038D01*
X-30763214Y-6759991D01*
X-30034202Y-6905000D01*
X-27369798Y-6905000D01*
X-26640786Y-6759991D01*
X-26022760Y-6347038D01*
X-25609807Y-5729012D01*
X-25464798Y-5000000D01*
X-25464798Y-10392000D01*
X-37230674Y-10392000D01*
X-37230674Y-7246695D01*
X-37230674Y7993305D01*
X-37517043Y8686372D01*
X-38046839Y9217093D01*
X-38739405Y9504672D01*
X-39489305Y9505326D01*
X-40182372Y9218957D01*
X-40713093Y8689161D01*
X-41000672Y7996595D01*
X-41001326Y7246695D01*
X-40714957Y6553628D01*
X-40185161Y6022907D01*
X-39492595Y5735328D01*
X-38742695Y5734674D01*
X-38049628Y6021043D01*
X-37518907Y6550839D01*
X-37231328Y7243405D01*
X-37230674Y7993305D01*
X-37230674Y-7246695D01*
X-37517043Y-6553628D01*
X-38046839Y-6022907D01*
X-38739405Y-5735328D01*
X-39000560Y-5735100D01*
X-39000560Y-4000000D01*
X-39000560Y4000000D01*
X-39108922Y4358572D01*
X-39288865Y4538703D01*
X-42288865Y6538703D01*
X-42639874Y6647389D01*
X-42890123Y6600463D01*
X-43102927Y6460673D01*
X-43245377Y6249640D01*
X-43295440Y6000000D01*
X-43295440Y-6000000D01*
X-43191168Y-6352346D01*
X-43013309Y-6534535D01*
X-42778955Y-6634058D01*
X-42524348Y-6635523D01*
X-42288865Y-6538703D01*
X-39288865Y-4538703D01*
X-39050623Y-4249640D01*
X-39000560Y-4000000D01*
X-39000560Y-5735100D01*
X-39489305Y-5734674D01*
X-40182372Y-6021043D01*
X-40713093Y-6550839D01*
X-41000672Y-7243405D01*
X-41001326Y-7993305D01*
X-40714957Y-8686372D01*
X-40185161Y-9217093D01*
X-39492595Y-9504672D01*
X-38742695Y-9505326D01*
X-38049628Y-9218957D01*
X-37518907Y-8689161D01*
X-37231328Y-7996595D01*
X-37230674Y-7246695D01*
X-37230674Y-10392000D01*
X-39514611Y-10392000D01*
X-41213635Y-10054043D01*
X-42592629Y-9132628D01*
X-43514044Y-7753634D01*
X-43852000Y-6054610D01*
X-43852000Y5800611D01*
X-43514044Y7499635D01*
X-42592629Y8878629D01*
X-41213635Y9800044D01*
X-39514611Y10138000D01*
X19410501Y10138000D01*
X18976907Y9705161D01*
X18689328Y9012595D01*
X18688674Y8262695D01*
X18975043Y7569628D01*
X19504839Y7038907D01*
X20197405Y6751328D01*
X20947305Y6750674D01*
X21640372Y7037043D01*
X22171093Y7566839D01*
X22458672Y8259405D01*
X22459326Y9009305D01*
X22172957Y9702372D01*
X21738088Y10138000D01*
X44340610Y10138000D01*
X46039634Y9800044D01*
X47418628Y8878629D01*
X48340043Y7499635D01*
X48678000Y5800611D01*
X48678000Y-6054610D01*
M02*
