M48
;DRILL file {KiCad 4.0.2+dfsg1-stable} date vie 27 ene 2017 02:05:57 CET
;FORMAT={-:-/ absolute / inch / decimal}
FMAT,2
INCH,TZ
T1C0.020
T2C0.025
T3C0.030
T4C0.031
T5C0.032
T6C0.039
T7C0.043
T8C0.047
T9C0.118
%
G90
G05
M72
T2
X4.59Y-3.5
X4.64Y-3.6
X4.84Y-3.45
X5.14Y-3.6
T3
X3.6469Y-3.1053
X3.715Y-3.2
X3.7847Y-3.1053
X3.8703Y-3.2697
X3.94Y-3.175
X4.0081Y-3.2697
X4.0969Y-3.1053
X4.165Y-3.2
X4.2347Y-3.1053
X4.3203Y-3.2697
X4.39Y-3.175
X4.4581Y-3.2697
T4
X4.465Y-3.4
X4.465Y-3.5
X4.465Y-3.6
X4.465Y-3.7
X4.765Y-3.4
X4.765Y-3.5
X4.765Y-3.6
X4.765Y-3.7
T5
X3.265Y-3.175
X3.365Y-3.175
X4.615Y-3.175
X4.715Y-3.175
T6
X3.94Y-3.4
X3.94Y-3.7
X4.065Y-3.4
X4.065Y-3.7
X4.19Y-3.4
X4.19Y-3.7
X4.315Y-3.4
X4.315Y-3.7
X4.915Y-3.4
X4.915Y-3.7
X5.04Y-3.4
X5.04Y-3.7
T1
X3.3431Y-3.4748G85X3.3431Y-3.4315
G05
X3.4416Y-3.4748G85X3.4416Y-3.4315
G05
X3.5183Y-3.65G85X3.5617Y-3.65
G05
X3.6384Y-3.4748G85X3.6384Y-3.4315
G05
X3.7369Y-3.4748G85X3.7369Y-3.4315
G05
T4
X4.9091Y-3.1711G85X4.9209Y-3.1711
G05
X5.0091Y-3.1711G85X5.0209Y-3.1711
G05
X5.1091Y-3.1711G85X5.1209Y-3.1711
G05
T7
X3.5101Y-3.1329G85X3.5101Y-3.1171
G05
X5.2699Y-3.1329G85X5.2699Y-3.1171
G05
T8
X2.09Y-3.2124G85X2.09Y-3.6376
G05
X2.59Y-3.303G85X2.59Y-3.1533
G05
X2.59Y-3.6967G85X2.59Y-3.547
G05
X5.465Y-3.6376G85X5.465Y-3.2124
G05
T9
X3.0855Y-3.275G85X3.1445Y-3.275
G05
X3.0855Y-3.725G85X3.1445Y-3.725
G05
X5.2605Y-3.275G85X5.3195Y-3.275
G05
X5.2605Y-3.725G85X5.3195Y-3.725
G05
T0
M30
