G04 #@! TF.FileFunction,Copper,L2,Bot,Signal*
%FSLAX46Y46*%
G04 Gerber Fmt 4.6, Leading zero omitted, Abs format (unit mm)*
G04 Created by KiCad (PCBNEW (after 2015-may-01 BZR unknown)-product) date 16/06/2015 22:19:31*
%MOMM*%
G01*
G04 APERTURE LIST*
%ADD10C,0.150000*%
%ADD11R,2.032000X2.032000*%
%ADD12O,2.032000X2.032000*%
%ADD13C,1.501140*%
%ADD14R,1.200000X1.200000*%
%ADD15C,1.200000*%
%ADD16C,1.397000*%
%ADD17O,2.300000X1.600000*%
%ADD18O,1.501140X1.998980*%
%ADD19O,1.998980X1.501140*%
%ADD20C,0.254000*%
G04 APERTURE END LIST*
D10*
D11*
X91948000Y-85598000D03*
D12*
X91948000Y-83058000D03*
D13*
X97282000Y-83058000D03*
X97282000Y-85598000D03*
D14*
X118110000Y-88900000D03*
D15*
X118110000Y-86400000D03*
D13*
X79248000Y-86614000D03*
X79248000Y-89154000D03*
D11*
X129540000Y-89916000D03*
D12*
X129540000Y-87376000D03*
D11*
X84074000Y-84582000D03*
D12*
X86614000Y-84582000D03*
D16*
X124206000Y-91948000D03*
X124206000Y-84328000D03*
X121158000Y-84074000D03*
X121158000Y-91694000D03*
D17*
X103124000Y-83312000D03*
X103124000Y-85852000D03*
X103124000Y-88392000D03*
X103124000Y-90932000D03*
X110744000Y-90932000D03*
X110744000Y-88392000D03*
X110744000Y-85852000D03*
X110744000Y-83312000D03*
D16*
X114808000Y-90678000D03*
X114808000Y-83058000D03*
D18*
X87122000Y-92710000D03*
D19*
X89662000Y-90170000D03*
X84582000Y-90170000D03*
D18*
X96012000Y-92710000D03*
D19*
X98552000Y-90170000D03*
X93472000Y-90170000D03*
D20*
X118110000Y-86400000D02*
X118110000Y-86360000D01*
X89662000Y-90170000D02*
X89662000Y-87884000D01*
X89662000Y-87884000D02*
X91948000Y-85598000D01*
X97282000Y-85598000D02*
X100584000Y-85598000D01*
X100584000Y-85598000D02*
X101346000Y-86360000D01*
X91948000Y-85598000D02*
X97282000Y-85598000D01*
X97282000Y-85598000D02*
X97790000Y-86106000D01*
X110744000Y-83312000D02*
X106172000Y-83312000D01*
X101346000Y-85598000D02*
X101346000Y-86360000D01*
X102362000Y-84582000D02*
X101346000Y-85598000D01*
X104902000Y-84582000D02*
X102362000Y-84582000D01*
X106172000Y-83312000D02*
X104902000Y-84582000D01*
X105156000Y-88900000D02*
X103124000Y-90932000D01*
X105156000Y-88138000D02*
X105156000Y-88900000D01*
X104140000Y-87122000D02*
X105156000Y-88138000D01*
X102108000Y-87122000D02*
X104140000Y-87122000D01*
X101346000Y-86360000D02*
X102108000Y-87122000D01*
X121158000Y-91694000D02*
X121158000Y-91948000D01*
X121158000Y-91948000D02*
X119634000Y-93472000D01*
X119634000Y-93472000D02*
X105664000Y-93472000D01*
X105664000Y-93472000D02*
X103124000Y-90932000D01*
X114808000Y-90678000D02*
X110998000Y-90678000D01*
X110998000Y-90678000D02*
X110744000Y-90932000D01*
X110744000Y-88392000D02*
X108204000Y-88392000D01*
X105664000Y-85852000D02*
X103124000Y-85852000D01*
X108204000Y-88392000D02*
X105664000Y-85852000D01*
X118110000Y-88900000D02*
X119634000Y-88900000D01*
X119634000Y-88900000D02*
X124206000Y-84328000D01*
X110744000Y-88392000D02*
X111506000Y-88392000D01*
X111506000Y-88392000D02*
X112014000Y-88900000D01*
X112014000Y-88900000D02*
X118110000Y-88900000D01*
X79248000Y-86614000D02*
X82042000Y-86614000D01*
X82042000Y-86614000D02*
X84074000Y-84582000D01*
X84582000Y-90170000D02*
X80264000Y-90170000D01*
X80264000Y-90170000D02*
X79248000Y-89154000D01*
X98552000Y-90170000D02*
X98552000Y-93218000D01*
X84582000Y-93472000D02*
X84582000Y-90170000D01*
X86360000Y-95250000D02*
X84582000Y-93472000D01*
X96520000Y-95250000D02*
X86360000Y-95250000D01*
X98552000Y-93218000D02*
X96520000Y-95250000D01*
X129540000Y-89916000D02*
X126238000Y-89916000D01*
X126238000Y-89916000D02*
X124206000Y-91948000D01*
X129540000Y-87376000D02*
X129540000Y-86614000D01*
X129540000Y-86614000D02*
X125476000Y-82550000D01*
X125476000Y-82550000D02*
X122682000Y-82550000D01*
X122682000Y-82550000D02*
X120396000Y-84836000D01*
X120396000Y-84836000D02*
X120396000Y-86360000D01*
X120396000Y-86360000D02*
X119126000Y-87630000D01*
X119126000Y-87630000D02*
X112522000Y-87630000D01*
X112522000Y-87630000D02*
X110744000Y-85852000D01*
X96012000Y-92710000D02*
X87122000Y-92710000D01*
X103124000Y-88392000D02*
X97536000Y-88392000D01*
X96012000Y-89916000D02*
X96012000Y-92710000D01*
X97536000Y-88392000D02*
X96012000Y-89916000D01*
G36*
X131445000Y-96647000D02*
X131223345Y-96647000D01*
X131223345Y-87376000D01*
X131097670Y-86744190D01*
X130739778Y-86208567D01*
X130204155Y-85850675D01*
X129767436Y-85763806D01*
X126014815Y-82011185D01*
X125767605Y-81846004D01*
X125476000Y-81788000D01*
X122682000Y-81788000D01*
X122390395Y-81846004D01*
X122143184Y-82011185D01*
X121413646Y-82740722D01*
X120893914Y-82740269D01*
X120403620Y-82942854D01*
X120028173Y-83317647D01*
X119824732Y-83807587D01*
X119824269Y-84338086D01*
X119826403Y-84343252D01*
X119692004Y-84544395D01*
X119634000Y-84836000D01*
X119634000Y-86044369D01*
X119343340Y-86335028D01*
X119327482Y-86078587D01*
X119198164Y-85766383D01*
X118972735Y-85716870D01*
X118793130Y-85896475D01*
X118793130Y-85537265D01*
X118743617Y-85311836D01*
X118278964Y-85152193D01*
X117788587Y-85182518D01*
X117476383Y-85311836D01*
X117426870Y-85537265D01*
X118110000Y-86220395D01*
X118793130Y-85537265D01*
X118793130Y-85896475D01*
X118289605Y-86400000D01*
X118303747Y-86414142D01*
X118124142Y-86593747D01*
X118110000Y-86579605D01*
X118095857Y-86593747D01*
X117916252Y-86414142D01*
X117930395Y-86400000D01*
X117247265Y-85716870D01*
X117021836Y-85766383D01*
X116862193Y-86231036D01*
X116892518Y-86721413D01*
X116953235Y-86868000D01*
X116153927Y-86868000D01*
X116153927Y-83250520D01*
X116125148Y-82720801D01*
X115977800Y-82365071D01*
X115742188Y-82303417D01*
X115562583Y-82483022D01*
X115562583Y-82123812D01*
X115500929Y-81888200D01*
X115000520Y-81712073D01*
X114470801Y-81740852D01*
X114115071Y-81888200D01*
X114053417Y-82123812D01*
X114808000Y-82878395D01*
X115562583Y-82123812D01*
X115562583Y-82483022D01*
X114987605Y-83058000D01*
X115742188Y-83812583D01*
X115977800Y-83750929D01*
X116153927Y-83250520D01*
X116153927Y-86868000D01*
X115562583Y-86868000D01*
X115562583Y-83992188D01*
X114808000Y-83237605D01*
X114628395Y-83417210D01*
X114628395Y-83058000D01*
X113873812Y-82303417D01*
X113638200Y-82365071D01*
X113462073Y-82865480D01*
X113490852Y-83395199D01*
X113638200Y-83750929D01*
X113873812Y-83812583D01*
X114628395Y-83058000D01*
X114628395Y-83417210D01*
X114053417Y-83992188D01*
X114115071Y-84227800D01*
X114615480Y-84403927D01*
X115145199Y-84375148D01*
X115500929Y-84227800D01*
X115562583Y-83992188D01*
X115562583Y-86868000D01*
X112837630Y-86868000D01*
X112421109Y-86451478D01*
X112454737Y-86401151D01*
X112563970Y-85852000D01*
X112454737Y-85302849D01*
X112143668Y-84837302D01*
X111761582Y-84582000D01*
X112143668Y-84326698D01*
X112454737Y-83861151D01*
X112563970Y-83312000D01*
X112454737Y-82762849D01*
X112143668Y-82297302D01*
X111678121Y-81986233D01*
X111128970Y-81877000D01*
X110359030Y-81877000D01*
X109809879Y-81986233D01*
X109344332Y-82297302D01*
X109175484Y-82550000D01*
X106172000Y-82550000D01*
X105880395Y-82608004D01*
X105633184Y-82773185D01*
X104865904Y-83540464D01*
X104865904Y-82962961D01*
X104848367Y-82880181D01*
X104578500Y-82387104D01*
X104140483Y-82034834D01*
X103601000Y-81877000D01*
X103251000Y-81877000D01*
X103251000Y-83185000D01*
X104743915Y-83185000D01*
X104865904Y-82962961D01*
X104865904Y-83540464D01*
X104823149Y-83583219D01*
X104743915Y-83439000D01*
X103251000Y-83439000D01*
X103251000Y-83459000D01*
X102997000Y-83459000D01*
X102997000Y-83439000D01*
X102997000Y-83185000D01*
X102997000Y-81877000D01*
X102647000Y-81877000D01*
X102107517Y-82034834D01*
X101669500Y-82387104D01*
X101399633Y-82880181D01*
X101382096Y-82962961D01*
X101504085Y-83185000D01*
X102997000Y-83185000D01*
X102997000Y-83439000D01*
X101504085Y-83439000D01*
X101382096Y-83661039D01*
X101399633Y-83743819D01*
X101655342Y-84211027D01*
X100933608Y-84932761D01*
X100875605Y-84894004D01*
X100584000Y-84836000D01*
X98679767Y-84836000D01*
X98679767Y-83262966D01*
X98651805Y-82712462D01*
X98494931Y-82333735D01*
X98253930Y-82265675D01*
X98074325Y-82445280D01*
X98074325Y-82086070D01*
X98006265Y-81845069D01*
X97486966Y-81660233D01*
X96936462Y-81688195D01*
X96557735Y-81845069D01*
X96489675Y-82086070D01*
X97282000Y-82878395D01*
X98074325Y-82086070D01*
X98074325Y-82445280D01*
X97461605Y-83058000D01*
X98253930Y-83850325D01*
X98494931Y-83782265D01*
X98679767Y-83262966D01*
X98679767Y-84836000D01*
X98466336Y-84836000D01*
X98457314Y-84814163D01*
X98067887Y-84424056D01*
X97852503Y-84334621D01*
X98006265Y-84270931D01*
X98074325Y-84029930D01*
X97282000Y-83237605D01*
X97102395Y-83417210D01*
X97102395Y-83058000D01*
X96310070Y-82265675D01*
X96069069Y-82333735D01*
X95884233Y-82853034D01*
X95912195Y-83403538D01*
X96069069Y-83782265D01*
X96310070Y-83850325D01*
X97102395Y-83058000D01*
X97102395Y-83417210D01*
X96489675Y-84029930D01*
X96557735Y-84270931D01*
X96723040Y-84329768D01*
X96498163Y-84422686D01*
X96108056Y-84812113D01*
X96098137Y-84836000D01*
X93611440Y-84836000D01*
X93611440Y-84582000D01*
X93564463Y-84339877D01*
X93424673Y-84127073D01*
X93264956Y-84019262D01*
X93354385Y-83922818D01*
X93553975Y-83440944D01*
X93553975Y-82675056D01*
X93354385Y-82193182D01*
X92916379Y-81720812D01*
X92330946Y-81452017D01*
X92075000Y-81570633D01*
X92075000Y-82931000D01*
X93434836Y-82931000D01*
X93553975Y-82675056D01*
X93553975Y-83440944D01*
X93434836Y-83185000D01*
X92075000Y-83185000D01*
X92075000Y-83205000D01*
X91821000Y-83205000D01*
X91821000Y-83185000D01*
X91821000Y-82931000D01*
X91821000Y-81570633D01*
X91565054Y-81452017D01*
X90979621Y-81720812D01*
X90541615Y-82193182D01*
X90342025Y-82675056D01*
X90461164Y-82931000D01*
X91821000Y-82931000D01*
X91821000Y-83185000D01*
X90461164Y-83185000D01*
X90342025Y-83440944D01*
X90541615Y-83922818D01*
X90631574Y-84019835D01*
X90477073Y-84121327D01*
X90334623Y-84332360D01*
X90284560Y-84582000D01*
X90284560Y-86183809D01*
X89123185Y-87345185D01*
X88958004Y-87592395D01*
X88900000Y-87884000D01*
X88900000Y-88880118D01*
X88850823Y-88889900D01*
X88401312Y-89190254D01*
X88219983Y-89461631D01*
X88219983Y-84964946D01*
X88219983Y-84199054D01*
X87951188Y-83613621D01*
X87478818Y-83175615D01*
X86996944Y-82976025D01*
X86741000Y-83095164D01*
X86741000Y-84455000D01*
X88101367Y-84455000D01*
X88219983Y-84199054D01*
X88219983Y-84964946D01*
X88101367Y-84709000D01*
X86741000Y-84709000D01*
X86741000Y-86068836D01*
X86996944Y-86187975D01*
X87478818Y-85988385D01*
X87951188Y-85550379D01*
X88219983Y-84964946D01*
X88219983Y-89461631D01*
X88100958Y-89639765D01*
X87995488Y-90170000D01*
X88100958Y-90700235D01*
X88401312Y-91149746D01*
X88850823Y-91450100D01*
X89381058Y-91555570D01*
X89942942Y-91555570D01*
X90473177Y-91450100D01*
X90922688Y-91149746D01*
X91223042Y-90700235D01*
X91328512Y-90170000D01*
X91223042Y-89639765D01*
X90922688Y-89190254D01*
X90473177Y-88889900D01*
X90424000Y-88880118D01*
X90424000Y-88199630D01*
X91362190Y-87261440D01*
X92964000Y-87261440D01*
X93206123Y-87214463D01*
X93418927Y-87074673D01*
X93561377Y-86863640D01*
X93611440Y-86614000D01*
X93611440Y-86360000D01*
X96097663Y-86360000D01*
X96106686Y-86381837D01*
X96496113Y-86771944D01*
X97005184Y-86983329D01*
X97556398Y-86983810D01*
X97880015Y-86850094D01*
X98081604Y-86809996D01*
X98328815Y-86644815D01*
X98493996Y-86397604D01*
X98501475Y-86360000D01*
X100268369Y-86360000D01*
X100807185Y-86898816D01*
X100807188Y-86898818D01*
X101538369Y-87630000D01*
X97536000Y-87630000D01*
X97244395Y-87688004D01*
X96997184Y-87853185D01*
X95473185Y-89377185D01*
X95308004Y-89624395D01*
X95250000Y-89916000D01*
X95250000Y-91303818D01*
X95063803Y-91428231D01*
X95063803Y-90511275D01*
X95063803Y-89828725D01*
X95045157Y-89726695D01*
X94774710Y-89253676D01*
X94343833Y-88920159D01*
X93818123Y-88776919D01*
X93599000Y-88937614D01*
X93599000Y-90043000D01*
X94941149Y-90043000D01*
X95063803Y-89828725D01*
X95063803Y-90511275D01*
X94941149Y-90297000D01*
X93599000Y-90297000D01*
X93599000Y-91402386D01*
X93818123Y-91563081D01*
X94343833Y-91419841D01*
X94774710Y-91086324D01*
X95045157Y-90613305D01*
X95063803Y-90511275D01*
X95063803Y-91428231D01*
X95032254Y-91449312D01*
X94731900Y-91898823D01*
X94722118Y-91948000D01*
X93345000Y-91948000D01*
X93345000Y-91402386D01*
X93345000Y-90297000D01*
X93345000Y-90043000D01*
X93345000Y-88937614D01*
X93125877Y-88776919D01*
X92600167Y-88920159D01*
X92169290Y-89253676D01*
X91898843Y-89726695D01*
X91880197Y-89828725D01*
X92002851Y-90043000D01*
X93345000Y-90043000D01*
X93345000Y-90297000D01*
X92002851Y-90297000D01*
X91880197Y-90511275D01*
X91898843Y-90613305D01*
X92169290Y-91086324D01*
X92600167Y-91419841D01*
X93125877Y-91563081D01*
X93345000Y-91402386D01*
X93345000Y-91948000D01*
X88411881Y-91948000D01*
X88402100Y-91898823D01*
X88101746Y-91449312D01*
X87652235Y-91148958D01*
X87122000Y-91043488D01*
X86591765Y-91148958D01*
X86142254Y-91449312D01*
X85841900Y-91898823D01*
X85736430Y-92429058D01*
X85736430Y-92990942D01*
X85841900Y-93521177D01*
X86109905Y-93922274D01*
X85344000Y-93156369D01*
X85344000Y-91459881D01*
X85393177Y-91450100D01*
X85842688Y-91149746D01*
X86143042Y-90700235D01*
X86248512Y-90170000D01*
X86143042Y-89639765D01*
X85842688Y-89190254D01*
X85393177Y-88889900D01*
X84862942Y-88784430D01*
X84301058Y-88784430D01*
X83770823Y-88889900D01*
X83321312Y-89190254D01*
X83175818Y-89408000D01*
X80633348Y-89408000D01*
X80633810Y-88879602D01*
X80423314Y-88370163D01*
X80033887Y-87980056D01*
X79802618Y-87884025D01*
X80031837Y-87789314D01*
X80421944Y-87399887D01*
X80431862Y-87376000D01*
X82042000Y-87376000D01*
X82042000Y-87375999D01*
X82333604Y-87317996D01*
X82333605Y-87317996D01*
X82580815Y-87152815D01*
X83488190Y-86245440D01*
X85090000Y-86245440D01*
X85332123Y-86198463D01*
X85544927Y-86058673D01*
X85652737Y-85898956D01*
X85749182Y-85988385D01*
X86231056Y-86187975D01*
X86487000Y-86068836D01*
X86487000Y-84709000D01*
X86467000Y-84709000D01*
X86467000Y-84455000D01*
X86487000Y-84455000D01*
X86487000Y-83095164D01*
X86231056Y-82976025D01*
X85749182Y-83175615D01*
X85652164Y-83265574D01*
X85550673Y-83111073D01*
X85339640Y-82968623D01*
X85090000Y-82918560D01*
X83058000Y-82918560D01*
X82815877Y-82965537D01*
X82603073Y-83105327D01*
X82460623Y-83316360D01*
X82410560Y-83566000D01*
X82410560Y-85167810D01*
X81726370Y-85852000D01*
X80432336Y-85852000D01*
X80423314Y-85830163D01*
X80033887Y-85440056D01*
X79524816Y-85228671D01*
X78973602Y-85228190D01*
X78464163Y-85438686D01*
X78074056Y-85828113D01*
X77862671Y-86337184D01*
X77862190Y-86888398D01*
X78072686Y-87397837D01*
X78462113Y-87787944D01*
X78693381Y-87883974D01*
X78464163Y-87978686D01*
X78074056Y-88368113D01*
X77862671Y-88877184D01*
X77862190Y-89428398D01*
X78072686Y-89937837D01*
X78462113Y-90327944D01*
X78971184Y-90539329D01*
X79522398Y-90539810D01*
X79546302Y-90529932D01*
X79725185Y-90708815D01*
X79972395Y-90873996D01*
X79972396Y-90873996D01*
X80264000Y-90932000D01*
X83175818Y-90932000D01*
X83321312Y-91149746D01*
X83770823Y-91450100D01*
X83820000Y-91459881D01*
X83820000Y-93472000D01*
X83878004Y-93763605D01*
X84043185Y-94010815D01*
X85821185Y-95788816D01*
X85969376Y-95887834D01*
X86068395Y-95953996D01*
X86068396Y-95953996D01*
X86360000Y-96012000D01*
X96520000Y-96012000D01*
X96520000Y-96011999D01*
X96811604Y-95953996D01*
X96811605Y-95953996D01*
X97058815Y-95788815D01*
X99090815Y-93756815D01*
X99255996Y-93509605D01*
X99255996Y-93509604D01*
X99314000Y-93218000D01*
X99314000Y-91459881D01*
X99363177Y-91450100D01*
X99812688Y-91149746D01*
X100113042Y-90700235D01*
X100218512Y-90170000D01*
X100113042Y-89639765D01*
X99812688Y-89190254D01*
X99758430Y-89154000D01*
X101555484Y-89154000D01*
X101724332Y-89406698D01*
X102106417Y-89662000D01*
X101724332Y-89917302D01*
X101413263Y-90382849D01*
X101304030Y-90932000D01*
X101413263Y-91481151D01*
X101724332Y-91946698D01*
X102189879Y-92257767D01*
X102739030Y-92367000D01*
X103481369Y-92367000D01*
X105125184Y-94010815D01*
X105125185Y-94010815D01*
X105372395Y-94175996D01*
X105664000Y-94234000D01*
X119634000Y-94234000D01*
X119634000Y-94233999D01*
X119925604Y-94175996D01*
X119925605Y-94175996D01*
X120172815Y-94010815D01*
X121156131Y-93027498D01*
X121422086Y-93027731D01*
X121912380Y-92825146D01*
X122287827Y-92450353D01*
X122491268Y-91960413D01*
X122491731Y-91429914D01*
X122289146Y-90939620D01*
X121914353Y-90564173D01*
X121424413Y-90360732D01*
X120893914Y-90360269D01*
X120403620Y-90562854D01*
X120028173Y-90937647D01*
X119824732Y-91427587D01*
X119824269Y-91958086D01*
X119896199Y-92132170D01*
X119318369Y-92710000D01*
X105979630Y-92710000D01*
X104801109Y-91531478D01*
X104834737Y-91481151D01*
X104943970Y-90932000D01*
X104834737Y-90382849D01*
X104801108Y-90332521D01*
X105694815Y-89438815D01*
X105859996Y-89191605D01*
X105859996Y-89191604D01*
X105918000Y-88900000D01*
X105918000Y-88138000D01*
X105859996Y-87846396D01*
X105859996Y-87846395D01*
X105694815Y-87599185D01*
X104709630Y-86614000D01*
X105348369Y-86614000D01*
X107665184Y-88930815D01*
X107665185Y-88930815D01*
X107912395Y-89095996D01*
X108204000Y-89154000D01*
X109175484Y-89154000D01*
X109344332Y-89406698D01*
X109726417Y-89662000D01*
X109344332Y-89917302D01*
X109033263Y-90382849D01*
X108924030Y-90932000D01*
X109033263Y-91481151D01*
X109344332Y-91946698D01*
X109809879Y-92257767D01*
X110359030Y-92367000D01*
X111128970Y-92367000D01*
X111678121Y-92257767D01*
X112143668Y-91946698D01*
X112454737Y-91481151D01*
X112462922Y-91440000D01*
X113684460Y-91440000D01*
X114051647Y-91807827D01*
X114541587Y-92011268D01*
X115072086Y-92011731D01*
X115562380Y-91809146D01*
X115937827Y-91434353D01*
X116141268Y-90944413D01*
X116141731Y-90413914D01*
X115939146Y-89923620D01*
X115677981Y-89662000D01*
X116893991Y-89662000D01*
X116909537Y-89742123D01*
X117049327Y-89954927D01*
X117260360Y-90097377D01*
X117510000Y-90147440D01*
X118710000Y-90147440D01*
X118952123Y-90100463D01*
X119164927Y-89960673D01*
X119307377Y-89749640D01*
X119324952Y-89662000D01*
X119634000Y-89662000D01*
X119634000Y-89661999D01*
X119925604Y-89603996D01*
X119925605Y-89603996D01*
X120172815Y-89438815D01*
X123950353Y-85661277D01*
X124470086Y-85661731D01*
X124960380Y-85459146D01*
X125335827Y-85084353D01*
X125539268Y-84594413D01*
X125539731Y-84063914D01*
X125337146Y-83573620D01*
X125075981Y-83312000D01*
X125160370Y-83312000D01*
X128226753Y-86378383D01*
X127982330Y-86744190D01*
X127856655Y-87376000D01*
X127982330Y-88007810D01*
X128209169Y-88347298D01*
X128069073Y-88439327D01*
X127926623Y-88650360D01*
X127876560Y-88900000D01*
X127876560Y-89154000D01*
X126238000Y-89154000D01*
X125946395Y-89212004D01*
X125699185Y-89377185D01*
X124461647Y-90614722D01*
X123941914Y-90614269D01*
X123451620Y-90816854D01*
X123076173Y-91191647D01*
X122872732Y-91681587D01*
X122872269Y-92212086D01*
X123074854Y-92702380D01*
X123449647Y-93077827D01*
X123939587Y-93281268D01*
X124470086Y-93281731D01*
X124960380Y-93079146D01*
X125335827Y-92704353D01*
X125539268Y-92214413D01*
X125539724Y-91691905D01*
X126553630Y-90678000D01*
X127876560Y-90678000D01*
X127876560Y-90932000D01*
X127923537Y-91174123D01*
X128063327Y-91386927D01*
X128274360Y-91529377D01*
X128524000Y-91579440D01*
X130556000Y-91579440D01*
X130798123Y-91532463D01*
X131010927Y-91392673D01*
X131153377Y-91181640D01*
X131203440Y-90932000D01*
X131203440Y-88900000D01*
X131156463Y-88657877D01*
X131016673Y-88445073D01*
X130871139Y-88346836D01*
X131097670Y-88007810D01*
X131223345Y-87376000D01*
X131223345Y-96647000D01*
X76073000Y-96647000D01*
X76073000Y-80645000D01*
X131445000Y-80645000D01*
X131445000Y-96647000D01*
X131445000Y-96647000D01*
G37*
X131445000Y-96647000D02*
X131223345Y-96647000D01*
X131223345Y-87376000D01*
X131097670Y-86744190D01*
X130739778Y-86208567D01*
X130204155Y-85850675D01*
X129767436Y-85763806D01*
X126014815Y-82011185D01*
X125767605Y-81846004D01*
X125476000Y-81788000D01*
X122682000Y-81788000D01*
X122390395Y-81846004D01*
X122143184Y-82011185D01*
X121413646Y-82740722D01*
X120893914Y-82740269D01*
X120403620Y-82942854D01*
X120028173Y-83317647D01*
X119824732Y-83807587D01*
X119824269Y-84338086D01*
X119826403Y-84343252D01*
X119692004Y-84544395D01*
X119634000Y-84836000D01*
X119634000Y-86044369D01*
X119343340Y-86335028D01*
X119327482Y-86078587D01*
X119198164Y-85766383D01*
X118972735Y-85716870D01*
X118793130Y-85896475D01*
X118793130Y-85537265D01*
X118743617Y-85311836D01*
X118278964Y-85152193D01*
X117788587Y-85182518D01*
X117476383Y-85311836D01*
X117426870Y-85537265D01*
X118110000Y-86220395D01*
X118793130Y-85537265D01*
X118793130Y-85896475D01*
X118289605Y-86400000D01*
X118303747Y-86414142D01*
X118124142Y-86593747D01*
X118110000Y-86579605D01*
X118095857Y-86593747D01*
X117916252Y-86414142D01*
X117930395Y-86400000D01*
X117247265Y-85716870D01*
X117021836Y-85766383D01*
X116862193Y-86231036D01*
X116892518Y-86721413D01*
X116953235Y-86868000D01*
X116153927Y-86868000D01*
X116153927Y-83250520D01*
X116125148Y-82720801D01*
X115977800Y-82365071D01*
X115742188Y-82303417D01*
X115562583Y-82483022D01*
X115562583Y-82123812D01*
X115500929Y-81888200D01*
X115000520Y-81712073D01*
X114470801Y-81740852D01*
X114115071Y-81888200D01*
X114053417Y-82123812D01*
X114808000Y-82878395D01*
X115562583Y-82123812D01*
X115562583Y-82483022D01*
X114987605Y-83058000D01*
X115742188Y-83812583D01*
X115977800Y-83750929D01*
X116153927Y-83250520D01*
X116153927Y-86868000D01*
X115562583Y-86868000D01*
X115562583Y-83992188D01*
X114808000Y-83237605D01*
X114628395Y-83417210D01*
X114628395Y-83058000D01*
X113873812Y-82303417D01*
X113638200Y-82365071D01*
X113462073Y-82865480D01*
X113490852Y-83395199D01*
X113638200Y-83750929D01*
X113873812Y-83812583D01*
X114628395Y-83058000D01*
X114628395Y-83417210D01*
X114053417Y-83992188D01*
X114115071Y-84227800D01*
X114615480Y-84403927D01*
X115145199Y-84375148D01*
X115500929Y-84227800D01*
X115562583Y-83992188D01*
X115562583Y-86868000D01*
X112837630Y-86868000D01*
X112421109Y-86451478D01*
X112454737Y-86401151D01*
X112563970Y-85852000D01*
X112454737Y-85302849D01*
X112143668Y-84837302D01*
X111761582Y-84582000D01*
X112143668Y-84326698D01*
X112454737Y-83861151D01*
X112563970Y-83312000D01*
X112454737Y-82762849D01*
X112143668Y-82297302D01*
X111678121Y-81986233D01*
X111128970Y-81877000D01*
X110359030Y-81877000D01*
X109809879Y-81986233D01*
X109344332Y-82297302D01*
X109175484Y-82550000D01*
X106172000Y-82550000D01*
X105880395Y-82608004D01*
X105633184Y-82773185D01*
X104865904Y-83540464D01*
X104865904Y-82962961D01*
X104848367Y-82880181D01*
X104578500Y-82387104D01*
X104140483Y-82034834D01*
X103601000Y-81877000D01*
X103251000Y-81877000D01*
X103251000Y-83185000D01*
X104743915Y-83185000D01*
X104865904Y-82962961D01*
X104865904Y-83540464D01*
X104823149Y-83583219D01*
X104743915Y-83439000D01*
X103251000Y-83439000D01*
X103251000Y-83459000D01*
X102997000Y-83459000D01*
X102997000Y-83439000D01*
X102997000Y-83185000D01*
X102997000Y-81877000D01*
X102647000Y-81877000D01*
X102107517Y-82034834D01*
X101669500Y-82387104D01*
X101399633Y-82880181D01*
X101382096Y-82962961D01*
X101504085Y-83185000D01*
X102997000Y-83185000D01*
X102997000Y-83439000D01*
X101504085Y-83439000D01*
X101382096Y-83661039D01*
X101399633Y-83743819D01*
X101655342Y-84211027D01*
X100933608Y-84932761D01*
X100875605Y-84894004D01*
X100584000Y-84836000D01*
X98679767Y-84836000D01*
X98679767Y-83262966D01*
X98651805Y-82712462D01*
X98494931Y-82333735D01*
X98253930Y-82265675D01*
X98074325Y-82445280D01*
X98074325Y-82086070D01*
X98006265Y-81845069D01*
X97486966Y-81660233D01*
X96936462Y-81688195D01*
X96557735Y-81845069D01*
X96489675Y-82086070D01*
X97282000Y-82878395D01*
X98074325Y-82086070D01*
X98074325Y-82445280D01*
X97461605Y-83058000D01*
X98253930Y-83850325D01*
X98494931Y-83782265D01*
X98679767Y-83262966D01*
X98679767Y-84836000D01*
X98466336Y-84836000D01*
X98457314Y-84814163D01*
X98067887Y-84424056D01*
X97852503Y-84334621D01*
X98006265Y-84270931D01*
X98074325Y-84029930D01*
X97282000Y-83237605D01*
X97102395Y-83417210D01*
X97102395Y-83058000D01*
X96310070Y-82265675D01*
X96069069Y-82333735D01*
X95884233Y-82853034D01*
X95912195Y-83403538D01*
X96069069Y-83782265D01*
X96310070Y-83850325D01*
X97102395Y-83058000D01*
X97102395Y-83417210D01*
X96489675Y-84029930D01*
X96557735Y-84270931D01*
X96723040Y-84329768D01*
X96498163Y-84422686D01*
X96108056Y-84812113D01*
X96098137Y-84836000D01*
X93611440Y-84836000D01*
X93611440Y-84582000D01*
X93564463Y-84339877D01*
X93424673Y-84127073D01*
X93264956Y-84019262D01*
X93354385Y-83922818D01*
X93553975Y-83440944D01*
X93553975Y-82675056D01*
X93354385Y-82193182D01*
X92916379Y-81720812D01*
X92330946Y-81452017D01*
X92075000Y-81570633D01*
X92075000Y-82931000D01*
X93434836Y-82931000D01*
X93553975Y-82675056D01*
X93553975Y-83440944D01*
X93434836Y-83185000D01*
X92075000Y-83185000D01*
X92075000Y-83205000D01*
X91821000Y-83205000D01*
X91821000Y-83185000D01*
X91821000Y-82931000D01*
X91821000Y-81570633D01*
X91565054Y-81452017D01*
X90979621Y-81720812D01*
X90541615Y-82193182D01*
X90342025Y-82675056D01*
X90461164Y-82931000D01*
X91821000Y-82931000D01*
X91821000Y-83185000D01*
X90461164Y-83185000D01*
X90342025Y-83440944D01*
X90541615Y-83922818D01*
X90631574Y-84019835D01*
X90477073Y-84121327D01*
X90334623Y-84332360D01*
X90284560Y-84582000D01*
X90284560Y-86183809D01*
X89123185Y-87345185D01*
X88958004Y-87592395D01*
X88900000Y-87884000D01*
X88900000Y-88880118D01*
X88850823Y-88889900D01*
X88401312Y-89190254D01*
X88219983Y-89461631D01*
X88219983Y-84964946D01*
X88219983Y-84199054D01*
X87951188Y-83613621D01*
X87478818Y-83175615D01*
X86996944Y-82976025D01*
X86741000Y-83095164D01*
X86741000Y-84455000D01*
X88101367Y-84455000D01*
X88219983Y-84199054D01*
X88219983Y-84964946D01*
X88101367Y-84709000D01*
X86741000Y-84709000D01*
X86741000Y-86068836D01*
X86996944Y-86187975D01*
X87478818Y-85988385D01*
X87951188Y-85550379D01*
X88219983Y-84964946D01*
X88219983Y-89461631D01*
X88100958Y-89639765D01*
X87995488Y-90170000D01*
X88100958Y-90700235D01*
X88401312Y-91149746D01*
X88850823Y-91450100D01*
X89381058Y-91555570D01*
X89942942Y-91555570D01*
X90473177Y-91450100D01*
X90922688Y-91149746D01*
X91223042Y-90700235D01*
X91328512Y-90170000D01*
X91223042Y-89639765D01*
X90922688Y-89190254D01*
X90473177Y-88889900D01*
X90424000Y-88880118D01*
X90424000Y-88199630D01*
X91362190Y-87261440D01*
X92964000Y-87261440D01*
X93206123Y-87214463D01*
X93418927Y-87074673D01*
X93561377Y-86863640D01*
X93611440Y-86614000D01*
X93611440Y-86360000D01*
X96097663Y-86360000D01*
X96106686Y-86381837D01*
X96496113Y-86771944D01*
X97005184Y-86983329D01*
X97556398Y-86983810D01*
X97880015Y-86850094D01*
X98081604Y-86809996D01*
X98328815Y-86644815D01*
X98493996Y-86397604D01*
X98501475Y-86360000D01*
X100268369Y-86360000D01*
X100807185Y-86898816D01*
X100807188Y-86898818D01*
X101538369Y-87630000D01*
X97536000Y-87630000D01*
X97244395Y-87688004D01*
X96997184Y-87853185D01*
X95473185Y-89377185D01*
X95308004Y-89624395D01*
X95250000Y-89916000D01*
X95250000Y-91303818D01*
X95063803Y-91428231D01*
X95063803Y-90511275D01*
X95063803Y-89828725D01*
X95045157Y-89726695D01*
X94774710Y-89253676D01*
X94343833Y-88920159D01*
X93818123Y-88776919D01*
X93599000Y-88937614D01*
X93599000Y-90043000D01*
X94941149Y-90043000D01*
X95063803Y-89828725D01*
X95063803Y-90511275D01*
X94941149Y-90297000D01*
X93599000Y-90297000D01*
X93599000Y-91402386D01*
X93818123Y-91563081D01*
X94343833Y-91419841D01*
X94774710Y-91086324D01*
X95045157Y-90613305D01*
X95063803Y-90511275D01*
X95063803Y-91428231D01*
X95032254Y-91449312D01*
X94731900Y-91898823D01*
X94722118Y-91948000D01*
X93345000Y-91948000D01*
X93345000Y-91402386D01*
X93345000Y-90297000D01*
X93345000Y-90043000D01*
X93345000Y-88937614D01*
X93125877Y-88776919D01*
X92600167Y-88920159D01*
X92169290Y-89253676D01*
X91898843Y-89726695D01*
X91880197Y-89828725D01*
X92002851Y-90043000D01*
X93345000Y-90043000D01*
X93345000Y-90297000D01*
X92002851Y-90297000D01*
X91880197Y-90511275D01*
X91898843Y-90613305D01*
X92169290Y-91086324D01*
X92600167Y-91419841D01*
X93125877Y-91563081D01*
X93345000Y-91402386D01*
X93345000Y-91948000D01*
X88411881Y-91948000D01*
X88402100Y-91898823D01*
X88101746Y-91449312D01*
X87652235Y-91148958D01*
X87122000Y-91043488D01*
X86591765Y-91148958D01*
X86142254Y-91449312D01*
X85841900Y-91898823D01*
X85736430Y-92429058D01*
X85736430Y-92990942D01*
X85841900Y-93521177D01*
X86109905Y-93922274D01*
X85344000Y-93156369D01*
X85344000Y-91459881D01*
X85393177Y-91450100D01*
X85842688Y-91149746D01*
X86143042Y-90700235D01*
X86248512Y-90170000D01*
X86143042Y-89639765D01*
X85842688Y-89190254D01*
X85393177Y-88889900D01*
X84862942Y-88784430D01*
X84301058Y-88784430D01*
X83770823Y-88889900D01*
X83321312Y-89190254D01*
X83175818Y-89408000D01*
X80633348Y-89408000D01*
X80633810Y-88879602D01*
X80423314Y-88370163D01*
X80033887Y-87980056D01*
X79802618Y-87884025D01*
X80031837Y-87789314D01*
X80421944Y-87399887D01*
X80431862Y-87376000D01*
X82042000Y-87376000D01*
X82042000Y-87375999D01*
X82333604Y-87317996D01*
X82333605Y-87317996D01*
X82580815Y-87152815D01*
X83488190Y-86245440D01*
X85090000Y-86245440D01*
X85332123Y-86198463D01*
X85544927Y-86058673D01*
X85652737Y-85898956D01*
X85749182Y-85988385D01*
X86231056Y-86187975D01*
X86487000Y-86068836D01*
X86487000Y-84709000D01*
X86467000Y-84709000D01*
X86467000Y-84455000D01*
X86487000Y-84455000D01*
X86487000Y-83095164D01*
X86231056Y-82976025D01*
X85749182Y-83175615D01*
X85652164Y-83265574D01*
X85550673Y-83111073D01*
X85339640Y-82968623D01*
X85090000Y-82918560D01*
X83058000Y-82918560D01*
X82815877Y-82965537D01*
X82603073Y-83105327D01*
X82460623Y-83316360D01*
X82410560Y-83566000D01*
X82410560Y-85167810D01*
X81726370Y-85852000D01*
X80432336Y-85852000D01*
X80423314Y-85830163D01*
X80033887Y-85440056D01*
X79524816Y-85228671D01*
X78973602Y-85228190D01*
X78464163Y-85438686D01*
X78074056Y-85828113D01*
X77862671Y-86337184D01*
X77862190Y-86888398D01*
X78072686Y-87397837D01*
X78462113Y-87787944D01*
X78693381Y-87883974D01*
X78464163Y-87978686D01*
X78074056Y-88368113D01*
X77862671Y-88877184D01*
X77862190Y-89428398D01*
X78072686Y-89937837D01*
X78462113Y-90327944D01*
X78971184Y-90539329D01*
X79522398Y-90539810D01*
X79546302Y-90529932D01*
X79725185Y-90708815D01*
X79972395Y-90873996D01*
X79972396Y-90873996D01*
X80264000Y-90932000D01*
X83175818Y-90932000D01*
X83321312Y-91149746D01*
X83770823Y-91450100D01*
X83820000Y-91459881D01*
X83820000Y-93472000D01*
X83878004Y-93763605D01*
X84043185Y-94010815D01*
X85821185Y-95788816D01*
X85969376Y-95887834D01*
X86068395Y-95953996D01*
X86068396Y-95953996D01*
X86360000Y-96012000D01*
X96520000Y-96012000D01*
X96520000Y-96011999D01*
X96811604Y-95953996D01*
X96811605Y-95953996D01*
X97058815Y-95788815D01*
X99090815Y-93756815D01*
X99255996Y-93509605D01*
X99255996Y-93509604D01*
X99314000Y-93218000D01*
X99314000Y-91459881D01*
X99363177Y-91450100D01*
X99812688Y-91149746D01*
X100113042Y-90700235D01*
X100218512Y-90170000D01*
X100113042Y-89639765D01*
X99812688Y-89190254D01*
X99758430Y-89154000D01*
X101555484Y-89154000D01*
X101724332Y-89406698D01*
X102106417Y-89662000D01*
X101724332Y-89917302D01*
X101413263Y-90382849D01*
X101304030Y-90932000D01*
X101413263Y-91481151D01*
X101724332Y-91946698D01*
X102189879Y-92257767D01*
X102739030Y-92367000D01*
X103481369Y-92367000D01*
X105125184Y-94010815D01*
X105125185Y-94010815D01*
X105372395Y-94175996D01*
X105664000Y-94234000D01*
X119634000Y-94234000D01*
X119634000Y-94233999D01*
X119925604Y-94175996D01*
X119925605Y-94175996D01*
X120172815Y-94010815D01*
X121156131Y-93027498D01*
X121422086Y-93027731D01*
X121912380Y-92825146D01*
X122287827Y-92450353D01*
X122491268Y-91960413D01*
X122491731Y-91429914D01*
X122289146Y-90939620D01*
X121914353Y-90564173D01*
X121424413Y-90360732D01*
X120893914Y-90360269D01*
X120403620Y-90562854D01*
X120028173Y-90937647D01*
X119824732Y-91427587D01*
X119824269Y-91958086D01*
X119896199Y-92132170D01*
X119318369Y-92710000D01*
X105979630Y-92710000D01*
X104801109Y-91531478D01*
X104834737Y-91481151D01*
X104943970Y-90932000D01*
X104834737Y-90382849D01*
X104801108Y-90332521D01*
X105694815Y-89438815D01*
X105859996Y-89191605D01*
X105859996Y-89191604D01*
X105918000Y-88900000D01*
X105918000Y-88138000D01*
X105859996Y-87846396D01*
X105859996Y-87846395D01*
X105694815Y-87599185D01*
X104709630Y-86614000D01*
X105348369Y-86614000D01*
X107665184Y-88930815D01*
X107665185Y-88930815D01*
X107912395Y-89095996D01*
X108204000Y-89154000D01*
X109175484Y-89154000D01*
X109344332Y-89406698D01*
X109726417Y-89662000D01*
X109344332Y-89917302D01*
X109033263Y-90382849D01*
X108924030Y-90932000D01*
X109033263Y-91481151D01*
X109344332Y-91946698D01*
X109809879Y-92257767D01*
X110359030Y-92367000D01*
X111128970Y-92367000D01*
X111678121Y-92257767D01*
X112143668Y-91946698D01*
X112454737Y-91481151D01*
X112462922Y-91440000D01*
X113684460Y-91440000D01*
X114051647Y-91807827D01*
X114541587Y-92011268D01*
X115072086Y-92011731D01*
X115562380Y-91809146D01*
X115937827Y-91434353D01*
X116141268Y-90944413D01*
X116141731Y-90413914D01*
X115939146Y-89923620D01*
X115677981Y-89662000D01*
X116893991Y-89662000D01*
X116909537Y-89742123D01*
X117049327Y-89954927D01*
X117260360Y-90097377D01*
X117510000Y-90147440D01*
X118710000Y-90147440D01*
X118952123Y-90100463D01*
X119164927Y-89960673D01*
X119307377Y-89749640D01*
X119324952Y-89662000D01*
X119634000Y-89662000D01*
X119634000Y-89661999D01*
X119925604Y-89603996D01*
X119925605Y-89603996D01*
X120172815Y-89438815D01*
X123950353Y-85661277D01*
X124470086Y-85661731D01*
X124960380Y-85459146D01*
X125335827Y-85084353D01*
X125539268Y-84594413D01*
X125539731Y-84063914D01*
X125337146Y-83573620D01*
X125075981Y-83312000D01*
X125160370Y-83312000D01*
X128226753Y-86378383D01*
X127982330Y-86744190D01*
X127856655Y-87376000D01*
X127982330Y-88007810D01*
X128209169Y-88347298D01*
X128069073Y-88439327D01*
X127926623Y-88650360D01*
X127876560Y-88900000D01*
X127876560Y-89154000D01*
X126238000Y-89154000D01*
X125946395Y-89212004D01*
X125699185Y-89377185D01*
X124461647Y-90614722D01*
X123941914Y-90614269D01*
X123451620Y-90816854D01*
X123076173Y-91191647D01*
X122872732Y-91681587D01*
X122872269Y-92212086D01*
X123074854Y-92702380D01*
X123449647Y-93077827D01*
X123939587Y-93281268D01*
X124470086Y-93281731D01*
X124960380Y-93079146D01*
X125335827Y-92704353D01*
X125539268Y-92214413D01*
X125539724Y-91691905D01*
X126553630Y-90678000D01*
X127876560Y-90678000D01*
X127876560Y-90932000D01*
X127923537Y-91174123D01*
X128063327Y-91386927D01*
X128274360Y-91529377D01*
X128524000Y-91579440D01*
X130556000Y-91579440D01*
X130798123Y-91532463D01*
X131010927Y-91392673D01*
X131153377Y-91181640D01*
X131203440Y-90932000D01*
X131203440Y-88900000D01*
X131156463Y-88657877D01*
X131016673Y-88445073D01*
X130871139Y-88346836D01*
X131097670Y-88007810D01*
X131223345Y-87376000D01*
X131223345Y-96647000D01*
X76073000Y-96647000D01*
X76073000Y-80645000D01*
X131445000Y-80645000D01*
X131445000Y-96647000D01*
M02*
