G04 #@! TF.FileFunction,Copper,L2,Bot,Signal*
%FSLAX46Y46*%
G04 Gerber Fmt 4.6, Leading zero omitted, Abs format (unit mm)*
G04 Created by KiCad (PCBNEW (after 2015-may-01 BZR unknown)-product) date 28/10/2015 1:31:10*
%MOMM*%
G01*
G04 APERTURE LIST*
%ADD10C,0.150000*%
%ADD11O,5.080000X2.540000*%
%ADD12O,1.397000X2.300000*%
%ADD13O,2.300000X1.397000*%
%ADD14O,2.300000X1.600000*%
%ADD15O,2.200000X1.600000*%
%ADD16O,1.501140X1.998980*%
%ADD17O,1.998980X1.501140*%
%ADD18O,2.540000X5.080000*%
%ADD19O,1.500000X2.000000*%
%ADD20O,1.524000X2.300000*%
%ADD21C,0.889000*%
%ADD22C,0.254000*%
%ADD23C,0.508000*%
G04 APERTURE END LIST*
D10*
D11*
X-28702000Y5000000D03*
X-28702000Y-5000000D03*
D12*
X-7874000Y6604000D03*
X-5334000Y6604000D03*
D13*
X-1778000Y1778000D03*
X-1778000Y4278000D03*
D12*
X-16764000Y6604000D03*
X-14224000Y6604000D03*
X15494000Y-5969000D03*
X15494000Y1651000D03*
X12954000Y1651000D03*
X12954000Y-5969000D03*
D14*
X1524000Y1651000D03*
X1524000Y-889000D03*
X1524000Y-3429000D03*
D15*
X1224000Y-5969000D03*
D14*
X9144000Y-5969000D03*
X9144000Y-3429000D03*
X9144000Y-889000D03*
D15*
X9544000Y1651000D03*
D12*
X18034000Y-6096000D03*
X18034000Y1524000D03*
D16*
X-4826000Y1270000D03*
D17*
X-7366000Y-1270000D03*
X-2286000Y-1270000D03*
D16*
X-13716000Y1270000D03*
D17*
X-16256000Y-1270000D03*
X-11176000Y-1270000D03*
D16*
X-13716000Y-7620000D03*
D17*
X-11176000Y-5080000D03*
X-16256000Y-5080000D03*
D16*
X-4826000Y-7620000D03*
D17*
X-2286000Y-5080000D03*
X-7366000Y-5080000D03*
D18*
X42049700Y0D03*
X20942300Y0D03*
D10*
G36*
X-42648000Y6000000D02*
X-39648000Y4000000D01*
X-39648000Y-4000000D01*
X-42648000Y-6000000D01*
X-42648000Y6000000D01*
X-42648000Y6000000D01*
G37*
G36*
X47220000Y-6000000D02*
X44220000Y-4000000D01*
X44220000Y4000000D01*
X47220000Y6000000D01*
X47220000Y-6000000D01*
X47220000Y-6000000D01*
G37*
D19*
X-11684000Y3302000D03*
X-9144000Y3302000D03*
X-18796000Y-7620000D03*
X-16256000Y-7620000D03*
D20*
X42924000Y7874000D03*
X-1776000Y7874000D03*
D21*
X3810000Y-1651000D03*
X3302000Y-7493000D03*
X5334000Y-7493000D03*
X3556000Y2921000D03*
X7112000Y-7493000D03*
X7112000Y-1651000D03*
X6604000Y5334000D03*
X-4826000Y-1270000D03*
X-5842000Y3302000D03*
D22*
X3810000Y-1651000D02*
X3810000Y-6985000D01*
X3810000Y-6985000D02*
X3302000Y-7493000D01*
D23*
X-18368000Y5000000D02*
X-16764000Y6604000D01*
X-28702000Y5000000D02*
X-18368000Y5000000D01*
X-13970000Y6350000D02*
X-14224000Y6604000D01*
X-10414000Y4826000D02*
X-10414000Y762000D01*
X-10414000Y762000D02*
X-10414000Y508000D01*
X-10414000Y508000D02*
X-9144000Y-762000D01*
X-9144000Y-762000D02*
X-9144000Y-3048000D01*
X-9144000Y-3048000D02*
X-11176000Y-5080000D01*
X-13970000Y6350000D02*
X-12446000Y6350000D01*
X-11938000Y6350000D02*
X-12446000Y6350000D01*
X-11938000Y6350000D02*
X-10414000Y4826000D01*
X15494000Y-5969000D02*
X15494000Y-6477000D01*
X-30988000Y-10160000D02*
X12954000Y-10160000D01*
X12954000Y-10160000D02*
X15494000Y-7620000D01*
X15494000Y-7620000D02*
X15494000Y-5969000D01*
X-41148000Y0D02*
X-30988000Y-10160000D01*
X-30226000Y-5000000D02*
X-30226000Y-4826000D01*
X-18876000Y-5000000D02*
X-16256000Y-7620000D01*
X-16256000Y-2380000D02*
X-16256000Y-1270000D01*
X-18876000Y-5000000D02*
X-16256000Y-2380000D01*
X-18876000Y-5000000D02*
X-28702000Y-5000000D01*
D22*
X7112000Y-1651000D02*
X7112000Y-7493000D01*
D23*
X6604000Y5334000D02*
X6604000Y4191000D01*
X6604000Y4191000D02*
X1524000Y-889000D01*
X1524000Y-889000D02*
X889000Y-889000D01*
X889000Y-889000D02*
X-1778000Y1778000D01*
X12954000Y1651000D02*
X12954000Y2159000D01*
X44704000Y2286000D02*
X44704000Y0D01*
X12954000Y1651000D02*
X12954000Y1905000D01*
X45720000Y762000D02*
X45720000Y0D01*
X17272000Y6350000D02*
X40132000Y6350000D01*
X40132000Y6350000D02*
X45720000Y762000D01*
X12954000Y2032000D02*
X17272000Y6350000D01*
X12954000Y1651000D02*
X12954000Y2032000D01*
X-4826000Y-1270000D02*
X-6604000Y508000D01*
X-6604000Y508000D02*
X-6604000Y2540000D01*
X-6604000Y2540000D02*
X-5842000Y3302000D01*
D22*
G36*
X48678000Y-6054610D02*
X48340043Y-7753634D01*
X47418628Y-9132628D01*
X46039634Y-10054043D01*
X44340610Y-10392000D01*
X41922700Y-10392000D01*
X41922700Y-3011626D01*
X41922700Y-127000D01*
X41922700Y127000D01*
X41922700Y3011626D01*
X41626919Y3127493D01*
X41438021Y3078591D01*
X40792464Y2706841D01*
X40338310Y2116345D01*
X40144700Y1397000D01*
X40144700Y127000D01*
X41922700Y127000D01*
X41922700Y-127000D01*
X40144700Y-127000D01*
X40144700Y-1397000D01*
X40338310Y-2116345D01*
X40792464Y-2706841D01*
X41438021Y-3078591D01*
X41626919Y-3127493D01*
X41922700Y-3011626D01*
X41922700Y-10392000D01*
X22847300Y-10392000D01*
X22847300Y-1397000D01*
X22847300Y-127000D01*
X22847300Y127000D01*
X22847300Y1397000D01*
X22653690Y2116345D01*
X22199536Y2706841D01*
X21553979Y3078591D01*
X21365081Y3127493D01*
X21069300Y3011626D01*
X21069300Y127000D01*
X22847300Y127000D01*
X22847300Y-127000D01*
X21069300Y-127000D01*
X21069300Y-3011626D01*
X21365081Y-3127493D01*
X21553979Y-3078591D01*
X22199536Y-2706841D01*
X22653690Y-2116345D01*
X22847300Y-1397000D01*
X22847300Y-10392000D01*
X21260298Y-10392000D01*
X21640372Y-10234957D01*
X22171093Y-9705161D01*
X22458672Y-9012595D01*
X22459326Y-8262695D01*
X22172957Y-7569628D01*
X21643161Y-7038907D01*
X20950595Y-6751328D01*
X20815300Y-6751210D01*
X20815300Y-3011626D01*
X20815300Y-127000D01*
X19037300Y-127000D01*
X19037300Y-1397000D01*
X19230910Y-2116345D01*
X19685064Y-2706841D01*
X20330621Y-3078591D01*
X20519519Y-3127493D01*
X20815300Y-3011626D01*
X20815300Y-6751210D01*
X20200695Y-6750674D01*
X19507628Y-7037043D01*
X18976907Y-7566839D01*
X18689328Y-8259405D01*
X18688674Y-9009305D01*
X18975043Y-9702372D01*
X19504839Y-10233093D01*
X19887528Y-10392000D01*
X13979236Y-10392000D01*
X16122618Y-8248618D01*
X16315329Y-7960206D01*
X16383000Y-7620000D01*
X16383000Y-7434429D01*
X16436927Y-7398397D01*
X16725993Y-6965778D01*
X16751369Y-6838204D01*
X16802007Y-7092778D01*
X17091073Y-7525397D01*
X17523692Y-7814463D01*
X18034000Y-7915970D01*
X18544308Y-7814463D01*
X18976927Y-7525397D01*
X19265993Y-7092778D01*
X19367500Y-6582470D01*
X19367500Y-5609530D01*
X19265993Y-5099222D01*
X18976927Y-4666603D01*
X18544308Y-4377537D01*
X18034000Y-4276030D01*
X17523692Y-4377537D01*
X17091073Y-4666603D01*
X16802007Y-5099222D01*
X16776630Y-5226795D01*
X16725993Y-4972222D01*
X16436927Y-4539603D01*
X16004308Y-4250537D01*
X15494000Y-4149030D01*
X14983692Y-4250537D01*
X14551073Y-4539603D01*
X14262007Y-4972222D01*
X14222156Y-5172563D01*
X14137393Y-4889859D01*
X13807125Y-4484770D01*
X13346976Y-4236905D01*
X13287094Y-4226271D01*
X13081000Y-4349635D01*
X13081000Y-5842000D01*
X13101000Y-5842000D01*
X13101000Y-6096000D01*
X13081000Y-6096000D01*
X13081000Y-7588365D01*
X13287094Y-7711729D01*
X13346976Y-7701095D01*
X13807125Y-7453230D01*
X14137393Y-7048141D01*
X14222156Y-6765436D01*
X14262007Y-6965778D01*
X14513940Y-7342823D01*
X12827000Y-9029763D01*
X12827000Y-7588365D01*
X12827000Y-6096000D01*
X12827000Y-5842000D01*
X12827000Y-4349635D01*
X12620906Y-4226271D01*
X12561024Y-4236905D01*
X12100875Y-4484770D01*
X11770607Y-4889859D01*
X11620500Y-5390500D01*
X11620500Y-5842000D01*
X12827000Y-5842000D01*
X12827000Y-6096000D01*
X11620500Y-6096000D01*
X11620500Y-6547500D01*
X11770607Y-7048141D01*
X12100875Y-7453230D01*
X12561024Y-7701095D01*
X12620906Y-7711729D01*
X12827000Y-7588365D01*
X12827000Y-9029763D01*
X12585764Y-9271000D01*
X11235904Y-9271000D01*
X11235904Y1301961D01*
X11235904Y2000039D01*
X11218367Y2082819D01*
X10948500Y2575896D01*
X10510483Y2928166D01*
X9971000Y3086000D01*
X9671000Y3086000D01*
X9671000Y1778000D01*
X11113915Y1778000D01*
X11235904Y2000039D01*
X11235904Y1301961D01*
X11113915Y1524000D01*
X9671000Y1524000D01*
X9671000Y1504000D01*
X9417000Y1504000D01*
X9417000Y1524000D01*
X9417000Y1778000D01*
X9417000Y3086000D01*
X9117000Y3086000D01*
X8577517Y2928166D01*
X8139500Y2575896D01*
X7869633Y2082819D01*
X7852096Y2000039D01*
X7974085Y1778000D01*
X9417000Y1778000D01*
X9417000Y1524000D01*
X7974085Y1524000D01*
X7852096Y1301961D01*
X7869633Y1219181D01*
X8139500Y726104D01*
X8441883Y482916D01*
X8209879Y436767D01*
X7744332Y125698D01*
X7683687Y34937D01*
X7683687Y5547784D01*
X7519689Y5944689D01*
X7216286Y6248622D01*
X6819668Y6413313D01*
X6390216Y6413687D01*
X5993311Y6249689D01*
X5689378Y5946286D01*
X5524687Y5549668D01*
X5524313Y5120216D01*
X5688311Y4723311D01*
X5715000Y4696576D01*
X5715000Y4559236D01*
X3254841Y2099078D01*
X3234737Y2200151D01*
X2923668Y2665698D01*
X2458121Y2976767D01*
X1908970Y3086000D01*
X1139030Y3086000D01*
X589879Y2976767D01*
X124332Y2665698D01*
X-93685Y2339414D01*
X-348603Y2720927D01*
X-781222Y3009993D01*
X-871749Y3028000D01*
X-781222Y3046007D01*
X-348603Y3335073D01*
X-59537Y3767692D01*
X41970Y4278000D01*
X-59537Y4788308D01*
X-348603Y5220927D01*
X-379000Y5241238D01*
X-379000Y7359000D01*
X-379000Y7747000D01*
X-379000Y8001000D01*
X-379000Y8389000D01*
X-533941Y8913941D01*
X-877974Y9339630D01*
X-1358723Y9601260D01*
X-1432930Y9616220D01*
X-1649000Y9493720D01*
X-1649000Y8001000D01*
X-379000Y8001000D01*
X-379000Y7747000D01*
X-1649000Y7747000D01*
X-1649000Y6254280D01*
X-1432930Y6131780D01*
X-1358723Y6146740D01*
X-877974Y6408370D01*
X-533941Y6834059D01*
X-379000Y7359000D01*
X-379000Y5241238D01*
X-781222Y5509993D01*
X-1291530Y5611500D01*
X-1903000Y5611500D01*
X-1903000Y6254280D01*
X-1903000Y7747000D01*
X-1903000Y8001000D01*
X-1903000Y9493720D01*
X-2119070Y9616220D01*
X-2193277Y9601260D01*
X-2674026Y9339630D01*
X-3018059Y8913941D01*
X-3173000Y8389000D01*
X-3173000Y8001000D01*
X-1903000Y8001000D01*
X-1903000Y7747000D01*
X-3173000Y7747000D01*
X-3173000Y7359000D01*
X-3018059Y6834059D01*
X-2674026Y6408370D01*
X-2193277Y6146740D01*
X-2119070Y6131780D01*
X-1903000Y6254280D01*
X-1903000Y5611500D01*
X-2264470Y5611500D01*
X-2774778Y5509993D01*
X-3207397Y5220927D01*
X-3496463Y4788308D01*
X-3597970Y4278000D01*
X-3496463Y3767692D01*
X-3207397Y3335073D01*
X-2774778Y3046007D01*
X-2684252Y3028000D01*
X-2774778Y3009993D01*
X-3207397Y2720927D01*
X-3496463Y2288308D01*
X-3541783Y2060475D01*
X-3545900Y2081177D01*
X-3846254Y2530688D01*
X-4000500Y2633753D01*
X-4000500Y6025500D01*
X-4000500Y6477000D01*
X-4000500Y6731000D01*
X-4000500Y7182500D01*
X-4150607Y7683141D01*
X-4480875Y8088230D01*
X-4941024Y8336095D01*
X-5000906Y8346729D01*
X-5207000Y8223365D01*
X-5207000Y6731000D01*
X-4000500Y6731000D01*
X-4000500Y6477000D01*
X-5207000Y6477000D01*
X-5207000Y4984635D01*
X-5000906Y4861271D01*
X-4941024Y4871905D01*
X-4480875Y5119770D01*
X-4150607Y5524859D01*
X-4000500Y6025500D01*
X-4000500Y2633753D01*
X-4295765Y2831042D01*
X-4824983Y2936310D01*
X-4762687Y3086332D01*
X-4762313Y3515784D01*
X-4926311Y3912689D01*
X-5229714Y4216622D01*
X-5461000Y4312661D01*
X-5461000Y4984635D01*
X-5461000Y6477000D01*
X-5481000Y6477000D01*
X-5481000Y6731000D01*
X-5461000Y6731000D01*
X-5461000Y8223365D01*
X-5667094Y8346729D01*
X-5726976Y8336095D01*
X-6187125Y8088230D01*
X-6517393Y7683141D01*
X-6602157Y7400437D01*
X-6642007Y7600778D01*
X-6931073Y8033397D01*
X-7363692Y8322463D01*
X-7874000Y8423970D01*
X-8384308Y8322463D01*
X-8816927Y8033397D01*
X-9105993Y7600778D01*
X-9207500Y7090470D01*
X-9207500Y6117530D01*
X-9105993Y5607222D01*
X-8816927Y5174603D01*
X-8384308Y4885537D01*
X-7874000Y4784030D01*
X-7363692Y4885537D01*
X-6931073Y5174603D01*
X-6642007Y5607222D01*
X-6602157Y5807564D01*
X-6517393Y5524859D01*
X-6187125Y5119770D01*
X-5726976Y4871905D01*
X-5667094Y4861271D01*
X-5461000Y4984635D01*
X-5461000Y4312661D01*
X-5626332Y4381313D01*
X-6055784Y4381687D01*
X-6452689Y4217689D01*
X-6756622Y3914286D01*
X-6921313Y3517668D01*
X-6921346Y3479891D01*
X-7232618Y3168618D01*
X-7425329Y2880206D01*
X-7493000Y2540000D01*
X-7493000Y508000D01*
X-7425329Y167794D01*
X-7390434Y115570D01*
X-7646942Y115570D01*
X-8177177Y10100D01*
X-8477273Y-190417D01*
X-8515382Y-133382D01*
X-9525000Y876236D01*
X-9525000Y1710754D01*
X-9144000Y1634968D01*
X-8613983Y1740395D01*
X-8164657Y2040625D01*
X-7864427Y2489951D01*
X-7759000Y3019968D01*
X-7759000Y3584032D01*
X-7864427Y4114049D01*
X-8164657Y4563375D01*
X-8613983Y4863605D01*
X-9144000Y4969032D01*
X-9537867Y4890687D01*
X-9592671Y5166206D01*
X-9785382Y5454618D01*
X-11309382Y6978618D01*
X-11597794Y7171329D01*
X-11938000Y7239000D01*
X-12446000Y7239000D01*
X-12920045Y7239000D01*
X-12992007Y7600778D01*
X-13281073Y8033397D01*
X-13713692Y8322463D01*
X-14224000Y8423970D01*
X-14734308Y8322463D01*
X-15166927Y8033397D01*
X-15455993Y7600778D01*
X-15494000Y7409705D01*
X-15532007Y7600778D01*
X-15821073Y8033397D01*
X-16253692Y8322463D01*
X-16764000Y8423970D01*
X-17274308Y8322463D01*
X-17706927Y8033397D01*
X-17995993Y7600778D01*
X-18097500Y7090470D01*
X-18097500Y6527736D01*
X-18736236Y5889000D01*
X-25716708Y5889000D01*
X-26022760Y6347038D01*
X-26640786Y6759991D01*
X-27369798Y6905000D01*
X-30034202Y6905000D01*
X-30763214Y6759991D01*
X-31381240Y6347038D01*
X-31794193Y5729012D01*
X-31939202Y5000000D01*
X-31794193Y4270988D01*
X-31381240Y3652962D01*
X-30763214Y3240009D01*
X-30034202Y3095000D01*
X-27369798Y3095000D01*
X-26640786Y3240009D01*
X-26022760Y3652962D01*
X-25716708Y4111000D01*
X-18368000Y4111000D01*
X-18027795Y4178671D01*
X-18027794Y4178671D01*
X-17739382Y4371382D01*
X-17233371Y4877394D01*
X-16764000Y4784030D01*
X-16253692Y4885537D01*
X-15821073Y5174603D01*
X-15532007Y5607222D01*
X-15494000Y5798296D01*
X-15455993Y5607222D01*
X-15166927Y5174603D01*
X-14734308Y4885537D01*
X-14224000Y4784030D01*
X-13713692Y4885537D01*
X-13281073Y5174603D01*
X-13089710Y5461000D01*
X-12446000Y5461000D01*
X-12306236Y5461000D01*
X-11792656Y4947420D01*
X-12214017Y4863605D01*
X-12663343Y4563375D01*
X-12963573Y4114049D01*
X-13069000Y3584032D01*
X-13069000Y3019968D01*
X-13007763Y2712105D01*
X-13185765Y2831042D01*
X-13716000Y2936512D01*
X-14246235Y2831042D01*
X-14695746Y2530688D01*
X-14996100Y2081177D01*
X-15101570Y1550942D01*
X-15101570Y989058D01*
X-14996100Y458823D01*
X-14695746Y9312D01*
X-14246235Y-291042D01*
X-13716000Y-396512D01*
X-13185765Y-291042D01*
X-12736254Y9312D01*
X-12435900Y458823D01*
X-12330430Y989058D01*
X-12330430Y1550942D01*
X-12391735Y1859143D01*
X-12214017Y1740395D01*
X-11684000Y1634968D01*
X-11303000Y1710754D01*
X-11303000Y762000D01*
X-11303000Y508000D01*
X-11235329Y167794D01*
X-11200434Y115570D01*
X-11456942Y115570D01*
X-11987177Y10100D01*
X-12436688Y-290254D01*
X-12737042Y-739765D01*
X-12842512Y-1270000D01*
X-12737042Y-1800235D01*
X-12436688Y-2249746D01*
X-11987177Y-2550100D01*
X-11456942Y-2655570D01*
X-10895058Y-2655570D01*
X-10364823Y-2550100D01*
X-10033000Y-2328382D01*
X-10033000Y-2679764D01*
X-11047666Y-3694430D01*
X-11456942Y-3694430D01*
X-11987177Y-3799900D01*
X-12436688Y-4100254D01*
X-12737042Y-4549765D01*
X-12842512Y-5080000D01*
X-12737042Y-5610235D01*
X-12436688Y-6059746D01*
X-11987177Y-6360100D01*
X-11456942Y-6465570D01*
X-10895058Y-6465570D01*
X-10364823Y-6360100D01*
X-9915312Y-6059746D01*
X-9614958Y-5610235D01*
X-9509488Y-5080000D01*
X-9577392Y-4738627D01*
X-8515382Y-3676618D01*
X-8322671Y-3388206D01*
X-8322671Y-3388205D01*
X-8255000Y-3048000D01*
X-8255000Y-2498100D01*
X-8177177Y-2550100D01*
X-7646942Y-2655570D01*
X-7085058Y-2655570D01*
X-6554823Y-2550100D01*
X-6105312Y-2249746D01*
X-5804958Y-1800235D01*
X-5795201Y-1751181D01*
X-5741689Y-1880689D01*
X-5438286Y-2184622D01*
X-5041668Y-2349313D01*
X-4612216Y-2349687D01*
X-4215311Y-2185689D01*
X-3911378Y-1882286D01*
X-3848761Y-1731488D01*
X-3588710Y-2186324D01*
X-3157833Y-2519841D01*
X-2632123Y-2663081D01*
X-2413000Y-2502386D01*
X-2413000Y-1397000D01*
X-2433000Y-1397000D01*
X-2433000Y-1143000D01*
X-2413000Y-1143000D01*
X-2413000Y-37614D01*
X-2632123Y123081D01*
X-3157833Y-20159D01*
X-3588710Y-353676D01*
X-3848704Y-808411D01*
X-3910311Y-659311D01*
X-4213714Y-355378D01*
X-4345045Y-300844D01*
X-4295765Y-291042D01*
X-3846254Y9312D01*
X-3545900Y458823D01*
X-3440430Y989058D01*
X-3440430Y1183833D01*
X-3207397Y835073D01*
X-2774778Y546007D01*
X-2264470Y444500D01*
X-1701736Y444500D01*
X-278027Y-979209D01*
X-186737Y-1438151D01*
X124332Y-1903698D01*
X506417Y-2159000D01*
X124332Y-2414302D01*
X-186737Y-2879849D01*
X-295970Y-3429000D01*
X-186737Y-3978151D01*
X124332Y-4443698D01*
X423163Y-4643371D01*
X257517Y-4691834D01*
X-180500Y-5044104D01*
X-450367Y-5537181D01*
X-467904Y-5619961D01*
X-345915Y-5842000D01*
X1097000Y-5842000D01*
X1097000Y-5822000D01*
X1351000Y-5822000D01*
X1351000Y-5842000D01*
X2793915Y-5842000D01*
X2915904Y-5619961D01*
X2898367Y-5537181D01*
X2628500Y-5044104D01*
X2306287Y-4784968D01*
X2458121Y-4754767D01*
X2923668Y-4443698D01*
X3048000Y-4257622D01*
X3048000Y-6429929D01*
X2834050Y-6518332D01*
X2898367Y-6400819D01*
X2915904Y-6318039D01*
X2793915Y-6096000D01*
X1351000Y-6096000D01*
X1351000Y-7404000D01*
X1651000Y-7404000D01*
X2190483Y-7246166D01*
X2258263Y-7191654D01*
X2222687Y-7277332D01*
X2222313Y-7706784D01*
X2386311Y-8103689D01*
X2689714Y-8407622D01*
X3086332Y-8572313D01*
X3515784Y-8572687D01*
X3912689Y-8408689D01*
X4216622Y-8105286D01*
X4381313Y-7708668D01*
X4381516Y-7474874D01*
X4381516Y-7474873D01*
X4513996Y-7276605D01*
X4571999Y-6985000D01*
X4572000Y-6985000D01*
X4572000Y-2415641D01*
X4724622Y-2263286D01*
X4889313Y-1866668D01*
X4889687Y-1437216D01*
X4725689Y-1040311D01*
X4422286Y-736378D01*
X4025668Y-571687D01*
X3596216Y-571313D01*
X3304734Y-691750D01*
X3250606Y-419629D01*
X7232618Y3562382D01*
X7425329Y3850794D01*
X7425329Y3850795D01*
X7493000Y4191000D01*
X7493000Y4696137D01*
X7518622Y4721714D01*
X7683313Y5118332D01*
X7683687Y5547784D01*
X7683687Y34937D01*
X7433263Y-339849D01*
X7382609Y-594500D01*
X7327668Y-571687D01*
X6898216Y-571313D01*
X6501311Y-735311D01*
X6197378Y-1038714D01*
X6032687Y-1435332D01*
X6032313Y-1864784D01*
X6196311Y-2261689D01*
X6350000Y-2415646D01*
X6350000Y-6728358D01*
X6197378Y-6880714D01*
X6032687Y-7277332D01*
X6032313Y-7706784D01*
X6196311Y-8103689D01*
X6499714Y-8407622D01*
X6896332Y-8572313D01*
X7325784Y-8572687D01*
X7722689Y-8408689D01*
X8026622Y-8105286D01*
X8191313Y-7708668D01*
X8191684Y-7282609D01*
X8209879Y-7294767D01*
X8759030Y-7404000D01*
X9528970Y-7404000D01*
X10078121Y-7294767D01*
X10543668Y-6983698D01*
X10854737Y-6518151D01*
X10963970Y-5969000D01*
X10854737Y-5419849D01*
X10543668Y-4954302D01*
X10161582Y-4699000D01*
X10543668Y-4443698D01*
X10854737Y-3978151D01*
X10963970Y-3429000D01*
X10854737Y-2879849D01*
X10543668Y-2414302D01*
X10161582Y-2159000D01*
X10543668Y-1903698D01*
X10854737Y-1438151D01*
X10963970Y-889000D01*
X10854737Y-339849D01*
X10543668Y125698D01*
X10275287Y305025D01*
X10510483Y373834D01*
X10948500Y726104D01*
X11218367Y1219181D01*
X11235904Y1301961D01*
X11235904Y-9271000D01*
X1097000Y-9271000D01*
X1097000Y-7404000D01*
X1097000Y-6096000D01*
X-345915Y-6096000D01*
X-467904Y-6318039D01*
X-450367Y-6400819D01*
X-180500Y-6893896D01*
X257517Y-7246166D01*
X797000Y-7404000D01*
X1097000Y-7404000D01*
X1097000Y-9271000D01*
X-619488Y-9271000D01*
X-619488Y-5080000D01*
X-694197Y-4704411D01*
X-694197Y-1611275D01*
X-694197Y-928725D01*
X-712843Y-826695D01*
X-983290Y-353676D01*
X-1414167Y-20159D01*
X-1939877Y123081D01*
X-2159000Y-37614D01*
X-2159000Y-1143000D01*
X-816851Y-1143000D01*
X-694197Y-928725D01*
X-694197Y-1611275D01*
X-816851Y-1397000D01*
X-2159000Y-1397000D01*
X-2159000Y-2502386D01*
X-1939877Y-2663081D01*
X-1414167Y-2519841D01*
X-983290Y-2186324D01*
X-712843Y-1713305D01*
X-694197Y-1611275D01*
X-694197Y-4704411D01*
X-724958Y-4549765D01*
X-1025312Y-4100254D01*
X-1474823Y-3799900D01*
X-2005058Y-3694430D01*
X-2566942Y-3694430D01*
X-3097177Y-3799900D01*
X-3546688Y-4100254D01*
X-3847042Y-4549765D01*
X-3952512Y-5080000D01*
X-3847042Y-5610235D01*
X-3546688Y-6059746D01*
X-3097177Y-6360100D01*
X-2566942Y-6465570D01*
X-2005058Y-6465570D01*
X-1474823Y-6360100D01*
X-1025312Y-6059746D01*
X-724958Y-5610235D01*
X-619488Y-5080000D01*
X-619488Y-9271000D01*
X-4748016Y-9271000D01*
X-4295765Y-9181042D01*
X-3846254Y-8880688D01*
X-3545900Y-8431177D01*
X-3440430Y-7900942D01*
X-3440430Y-7339058D01*
X-3545900Y-6808823D01*
X-3846254Y-6359312D01*
X-4295765Y-6058958D01*
X-4826000Y-5953488D01*
X-5356235Y-6058958D01*
X-5699488Y-6288312D01*
X-5699488Y-5080000D01*
X-5804958Y-4549765D01*
X-6105312Y-4100254D01*
X-6554823Y-3799900D01*
X-7085058Y-3694430D01*
X-7646942Y-3694430D01*
X-8177177Y-3799900D01*
X-8626688Y-4100254D01*
X-8927042Y-4549765D01*
X-9032512Y-5080000D01*
X-8927042Y-5610235D01*
X-8626688Y-6059746D01*
X-8177177Y-6360100D01*
X-7646942Y-6465570D01*
X-7085058Y-6465570D01*
X-6554823Y-6360100D01*
X-6105312Y-6059746D01*
X-5804958Y-5610235D01*
X-5699488Y-5080000D01*
X-5699488Y-6288312D01*
X-5805746Y-6359312D01*
X-6106100Y-6808823D01*
X-6211570Y-7339058D01*
X-6211570Y-7900942D01*
X-6106100Y-8431177D01*
X-5805746Y-8880688D01*
X-5356235Y-9181042D01*
X-4903985Y-9271000D01*
X-13638016Y-9271000D01*
X-13185765Y-9181042D01*
X-12736254Y-8880688D01*
X-12435900Y-8431177D01*
X-12330430Y-7900942D01*
X-12330430Y-7339058D01*
X-12435900Y-6808823D01*
X-12736254Y-6359312D01*
X-13185765Y-6058958D01*
X-13716000Y-5953488D01*
X-14246235Y-6058958D01*
X-14695746Y-6359312D01*
X-14985973Y-6793665D01*
X-15276657Y-6358625D01*
X-15354316Y-6306734D01*
X-14953290Y-5996324D01*
X-14682843Y-5523305D01*
X-14664197Y-5421275D01*
X-14664197Y-4738725D01*
X-14682843Y-4636695D01*
X-14953290Y-4163676D01*
X-15384167Y-3830159D01*
X-15909877Y-3686919D01*
X-16129000Y-3847614D01*
X-16129000Y-4953000D01*
X-14786851Y-4953000D01*
X-14664197Y-4738725D01*
X-14664197Y-5421275D01*
X-14786851Y-5207000D01*
X-16129000Y-5207000D01*
X-16129000Y-5227000D01*
X-16383000Y-5227000D01*
X-16383000Y-5207000D01*
X-16403000Y-5207000D01*
X-16403000Y-4953000D01*
X-16383000Y-4953000D01*
X-16383000Y-3847614D01*
X-16431103Y-3812338D01*
X-15627382Y-3008618D01*
X-15434671Y-2720206D01*
X-15434670Y-2720205D01*
X-15394093Y-2516202D01*
X-15394092Y-2516202D01*
X-14995312Y-2249746D01*
X-14694958Y-1800235D01*
X-14589488Y-1270000D01*
X-14694958Y-739765D01*
X-14995312Y-290254D01*
X-15444823Y10100D01*
X-15975058Y115570D01*
X-16536942Y115570D01*
X-17067177Y10100D01*
X-17516688Y-290254D01*
X-17817042Y-739765D01*
X-17922512Y-1270000D01*
X-17817042Y-1800235D01*
X-17516688Y-2249746D01*
X-17436538Y-2303301D01*
X-19244236Y-4111000D01*
X-25716708Y-4111000D01*
X-26022760Y-3652962D01*
X-26640786Y-3240009D01*
X-27369798Y-3095000D01*
X-30034202Y-3095000D01*
X-30763214Y-3240009D01*
X-31381240Y-3652962D01*
X-31794193Y-4270988D01*
X-31939202Y-5000000D01*
X-31794193Y-5729012D01*
X-31381240Y-6347038D01*
X-30763214Y-6759991D01*
X-30034202Y-6905000D01*
X-27369798Y-6905000D01*
X-26640786Y-6759991D01*
X-26022760Y-6347038D01*
X-25716708Y-5889000D01*
X-19244236Y-5889000D01*
X-19116514Y-6016722D01*
X-19326017Y-6058395D01*
X-19775343Y-6358625D01*
X-20075573Y-6807951D01*
X-20181000Y-7337968D01*
X-20181000Y-7902032D01*
X-20075573Y-8432049D01*
X-19775343Y-8881375D01*
X-19326017Y-9181605D01*
X-18876599Y-9271000D01*
X-30619764Y-9271000D01*
X-37230674Y-2660090D01*
X-37230674Y7993305D01*
X-37517043Y8686372D01*
X-38046839Y9217093D01*
X-38739405Y9504672D01*
X-39489305Y9505326D01*
X-40182372Y9218957D01*
X-40713093Y8689161D01*
X-41000672Y7996595D01*
X-41001326Y7246695D01*
X-40714957Y6553628D01*
X-40185161Y6022907D01*
X-39492595Y5735328D01*
X-38742695Y5734674D01*
X-38049628Y6021043D01*
X-37518907Y6550839D01*
X-37231328Y7243405D01*
X-37230674Y7993305D01*
X-37230674Y-2660090D01*
X-39000560Y-890204D01*
X-39000560Y4000000D01*
X-39108922Y4358572D01*
X-39288865Y4538703D01*
X-42288865Y6538703D01*
X-42639874Y6647389D01*
X-42890123Y6600463D01*
X-43102927Y6460673D01*
X-43245377Y6249640D01*
X-43295440Y6000000D01*
X-43295440Y-6000000D01*
X-43191168Y-6352346D01*
X-43013309Y-6534535D01*
X-42778955Y-6634058D01*
X-42524348Y-6635523D01*
X-42288865Y-6538703D01*
X-39288865Y-4538703D01*
X-39050623Y-4249640D01*
X-39000560Y-4000000D01*
X-39000560Y-3404676D01*
X-32013236Y-10392000D01*
X-37230674Y-10392000D01*
X-37230674Y-7246695D01*
X-37517043Y-6553628D01*
X-38046839Y-6022907D01*
X-38739405Y-5735328D01*
X-39489305Y-5734674D01*
X-40182372Y-6021043D01*
X-40713093Y-6550839D01*
X-41000672Y-7243405D01*
X-41001326Y-7993305D01*
X-40714957Y-8686372D01*
X-40185161Y-9217093D01*
X-39492595Y-9504672D01*
X-38742695Y-9505326D01*
X-38049628Y-9218957D01*
X-37518907Y-8689161D01*
X-37231328Y-7996595D01*
X-37230674Y-7246695D01*
X-37230674Y-10392000D01*
X-39514611Y-10392000D01*
X-41213635Y-10054043D01*
X-42592629Y-9132628D01*
X-43514044Y-7753634D01*
X-43852000Y-6054610D01*
X-43852000Y5800611D01*
X-43514044Y7499635D01*
X-42592629Y8878629D01*
X-41213635Y9800044D01*
X-39514611Y10138000D01*
X19410501Y10138000D01*
X18976907Y9705161D01*
X18689328Y9012595D01*
X18688674Y8262695D01*
X18975043Y7569628D01*
X19305094Y7239000D01*
X17272000Y7239000D01*
X16931794Y7171329D01*
X16643382Y6978618D01*
X13105582Y3440819D01*
X12954000Y3470970D01*
X12443692Y3369463D01*
X12011073Y3080397D01*
X11722007Y2647778D01*
X11620500Y2137470D01*
X11620500Y1164530D01*
X11722007Y654222D01*
X12011073Y221603D01*
X12443692Y-67463D01*
X12954000Y-168970D01*
X13464308Y-67463D01*
X13896927Y221603D01*
X14185993Y654222D01*
X14224000Y845296D01*
X14262007Y654222D01*
X14551073Y221603D01*
X14983692Y-67463D01*
X15494000Y-168970D01*
X16004308Y-67463D01*
X16436927Y221603D01*
X16725993Y654222D01*
X16751369Y781796D01*
X16802007Y527222D01*
X17091073Y94603D01*
X17523692Y-194463D01*
X18034000Y-295970D01*
X18544308Y-194463D01*
X18976927Y94603D01*
X19037300Y184958D01*
X19037300Y127000D01*
X20815300Y127000D01*
X20815300Y3011626D01*
X20519519Y3127493D01*
X20330621Y3078591D01*
X19685064Y2706841D01*
X19322700Y2235692D01*
X19265993Y2520778D01*
X18976927Y2953397D01*
X18544308Y3242463D01*
X18034000Y3343970D01*
X17523692Y3242463D01*
X17091073Y2953397D01*
X16802007Y2520778D01*
X16776630Y2393205D01*
X16725993Y2647778D01*
X16436927Y3080397D01*
X16004308Y3369463D01*
X15624289Y3445054D01*
X17640236Y5461000D01*
X39763764Y5461000D01*
X42202881Y3021883D01*
X42176700Y3011626D01*
X42176700Y127000D01*
X42196700Y127000D01*
X42196700Y-127000D01*
X42176700Y-127000D01*
X42176700Y-3011626D01*
X42472481Y-3127493D01*
X42661379Y-3078591D01*
X43306936Y-2706841D01*
X43572560Y-2361473D01*
X43572560Y-4000000D01*
X43680922Y-4358572D01*
X43860865Y-4538703D01*
X46860865Y-6538703D01*
X47211874Y-6647389D01*
X47462123Y-6600463D01*
X47674927Y-6460673D01*
X47817377Y-6249640D01*
X47867440Y-6000000D01*
X47867440Y6000000D01*
X47763168Y6352346D01*
X47585309Y6534535D01*
X47350955Y6634058D01*
X47096348Y6635523D01*
X46860865Y6538703D01*
X44321000Y4845460D01*
X44321000Y7451030D01*
X44321000Y8296970D01*
X44214660Y8831579D01*
X43911828Y9284798D01*
X43458609Y9587630D01*
X42924000Y9693970D01*
X42389391Y9587630D01*
X41936172Y9284798D01*
X41633340Y8831579D01*
X41527000Y8296970D01*
X41527000Y7451030D01*
X41633340Y6916421D01*
X41936172Y6463202D01*
X42389391Y6160370D01*
X42924000Y6054030D01*
X43458609Y6160370D01*
X43911828Y6463202D01*
X44214660Y6916421D01*
X44321000Y7451030D01*
X44321000Y4845460D01*
X43860865Y4538703D01*
X43622623Y4249640D01*
X43600401Y4138835D01*
X40760618Y6978618D01*
X40472206Y7171329D01*
X40132000Y7239000D01*
X21842681Y7239000D01*
X22171093Y7566839D01*
X22458672Y8259405D01*
X22459326Y9009305D01*
X22172957Y9702372D01*
X21738088Y10138000D01*
X44340610Y10138000D01*
X46039634Y9800044D01*
X47418628Y8878629D01*
X48340043Y7499635D01*
X48678000Y5800611D01*
X48678000Y-6054610D01*
X48678000Y-6054610D01*
G37*
X48678000Y-6054610D02*
X48340043Y-7753634D01*
X47418628Y-9132628D01*
X46039634Y-10054043D01*
X44340610Y-10392000D01*
X41922700Y-10392000D01*
X41922700Y-3011626D01*
X41922700Y-127000D01*
X41922700Y127000D01*
X41922700Y3011626D01*
X41626919Y3127493D01*
X41438021Y3078591D01*
X40792464Y2706841D01*
X40338310Y2116345D01*
X40144700Y1397000D01*
X40144700Y127000D01*
X41922700Y127000D01*
X41922700Y-127000D01*
X40144700Y-127000D01*
X40144700Y-1397000D01*
X40338310Y-2116345D01*
X40792464Y-2706841D01*
X41438021Y-3078591D01*
X41626919Y-3127493D01*
X41922700Y-3011626D01*
X41922700Y-10392000D01*
X22847300Y-10392000D01*
X22847300Y-1397000D01*
X22847300Y-127000D01*
X22847300Y127000D01*
X22847300Y1397000D01*
X22653690Y2116345D01*
X22199536Y2706841D01*
X21553979Y3078591D01*
X21365081Y3127493D01*
X21069300Y3011626D01*
X21069300Y127000D01*
X22847300Y127000D01*
X22847300Y-127000D01*
X21069300Y-127000D01*
X21069300Y-3011626D01*
X21365081Y-3127493D01*
X21553979Y-3078591D01*
X22199536Y-2706841D01*
X22653690Y-2116345D01*
X22847300Y-1397000D01*
X22847300Y-10392000D01*
X21260298Y-10392000D01*
X21640372Y-10234957D01*
X22171093Y-9705161D01*
X22458672Y-9012595D01*
X22459326Y-8262695D01*
X22172957Y-7569628D01*
X21643161Y-7038907D01*
X20950595Y-6751328D01*
X20815300Y-6751210D01*
X20815300Y-3011626D01*
X20815300Y-127000D01*
X19037300Y-127000D01*
X19037300Y-1397000D01*
X19230910Y-2116345D01*
X19685064Y-2706841D01*
X20330621Y-3078591D01*
X20519519Y-3127493D01*
X20815300Y-3011626D01*
X20815300Y-6751210D01*
X20200695Y-6750674D01*
X19507628Y-7037043D01*
X18976907Y-7566839D01*
X18689328Y-8259405D01*
X18688674Y-9009305D01*
X18975043Y-9702372D01*
X19504839Y-10233093D01*
X19887528Y-10392000D01*
X13979236Y-10392000D01*
X16122618Y-8248618D01*
X16315329Y-7960206D01*
X16383000Y-7620000D01*
X16383000Y-7434429D01*
X16436927Y-7398397D01*
X16725993Y-6965778D01*
X16751369Y-6838204D01*
X16802007Y-7092778D01*
X17091073Y-7525397D01*
X17523692Y-7814463D01*
X18034000Y-7915970D01*
X18544308Y-7814463D01*
X18976927Y-7525397D01*
X19265993Y-7092778D01*
X19367500Y-6582470D01*
X19367500Y-5609530D01*
X19265993Y-5099222D01*
X18976927Y-4666603D01*
X18544308Y-4377537D01*
X18034000Y-4276030D01*
X17523692Y-4377537D01*
X17091073Y-4666603D01*
X16802007Y-5099222D01*
X16776630Y-5226795D01*
X16725993Y-4972222D01*
X16436927Y-4539603D01*
X16004308Y-4250537D01*
X15494000Y-4149030D01*
X14983692Y-4250537D01*
X14551073Y-4539603D01*
X14262007Y-4972222D01*
X14222156Y-5172563D01*
X14137393Y-4889859D01*
X13807125Y-4484770D01*
X13346976Y-4236905D01*
X13287094Y-4226271D01*
X13081000Y-4349635D01*
X13081000Y-5842000D01*
X13101000Y-5842000D01*
X13101000Y-6096000D01*
X13081000Y-6096000D01*
X13081000Y-7588365D01*
X13287094Y-7711729D01*
X13346976Y-7701095D01*
X13807125Y-7453230D01*
X14137393Y-7048141D01*
X14222156Y-6765436D01*
X14262007Y-6965778D01*
X14513940Y-7342823D01*
X12827000Y-9029763D01*
X12827000Y-7588365D01*
X12827000Y-6096000D01*
X12827000Y-5842000D01*
X12827000Y-4349635D01*
X12620906Y-4226271D01*
X12561024Y-4236905D01*
X12100875Y-4484770D01*
X11770607Y-4889859D01*
X11620500Y-5390500D01*
X11620500Y-5842000D01*
X12827000Y-5842000D01*
X12827000Y-6096000D01*
X11620500Y-6096000D01*
X11620500Y-6547500D01*
X11770607Y-7048141D01*
X12100875Y-7453230D01*
X12561024Y-7701095D01*
X12620906Y-7711729D01*
X12827000Y-7588365D01*
X12827000Y-9029763D01*
X12585764Y-9271000D01*
X11235904Y-9271000D01*
X11235904Y1301961D01*
X11235904Y2000039D01*
X11218367Y2082819D01*
X10948500Y2575896D01*
X10510483Y2928166D01*
X9971000Y3086000D01*
X9671000Y3086000D01*
X9671000Y1778000D01*
X11113915Y1778000D01*
X11235904Y2000039D01*
X11235904Y1301961D01*
X11113915Y1524000D01*
X9671000Y1524000D01*
X9671000Y1504000D01*
X9417000Y1504000D01*
X9417000Y1524000D01*
X9417000Y1778000D01*
X9417000Y3086000D01*
X9117000Y3086000D01*
X8577517Y2928166D01*
X8139500Y2575896D01*
X7869633Y2082819D01*
X7852096Y2000039D01*
X7974085Y1778000D01*
X9417000Y1778000D01*
X9417000Y1524000D01*
X7974085Y1524000D01*
X7852096Y1301961D01*
X7869633Y1219181D01*
X8139500Y726104D01*
X8441883Y482916D01*
X8209879Y436767D01*
X7744332Y125698D01*
X7683687Y34937D01*
X7683687Y5547784D01*
X7519689Y5944689D01*
X7216286Y6248622D01*
X6819668Y6413313D01*
X6390216Y6413687D01*
X5993311Y6249689D01*
X5689378Y5946286D01*
X5524687Y5549668D01*
X5524313Y5120216D01*
X5688311Y4723311D01*
X5715000Y4696576D01*
X5715000Y4559236D01*
X3254841Y2099078D01*
X3234737Y2200151D01*
X2923668Y2665698D01*
X2458121Y2976767D01*
X1908970Y3086000D01*
X1139030Y3086000D01*
X589879Y2976767D01*
X124332Y2665698D01*
X-93685Y2339414D01*
X-348603Y2720927D01*
X-781222Y3009993D01*
X-871749Y3028000D01*
X-781222Y3046007D01*
X-348603Y3335073D01*
X-59537Y3767692D01*
X41970Y4278000D01*
X-59537Y4788308D01*
X-348603Y5220927D01*
X-379000Y5241238D01*
X-379000Y7359000D01*
X-379000Y7747000D01*
X-379000Y8001000D01*
X-379000Y8389000D01*
X-533941Y8913941D01*
X-877974Y9339630D01*
X-1358723Y9601260D01*
X-1432930Y9616220D01*
X-1649000Y9493720D01*
X-1649000Y8001000D01*
X-379000Y8001000D01*
X-379000Y7747000D01*
X-1649000Y7747000D01*
X-1649000Y6254280D01*
X-1432930Y6131780D01*
X-1358723Y6146740D01*
X-877974Y6408370D01*
X-533941Y6834059D01*
X-379000Y7359000D01*
X-379000Y5241238D01*
X-781222Y5509993D01*
X-1291530Y5611500D01*
X-1903000Y5611500D01*
X-1903000Y6254280D01*
X-1903000Y7747000D01*
X-1903000Y8001000D01*
X-1903000Y9493720D01*
X-2119070Y9616220D01*
X-2193277Y9601260D01*
X-2674026Y9339630D01*
X-3018059Y8913941D01*
X-3173000Y8389000D01*
X-3173000Y8001000D01*
X-1903000Y8001000D01*
X-1903000Y7747000D01*
X-3173000Y7747000D01*
X-3173000Y7359000D01*
X-3018059Y6834059D01*
X-2674026Y6408370D01*
X-2193277Y6146740D01*
X-2119070Y6131780D01*
X-1903000Y6254280D01*
X-1903000Y5611500D01*
X-2264470Y5611500D01*
X-2774778Y5509993D01*
X-3207397Y5220927D01*
X-3496463Y4788308D01*
X-3597970Y4278000D01*
X-3496463Y3767692D01*
X-3207397Y3335073D01*
X-2774778Y3046007D01*
X-2684252Y3028000D01*
X-2774778Y3009993D01*
X-3207397Y2720927D01*
X-3496463Y2288308D01*
X-3541783Y2060475D01*
X-3545900Y2081177D01*
X-3846254Y2530688D01*
X-4000500Y2633753D01*
X-4000500Y6025500D01*
X-4000500Y6477000D01*
X-4000500Y6731000D01*
X-4000500Y7182500D01*
X-4150607Y7683141D01*
X-4480875Y8088230D01*
X-4941024Y8336095D01*
X-5000906Y8346729D01*
X-5207000Y8223365D01*
X-5207000Y6731000D01*
X-4000500Y6731000D01*
X-4000500Y6477000D01*
X-5207000Y6477000D01*
X-5207000Y4984635D01*
X-5000906Y4861271D01*
X-4941024Y4871905D01*
X-4480875Y5119770D01*
X-4150607Y5524859D01*
X-4000500Y6025500D01*
X-4000500Y2633753D01*
X-4295765Y2831042D01*
X-4824983Y2936310D01*
X-4762687Y3086332D01*
X-4762313Y3515784D01*
X-4926311Y3912689D01*
X-5229714Y4216622D01*
X-5461000Y4312661D01*
X-5461000Y4984635D01*
X-5461000Y6477000D01*
X-5481000Y6477000D01*
X-5481000Y6731000D01*
X-5461000Y6731000D01*
X-5461000Y8223365D01*
X-5667094Y8346729D01*
X-5726976Y8336095D01*
X-6187125Y8088230D01*
X-6517393Y7683141D01*
X-6602157Y7400437D01*
X-6642007Y7600778D01*
X-6931073Y8033397D01*
X-7363692Y8322463D01*
X-7874000Y8423970D01*
X-8384308Y8322463D01*
X-8816927Y8033397D01*
X-9105993Y7600778D01*
X-9207500Y7090470D01*
X-9207500Y6117530D01*
X-9105993Y5607222D01*
X-8816927Y5174603D01*
X-8384308Y4885537D01*
X-7874000Y4784030D01*
X-7363692Y4885537D01*
X-6931073Y5174603D01*
X-6642007Y5607222D01*
X-6602157Y5807564D01*
X-6517393Y5524859D01*
X-6187125Y5119770D01*
X-5726976Y4871905D01*
X-5667094Y4861271D01*
X-5461000Y4984635D01*
X-5461000Y4312661D01*
X-5626332Y4381313D01*
X-6055784Y4381687D01*
X-6452689Y4217689D01*
X-6756622Y3914286D01*
X-6921313Y3517668D01*
X-6921346Y3479891D01*
X-7232618Y3168618D01*
X-7425329Y2880206D01*
X-7493000Y2540000D01*
X-7493000Y508000D01*
X-7425329Y167794D01*
X-7390434Y115570D01*
X-7646942Y115570D01*
X-8177177Y10100D01*
X-8477273Y-190417D01*
X-8515382Y-133382D01*
X-9525000Y876236D01*
X-9525000Y1710754D01*
X-9144000Y1634968D01*
X-8613983Y1740395D01*
X-8164657Y2040625D01*
X-7864427Y2489951D01*
X-7759000Y3019968D01*
X-7759000Y3584032D01*
X-7864427Y4114049D01*
X-8164657Y4563375D01*
X-8613983Y4863605D01*
X-9144000Y4969032D01*
X-9537867Y4890687D01*
X-9592671Y5166206D01*
X-9785382Y5454618D01*
X-11309382Y6978618D01*
X-11597794Y7171329D01*
X-11938000Y7239000D01*
X-12446000Y7239000D01*
X-12920045Y7239000D01*
X-12992007Y7600778D01*
X-13281073Y8033397D01*
X-13713692Y8322463D01*
X-14224000Y8423970D01*
X-14734308Y8322463D01*
X-15166927Y8033397D01*
X-15455993Y7600778D01*
X-15494000Y7409705D01*
X-15532007Y7600778D01*
X-15821073Y8033397D01*
X-16253692Y8322463D01*
X-16764000Y8423970D01*
X-17274308Y8322463D01*
X-17706927Y8033397D01*
X-17995993Y7600778D01*
X-18097500Y7090470D01*
X-18097500Y6527736D01*
X-18736236Y5889000D01*
X-25716708Y5889000D01*
X-26022760Y6347038D01*
X-26640786Y6759991D01*
X-27369798Y6905000D01*
X-30034202Y6905000D01*
X-30763214Y6759991D01*
X-31381240Y6347038D01*
X-31794193Y5729012D01*
X-31939202Y5000000D01*
X-31794193Y4270988D01*
X-31381240Y3652962D01*
X-30763214Y3240009D01*
X-30034202Y3095000D01*
X-27369798Y3095000D01*
X-26640786Y3240009D01*
X-26022760Y3652962D01*
X-25716708Y4111000D01*
X-18368000Y4111000D01*
X-18027795Y4178671D01*
X-18027794Y4178671D01*
X-17739382Y4371382D01*
X-17233371Y4877394D01*
X-16764000Y4784030D01*
X-16253692Y4885537D01*
X-15821073Y5174603D01*
X-15532007Y5607222D01*
X-15494000Y5798296D01*
X-15455993Y5607222D01*
X-15166927Y5174603D01*
X-14734308Y4885537D01*
X-14224000Y4784030D01*
X-13713692Y4885537D01*
X-13281073Y5174603D01*
X-13089710Y5461000D01*
X-12446000Y5461000D01*
X-12306236Y5461000D01*
X-11792656Y4947420D01*
X-12214017Y4863605D01*
X-12663343Y4563375D01*
X-12963573Y4114049D01*
X-13069000Y3584032D01*
X-13069000Y3019968D01*
X-13007763Y2712105D01*
X-13185765Y2831042D01*
X-13716000Y2936512D01*
X-14246235Y2831042D01*
X-14695746Y2530688D01*
X-14996100Y2081177D01*
X-15101570Y1550942D01*
X-15101570Y989058D01*
X-14996100Y458823D01*
X-14695746Y9312D01*
X-14246235Y-291042D01*
X-13716000Y-396512D01*
X-13185765Y-291042D01*
X-12736254Y9312D01*
X-12435900Y458823D01*
X-12330430Y989058D01*
X-12330430Y1550942D01*
X-12391735Y1859143D01*
X-12214017Y1740395D01*
X-11684000Y1634968D01*
X-11303000Y1710754D01*
X-11303000Y762000D01*
X-11303000Y508000D01*
X-11235329Y167794D01*
X-11200434Y115570D01*
X-11456942Y115570D01*
X-11987177Y10100D01*
X-12436688Y-290254D01*
X-12737042Y-739765D01*
X-12842512Y-1270000D01*
X-12737042Y-1800235D01*
X-12436688Y-2249746D01*
X-11987177Y-2550100D01*
X-11456942Y-2655570D01*
X-10895058Y-2655570D01*
X-10364823Y-2550100D01*
X-10033000Y-2328382D01*
X-10033000Y-2679764D01*
X-11047666Y-3694430D01*
X-11456942Y-3694430D01*
X-11987177Y-3799900D01*
X-12436688Y-4100254D01*
X-12737042Y-4549765D01*
X-12842512Y-5080000D01*
X-12737042Y-5610235D01*
X-12436688Y-6059746D01*
X-11987177Y-6360100D01*
X-11456942Y-6465570D01*
X-10895058Y-6465570D01*
X-10364823Y-6360100D01*
X-9915312Y-6059746D01*
X-9614958Y-5610235D01*
X-9509488Y-5080000D01*
X-9577392Y-4738627D01*
X-8515382Y-3676618D01*
X-8322671Y-3388206D01*
X-8322671Y-3388205D01*
X-8255000Y-3048000D01*
X-8255000Y-2498100D01*
X-8177177Y-2550100D01*
X-7646942Y-2655570D01*
X-7085058Y-2655570D01*
X-6554823Y-2550100D01*
X-6105312Y-2249746D01*
X-5804958Y-1800235D01*
X-5795201Y-1751181D01*
X-5741689Y-1880689D01*
X-5438286Y-2184622D01*
X-5041668Y-2349313D01*
X-4612216Y-2349687D01*
X-4215311Y-2185689D01*
X-3911378Y-1882286D01*
X-3848761Y-1731488D01*
X-3588710Y-2186324D01*
X-3157833Y-2519841D01*
X-2632123Y-2663081D01*
X-2413000Y-2502386D01*
X-2413000Y-1397000D01*
X-2433000Y-1397000D01*
X-2433000Y-1143000D01*
X-2413000Y-1143000D01*
X-2413000Y-37614D01*
X-2632123Y123081D01*
X-3157833Y-20159D01*
X-3588710Y-353676D01*
X-3848704Y-808411D01*
X-3910311Y-659311D01*
X-4213714Y-355378D01*
X-4345045Y-300844D01*
X-4295765Y-291042D01*
X-3846254Y9312D01*
X-3545900Y458823D01*
X-3440430Y989058D01*
X-3440430Y1183833D01*
X-3207397Y835073D01*
X-2774778Y546007D01*
X-2264470Y444500D01*
X-1701736Y444500D01*
X-278027Y-979209D01*
X-186737Y-1438151D01*
X124332Y-1903698D01*
X506417Y-2159000D01*
X124332Y-2414302D01*
X-186737Y-2879849D01*
X-295970Y-3429000D01*
X-186737Y-3978151D01*
X124332Y-4443698D01*
X423163Y-4643371D01*
X257517Y-4691834D01*
X-180500Y-5044104D01*
X-450367Y-5537181D01*
X-467904Y-5619961D01*
X-345915Y-5842000D01*
X1097000Y-5842000D01*
X1097000Y-5822000D01*
X1351000Y-5822000D01*
X1351000Y-5842000D01*
X2793915Y-5842000D01*
X2915904Y-5619961D01*
X2898367Y-5537181D01*
X2628500Y-5044104D01*
X2306287Y-4784968D01*
X2458121Y-4754767D01*
X2923668Y-4443698D01*
X3048000Y-4257622D01*
X3048000Y-6429929D01*
X2834050Y-6518332D01*
X2898367Y-6400819D01*
X2915904Y-6318039D01*
X2793915Y-6096000D01*
X1351000Y-6096000D01*
X1351000Y-7404000D01*
X1651000Y-7404000D01*
X2190483Y-7246166D01*
X2258263Y-7191654D01*
X2222687Y-7277332D01*
X2222313Y-7706784D01*
X2386311Y-8103689D01*
X2689714Y-8407622D01*
X3086332Y-8572313D01*
X3515784Y-8572687D01*
X3912689Y-8408689D01*
X4216622Y-8105286D01*
X4381313Y-7708668D01*
X4381516Y-7474874D01*
X4381516Y-7474873D01*
X4513996Y-7276605D01*
X4571999Y-6985000D01*
X4572000Y-6985000D01*
X4572000Y-2415641D01*
X4724622Y-2263286D01*
X4889313Y-1866668D01*
X4889687Y-1437216D01*
X4725689Y-1040311D01*
X4422286Y-736378D01*
X4025668Y-571687D01*
X3596216Y-571313D01*
X3304734Y-691750D01*
X3250606Y-419629D01*
X7232618Y3562382D01*
X7425329Y3850794D01*
X7425329Y3850795D01*
X7493000Y4191000D01*
X7493000Y4696137D01*
X7518622Y4721714D01*
X7683313Y5118332D01*
X7683687Y5547784D01*
X7683687Y34937D01*
X7433263Y-339849D01*
X7382609Y-594500D01*
X7327668Y-571687D01*
X6898216Y-571313D01*
X6501311Y-735311D01*
X6197378Y-1038714D01*
X6032687Y-1435332D01*
X6032313Y-1864784D01*
X6196311Y-2261689D01*
X6350000Y-2415646D01*
X6350000Y-6728358D01*
X6197378Y-6880714D01*
X6032687Y-7277332D01*
X6032313Y-7706784D01*
X6196311Y-8103689D01*
X6499714Y-8407622D01*
X6896332Y-8572313D01*
X7325784Y-8572687D01*
X7722689Y-8408689D01*
X8026622Y-8105286D01*
X8191313Y-7708668D01*
X8191684Y-7282609D01*
X8209879Y-7294767D01*
X8759030Y-7404000D01*
X9528970Y-7404000D01*
X10078121Y-7294767D01*
X10543668Y-6983698D01*
X10854737Y-6518151D01*
X10963970Y-5969000D01*
X10854737Y-5419849D01*
X10543668Y-4954302D01*
X10161582Y-4699000D01*
X10543668Y-4443698D01*
X10854737Y-3978151D01*
X10963970Y-3429000D01*
X10854737Y-2879849D01*
X10543668Y-2414302D01*
X10161582Y-2159000D01*
X10543668Y-1903698D01*
X10854737Y-1438151D01*
X10963970Y-889000D01*
X10854737Y-339849D01*
X10543668Y125698D01*
X10275287Y305025D01*
X10510483Y373834D01*
X10948500Y726104D01*
X11218367Y1219181D01*
X11235904Y1301961D01*
X11235904Y-9271000D01*
X1097000Y-9271000D01*
X1097000Y-7404000D01*
X1097000Y-6096000D01*
X-345915Y-6096000D01*
X-467904Y-6318039D01*
X-450367Y-6400819D01*
X-180500Y-6893896D01*
X257517Y-7246166D01*
X797000Y-7404000D01*
X1097000Y-7404000D01*
X1097000Y-9271000D01*
X-619488Y-9271000D01*
X-619488Y-5080000D01*
X-694197Y-4704411D01*
X-694197Y-1611275D01*
X-694197Y-928725D01*
X-712843Y-826695D01*
X-983290Y-353676D01*
X-1414167Y-20159D01*
X-1939877Y123081D01*
X-2159000Y-37614D01*
X-2159000Y-1143000D01*
X-816851Y-1143000D01*
X-694197Y-928725D01*
X-694197Y-1611275D01*
X-816851Y-1397000D01*
X-2159000Y-1397000D01*
X-2159000Y-2502386D01*
X-1939877Y-2663081D01*
X-1414167Y-2519841D01*
X-983290Y-2186324D01*
X-712843Y-1713305D01*
X-694197Y-1611275D01*
X-694197Y-4704411D01*
X-724958Y-4549765D01*
X-1025312Y-4100254D01*
X-1474823Y-3799900D01*
X-2005058Y-3694430D01*
X-2566942Y-3694430D01*
X-3097177Y-3799900D01*
X-3546688Y-4100254D01*
X-3847042Y-4549765D01*
X-3952512Y-5080000D01*
X-3847042Y-5610235D01*
X-3546688Y-6059746D01*
X-3097177Y-6360100D01*
X-2566942Y-6465570D01*
X-2005058Y-6465570D01*
X-1474823Y-6360100D01*
X-1025312Y-6059746D01*
X-724958Y-5610235D01*
X-619488Y-5080000D01*
X-619488Y-9271000D01*
X-4748016Y-9271000D01*
X-4295765Y-9181042D01*
X-3846254Y-8880688D01*
X-3545900Y-8431177D01*
X-3440430Y-7900942D01*
X-3440430Y-7339058D01*
X-3545900Y-6808823D01*
X-3846254Y-6359312D01*
X-4295765Y-6058958D01*
X-4826000Y-5953488D01*
X-5356235Y-6058958D01*
X-5699488Y-6288312D01*
X-5699488Y-5080000D01*
X-5804958Y-4549765D01*
X-6105312Y-4100254D01*
X-6554823Y-3799900D01*
X-7085058Y-3694430D01*
X-7646942Y-3694430D01*
X-8177177Y-3799900D01*
X-8626688Y-4100254D01*
X-8927042Y-4549765D01*
X-9032512Y-5080000D01*
X-8927042Y-5610235D01*
X-8626688Y-6059746D01*
X-8177177Y-6360100D01*
X-7646942Y-6465570D01*
X-7085058Y-6465570D01*
X-6554823Y-6360100D01*
X-6105312Y-6059746D01*
X-5804958Y-5610235D01*
X-5699488Y-5080000D01*
X-5699488Y-6288312D01*
X-5805746Y-6359312D01*
X-6106100Y-6808823D01*
X-6211570Y-7339058D01*
X-6211570Y-7900942D01*
X-6106100Y-8431177D01*
X-5805746Y-8880688D01*
X-5356235Y-9181042D01*
X-4903985Y-9271000D01*
X-13638016Y-9271000D01*
X-13185765Y-9181042D01*
X-12736254Y-8880688D01*
X-12435900Y-8431177D01*
X-12330430Y-7900942D01*
X-12330430Y-7339058D01*
X-12435900Y-6808823D01*
X-12736254Y-6359312D01*
X-13185765Y-6058958D01*
X-13716000Y-5953488D01*
X-14246235Y-6058958D01*
X-14695746Y-6359312D01*
X-14985973Y-6793665D01*
X-15276657Y-6358625D01*
X-15354316Y-6306734D01*
X-14953290Y-5996324D01*
X-14682843Y-5523305D01*
X-14664197Y-5421275D01*
X-14664197Y-4738725D01*
X-14682843Y-4636695D01*
X-14953290Y-4163676D01*
X-15384167Y-3830159D01*
X-15909877Y-3686919D01*
X-16129000Y-3847614D01*
X-16129000Y-4953000D01*
X-14786851Y-4953000D01*
X-14664197Y-4738725D01*
X-14664197Y-5421275D01*
X-14786851Y-5207000D01*
X-16129000Y-5207000D01*
X-16129000Y-5227000D01*
X-16383000Y-5227000D01*
X-16383000Y-5207000D01*
X-16403000Y-5207000D01*
X-16403000Y-4953000D01*
X-16383000Y-4953000D01*
X-16383000Y-3847614D01*
X-16431103Y-3812338D01*
X-15627382Y-3008618D01*
X-15434671Y-2720206D01*
X-15434670Y-2720205D01*
X-15394093Y-2516202D01*
X-15394092Y-2516202D01*
X-14995312Y-2249746D01*
X-14694958Y-1800235D01*
X-14589488Y-1270000D01*
X-14694958Y-739765D01*
X-14995312Y-290254D01*
X-15444823Y10100D01*
X-15975058Y115570D01*
X-16536942Y115570D01*
X-17067177Y10100D01*
X-17516688Y-290254D01*
X-17817042Y-739765D01*
X-17922512Y-1270000D01*
X-17817042Y-1800235D01*
X-17516688Y-2249746D01*
X-17436538Y-2303301D01*
X-19244236Y-4111000D01*
X-25716708Y-4111000D01*
X-26022760Y-3652962D01*
X-26640786Y-3240009D01*
X-27369798Y-3095000D01*
X-30034202Y-3095000D01*
X-30763214Y-3240009D01*
X-31381240Y-3652962D01*
X-31794193Y-4270988D01*
X-31939202Y-5000000D01*
X-31794193Y-5729012D01*
X-31381240Y-6347038D01*
X-30763214Y-6759991D01*
X-30034202Y-6905000D01*
X-27369798Y-6905000D01*
X-26640786Y-6759991D01*
X-26022760Y-6347038D01*
X-25716708Y-5889000D01*
X-19244236Y-5889000D01*
X-19116514Y-6016722D01*
X-19326017Y-6058395D01*
X-19775343Y-6358625D01*
X-20075573Y-6807951D01*
X-20181000Y-7337968D01*
X-20181000Y-7902032D01*
X-20075573Y-8432049D01*
X-19775343Y-8881375D01*
X-19326017Y-9181605D01*
X-18876599Y-9271000D01*
X-30619764Y-9271000D01*
X-37230674Y-2660090D01*
X-37230674Y7993305D01*
X-37517043Y8686372D01*
X-38046839Y9217093D01*
X-38739405Y9504672D01*
X-39489305Y9505326D01*
X-40182372Y9218957D01*
X-40713093Y8689161D01*
X-41000672Y7996595D01*
X-41001326Y7246695D01*
X-40714957Y6553628D01*
X-40185161Y6022907D01*
X-39492595Y5735328D01*
X-38742695Y5734674D01*
X-38049628Y6021043D01*
X-37518907Y6550839D01*
X-37231328Y7243405D01*
X-37230674Y7993305D01*
X-37230674Y-2660090D01*
X-39000560Y-890204D01*
X-39000560Y4000000D01*
X-39108922Y4358572D01*
X-39288865Y4538703D01*
X-42288865Y6538703D01*
X-42639874Y6647389D01*
X-42890123Y6600463D01*
X-43102927Y6460673D01*
X-43245377Y6249640D01*
X-43295440Y6000000D01*
X-43295440Y-6000000D01*
X-43191168Y-6352346D01*
X-43013309Y-6534535D01*
X-42778955Y-6634058D01*
X-42524348Y-6635523D01*
X-42288865Y-6538703D01*
X-39288865Y-4538703D01*
X-39050623Y-4249640D01*
X-39000560Y-4000000D01*
X-39000560Y-3404676D01*
X-32013236Y-10392000D01*
X-37230674Y-10392000D01*
X-37230674Y-7246695D01*
X-37517043Y-6553628D01*
X-38046839Y-6022907D01*
X-38739405Y-5735328D01*
X-39489305Y-5734674D01*
X-40182372Y-6021043D01*
X-40713093Y-6550839D01*
X-41000672Y-7243405D01*
X-41001326Y-7993305D01*
X-40714957Y-8686372D01*
X-40185161Y-9217093D01*
X-39492595Y-9504672D01*
X-38742695Y-9505326D01*
X-38049628Y-9218957D01*
X-37518907Y-8689161D01*
X-37231328Y-7996595D01*
X-37230674Y-7246695D01*
X-37230674Y-10392000D01*
X-39514611Y-10392000D01*
X-41213635Y-10054043D01*
X-42592629Y-9132628D01*
X-43514044Y-7753634D01*
X-43852000Y-6054610D01*
X-43852000Y5800611D01*
X-43514044Y7499635D01*
X-42592629Y8878629D01*
X-41213635Y9800044D01*
X-39514611Y10138000D01*
X19410501Y10138000D01*
X18976907Y9705161D01*
X18689328Y9012595D01*
X18688674Y8262695D01*
X18975043Y7569628D01*
X19305094Y7239000D01*
X17272000Y7239000D01*
X16931794Y7171329D01*
X16643382Y6978618D01*
X13105582Y3440819D01*
X12954000Y3470970D01*
X12443692Y3369463D01*
X12011073Y3080397D01*
X11722007Y2647778D01*
X11620500Y2137470D01*
X11620500Y1164530D01*
X11722007Y654222D01*
X12011073Y221603D01*
X12443692Y-67463D01*
X12954000Y-168970D01*
X13464308Y-67463D01*
X13896927Y221603D01*
X14185993Y654222D01*
X14224000Y845296D01*
X14262007Y654222D01*
X14551073Y221603D01*
X14983692Y-67463D01*
X15494000Y-168970D01*
X16004308Y-67463D01*
X16436927Y221603D01*
X16725993Y654222D01*
X16751369Y781796D01*
X16802007Y527222D01*
X17091073Y94603D01*
X17523692Y-194463D01*
X18034000Y-295970D01*
X18544308Y-194463D01*
X18976927Y94603D01*
X19037300Y184958D01*
X19037300Y127000D01*
X20815300Y127000D01*
X20815300Y3011626D01*
X20519519Y3127493D01*
X20330621Y3078591D01*
X19685064Y2706841D01*
X19322700Y2235692D01*
X19265993Y2520778D01*
X18976927Y2953397D01*
X18544308Y3242463D01*
X18034000Y3343970D01*
X17523692Y3242463D01*
X17091073Y2953397D01*
X16802007Y2520778D01*
X16776630Y2393205D01*
X16725993Y2647778D01*
X16436927Y3080397D01*
X16004308Y3369463D01*
X15624289Y3445054D01*
X17640236Y5461000D01*
X39763764Y5461000D01*
X42202881Y3021883D01*
X42176700Y3011626D01*
X42176700Y127000D01*
X42196700Y127000D01*
X42196700Y-127000D01*
X42176700Y-127000D01*
X42176700Y-3011626D01*
X42472481Y-3127493D01*
X42661379Y-3078591D01*
X43306936Y-2706841D01*
X43572560Y-2361473D01*
X43572560Y-4000000D01*
X43680922Y-4358572D01*
X43860865Y-4538703D01*
X46860865Y-6538703D01*
X47211874Y-6647389D01*
X47462123Y-6600463D01*
X47674927Y-6460673D01*
X47817377Y-6249640D01*
X47867440Y-6000000D01*
X47867440Y6000000D01*
X47763168Y6352346D01*
X47585309Y6534535D01*
X47350955Y6634058D01*
X47096348Y6635523D01*
X46860865Y6538703D01*
X44321000Y4845460D01*
X44321000Y7451030D01*
X44321000Y8296970D01*
X44214660Y8831579D01*
X43911828Y9284798D01*
X43458609Y9587630D01*
X42924000Y9693970D01*
X42389391Y9587630D01*
X41936172Y9284798D01*
X41633340Y8831579D01*
X41527000Y8296970D01*
X41527000Y7451030D01*
X41633340Y6916421D01*
X41936172Y6463202D01*
X42389391Y6160370D01*
X42924000Y6054030D01*
X43458609Y6160370D01*
X43911828Y6463202D01*
X44214660Y6916421D01*
X44321000Y7451030D01*
X44321000Y4845460D01*
X43860865Y4538703D01*
X43622623Y4249640D01*
X43600401Y4138835D01*
X40760618Y6978618D01*
X40472206Y7171329D01*
X40132000Y7239000D01*
X21842681Y7239000D01*
X22171093Y7566839D01*
X22458672Y8259405D01*
X22459326Y9009305D01*
X22172957Y9702372D01*
X21738088Y10138000D01*
X44340610Y10138000D01*
X46039634Y9800044D01*
X47418628Y8878629D01*
X48340043Y7499635D01*
X48678000Y5800611D01*
X48678000Y-6054610D01*
M02*
