M48
;DRILL file {KiCad (after 2015-may-01 BZR unknown)-product} date 16/06/2015 22:19:36
;FORMAT={-:-/ absolute / inch / decimal}
FMAT,2
INCH,TZ
T1C0.028
T2C0.031
T3C0.032
T4C0.032
T5C0.040
%
G90
G05
M72
T1
X4.65Y-3.4016
X4.65Y-3.5
T2
X3.33Y-3.55
X3.43Y-3.65
X3.53Y-3.55
X3.68Y-3.55
X3.78Y-3.65
X3.88Y-3.55
X4.06Y-3.28
X4.06Y-3.38
X4.06Y-3.48
X4.06Y-3.58
X4.36Y-3.28
X4.36Y-3.38
X4.36Y-3.48
X4.36Y-3.58
T3
X3.12Y-3.41
X3.12Y-3.51
X3.83Y-3.27
X3.83Y-3.37
T4
X4.52Y-3.27
X4.52Y-3.57
X4.77Y-3.31
X4.77Y-3.61
X4.89Y-3.32
X4.89Y-3.62
T5
X3.31Y-3.33
X3.41Y-3.33
X3.62Y-3.27
X3.62Y-3.37
X5.1Y-3.44
X5.1Y-3.54
T0
M30
