G04 #@! TF.FileFunction,Copper,L1,Top,Signal*
%FSLAX46Y46*%
G04 Gerber Fmt 4.6, Leading zero omitted, Abs format (unit mm)*
G04 Created by KiCad (PCBNEW (after 2015-may-01 BZR unknown)-product) date 16/06/2015 22:19:31*
%MOMM*%
G01*
G04 APERTURE LIST*
%ADD10C,0.150000*%
%ADD11R,2.032000X2.032000*%
%ADD12O,2.032000X2.032000*%
%ADD13C,1.501140*%
%ADD14R,1.200000X1.200000*%
%ADD15C,1.200000*%
%ADD16C,1.397000*%
%ADD17O,2.300000X1.600000*%
%ADD18O,1.501140X1.998980*%
%ADD19O,1.998980X1.501140*%
G04 APERTURE END LIST*
D10*
X95582740Y-85328760D02*
X95582740Y-84828380D01*
X95582740Y-85328760D02*
X95082360Y-85328760D01*
X95582740Y-85829140D02*
X95582740Y-85328760D01*
X95582740Y-85328760D02*
X95981520Y-85328760D01*
X95981520Y-85328760D02*
X96083120Y-85328760D01*
X77548740Y-88884760D02*
X77548740Y-88384380D01*
X77548740Y-88884760D02*
X77048360Y-88884760D01*
X77548740Y-89385140D02*
X77548740Y-88884760D01*
X77548740Y-88884760D02*
X77947520Y-88884760D01*
X77947520Y-88884760D02*
X78049120Y-88884760D01*
D11*
X91948000Y-85598000D03*
D12*
X91948000Y-83058000D03*
D13*
X97282000Y-83058000D03*
X97282000Y-85598000D03*
D14*
X118110000Y-88900000D03*
D15*
X118110000Y-86400000D03*
D13*
X79248000Y-86614000D03*
X79248000Y-89154000D03*
D11*
X129540000Y-89916000D03*
D12*
X129540000Y-87376000D03*
D11*
X84074000Y-84582000D03*
D12*
X86614000Y-84582000D03*
D16*
X124206000Y-91948000D03*
X124206000Y-84328000D03*
X121158000Y-84074000D03*
X121158000Y-91694000D03*
D17*
X103124000Y-83312000D03*
X103124000Y-85852000D03*
X103124000Y-88392000D03*
X103124000Y-90932000D03*
X110744000Y-90932000D03*
X110744000Y-88392000D03*
X110744000Y-85852000D03*
X110744000Y-83312000D03*
D16*
X114808000Y-90678000D03*
X114808000Y-83058000D03*
D18*
X87122000Y-92710000D03*
D19*
X89662000Y-90170000D03*
X84582000Y-90170000D03*
D18*
X96012000Y-92710000D03*
D19*
X98552000Y-90170000D03*
X93472000Y-90170000D03*
M02*
