G04 #@! TF.FileFunction,Soldermask,Top*
%FSLAX46Y46*%
G04 Gerber Fmt 4.6, Leading zero omitted, Abs format (unit mm)*
G04 Created by KiCad (PCBNEW 4.0.2+dfsg1-stable) date vie 27 ene 2017 02:06:00 CET*
%MOMM*%
G01*
G04 APERTURE LIST*
%ADD10C,0.150000*%
%ADD11O,4.500000X3.000000*%
%ADD12O,3.000000X7.000000*%
%ADD13O,1.200000X1.200000*%
%ADD14O,2.500000X2.500000*%
%ADD15O,1.600000X3.000000*%
%ADD16O,1.397000X2.300000*%
%ADD17O,1.524000X2.300000*%
%ADD18O,2.300000X1.524000*%
%ADD19R,1.998980X1.998980*%
%ADD20O,2.000000X2.800000*%
%ADD21R,1.500000X2.000000*%
%ADD22O,1.500000X2.000000*%
%ADD23O,2.200000X1.200000*%
%ADD24R,0.600000X1.550000*%
G04 APERTURE END LIST*
D10*
D11*
X-22225000Y3175000D03*
X-22225000Y-8255000D03*
X33020000Y3175000D03*
D12*
X-35560000Y4365000D03*
X-35560000Y-5635000D03*
D13*
X-11430000Y-1350000D03*
X-16430000Y-8850000D03*
X-6430000Y-8850000D03*
X-6430000Y-6350000D03*
D14*
X-11430000Y-6350000D03*
D13*
X-16430000Y-6350000D03*
D15*
X-13930000Y-1350000D03*
X-16430000Y-1350000D03*
X-6430000Y-1350000D03*
X-8930000Y-1350000D03*
D10*
G36*
X38965000Y-7635000D02*
X35965000Y-6635000D01*
X35965000Y5365000D01*
X38965000Y6365000D01*
X38965000Y-7635000D01*
X38965000Y-7635000D01*
G37*
D16*
X15875000Y5715000D03*
X18415000Y5715000D03*
X-18415000Y5715000D03*
X-15875000Y5715000D03*
D17*
X4445000Y5080000D03*
D18*
X6215000Y7485000D03*
X2715000Y7485000D03*
D17*
X10160000Y5715000D03*
D18*
X8390000Y3310000D03*
X11890000Y3310000D03*
D17*
X-1270000Y5715000D03*
D18*
X-3040000Y3310000D03*
X460000Y3310000D03*
D17*
X-6985000Y5080000D03*
D18*
X-5215000Y7485000D03*
X-8715000Y7485000D03*
D10*
G36*
X-49760000Y6365000D02*
X-46760000Y5365000D01*
X-46760000Y-6635000D01*
X-49760000Y-7635000D01*
X-49760000Y6365000D01*
X-49760000Y6365000D01*
G37*
G36*
X24693880Y-6973000D02*
X22296120Y-6973000D01*
X22694900Y-4473000D01*
X24295100Y-4473000D01*
X24693880Y-6973000D01*
X24693880Y-6973000D01*
G37*
G36*
X22296120Y-647000D02*
X24693880Y-647000D01*
X24295100Y-3147000D01*
X22694900Y-3147000D01*
X22296120Y-647000D01*
X22296120Y-647000D01*
G37*
D19*
X23495000Y-7620000D03*
X23495000Y0D03*
D10*
G36*
X7056120Y-647000D02*
X9453880Y-647000D01*
X9055100Y-3147000D01*
X7454900Y-3147000D01*
X7056120Y-647000D01*
X7056120Y-647000D01*
G37*
G36*
X9453880Y-6973000D02*
X7056120Y-6973000D01*
X7454900Y-4473000D01*
X9055100Y-4473000D01*
X9453880Y-6973000D01*
X9453880Y-6973000D01*
G37*
D19*
X8255000Y0D03*
X8255000Y-7620000D03*
D10*
G36*
X6278880Y-6973000D02*
X3881120Y-6973000D01*
X4279900Y-4473000D01*
X5880100Y-4473000D01*
X6278880Y-6973000D01*
X6278880Y-6973000D01*
G37*
G36*
X3881120Y-647000D02*
X6278880Y-647000D01*
X5880100Y-3147000D01*
X4279900Y-3147000D01*
X3881120Y-647000D01*
X3881120Y-647000D01*
G37*
D19*
X5080000Y-7620000D03*
X5080000Y0D03*
D10*
G36*
X25471120Y-647000D02*
X27868880Y-647000D01*
X27470100Y-3147000D01*
X25869900Y-3147000D01*
X25471120Y-647000D01*
X25471120Y-647000D01*
G37*
G36*
X27868880Y-6973000D02*
X25471120Y-6973000D01*
X25869900Y-4473000D01*
X27470100Y-4473000D01*
X27868880Y-6973000D01*
X27868880Y-6973000D01*
G37*
D19*
X26670000Y0D03*
X26670000Y-7620000D03*
D10*
G36*
X706120Y-647000D02*
X3103880Y-647000D01*
X2705100Y-3147000D01*
X1104900Y-3147000D01*
X706120Y-647000D01*
X706120Y-647000D01*
G37*
G36*
X3103880Y-6973000D02*
X706120Y-6973000D01*
X1104900Y-4473000D01*
X2705100Y-4473000D01*
X3103880Y-6973000D01*
X3103880Y-6973000D01*
G37*
D19*
X1905000Y0D03*
X1905000Y-7620000D03*
D10*
G36*
X-2468880Y-647000D02*
X-71120Y-647000D01*
X-469900Y-3147000D01*
X-2070100Y-3147000D01*
X-2468880Y-647000D01*
X-2468880Y-647000D01*
G37*
G36*
X-71120Y-6973000D02*
X-2468880Y-6973000D01*
X-2070100Y-4473000D01*
X-469900Y-4473000D01*
X-71120Y-6973000D01*
X-71120Y-6973000D01*
G37*
D19*
X-1270000Y0D03*
X-1270000Y-7620000D03*
D20*
X32510000Y6985000D03*
X-12190000Y6985000D03*
D21*
X23495000Y5815000D03*
D22*
X26035000Y5815000D03*
X28575000Y5815000D03*
D23*
X12065000Y-2540000D03*
D24*
X13970000Y-6510000D03*
X15240000Y-6510000D03*
X16510000Y-6510000D03*
X17780000Y-6510000D03*
X17780000Y-1110000D03*
X16510000Y-1110000D03*
X15240000Y-1110000D03*
X13970000Y-1110000D03*
D23*
X12065000Y0D03*
X12065000Y-5080000D03*
X12065000Y-7620000D03*
X19685000Y-7620000D03*
X19685000Y-5080000D03*
X19685000Y-2540000D03*
X19685000Y0D03*
D11*
X33020000Y-8255000D03*
M02*
