G04 #@! TF.FileFunction,Soldermask,Top*
%FSLAX46Y46*%
G04 Gerber Fmt 4.6, Leading zero omitted, Abs format (unit mm)*
G04 Created by KiCad (PCBNEW (after 2015-may-01 BZR unknown)-product) date 28/10/2015 1:31:10*
%MOMM*%
G01*
G04 APERTURE LIST*
%ADD10C,0.150000*%
%ADD11O,5.080000X2.540000*%
%ADD12O,1.397000X2.300000*%
%ADD13O,2.300000X1.397000*%
%ADD14O,2.300000X1.600000*%
%ADD15O,2.200000X1.600000*%
%ADD16O,1.501140X1.998980*%
%ADD17O,1.998980X1.501140*%
%ADD18O,2.540000X5.080000*%
%ADD19C,10.000000*%
%ADD20R,0.600000X1.550000*%
%ADD21O,1.500000X2.000000*%
%ADD22O,1.524000X2.300000*%
G04 APERTURE END LIST*
D10*
D11*
X-28702000Y5000000D03*
X-28702000Y-5000000D03*
D12*
X-7874000Y6604000D03*
X-5334000Y6604000D03*
D13*
X-1778000Y1778000D03*
X-1778000Y4278000D03*
D12*
X-16764000Y6604000D03*
X-14224000Y6604000D03*
X15494000Y-5969000D03*
X15494000Y1651000D03*
X12954000Y1651000D03*
X12954000Y-5969000D03*
D14*
X1524000Y1651000D03*
X1524000Y-889000D03*
X1524000Y-3429000D03*
D15*
X1224000Y-5969000D03*
D14*
X9144000Y-5969000D03*
X9144000Y-3429000D03*
X9144000Y-889000D03*
D15*
X9544000Y1651000D03*
D12*
X18034000Y-6096000D03*
X18034000Y1524000D03*
D16*
X-4826000Y1270000D03*
D17*
X-7366000Y-1270000D03*
X-2286000Y-1270000D03*
D16*
X-13716000Y1270000D03*
D17*
X-16256000Y-1270000D03*
X-11176000Y-1270000D03*
D16*
X-13716000Y-7620000D03*
D17*
X-11176000Y-5080000D03*
X-16256000Y-5080000D03*
D16*
X-4826000Y-7620000D03*
D17*
X-2286000Y-5080000D03*
X-7366000Y-5080000D03*
D18*
X42049700Y0D03*
D19*
X31496000Y0D03*
D18*
X20942300Y0D03*
D10*
G36*
X-42648000Y6000000D02*
X-39648000Y4000000D01*
X-39648000Y-4000000D01*
X-42648000Y-6000000D01*
X-42648000Y6000000D01*
X-42648000Y6000000D01*
G37*
G36*
X47220000Y-6000000D02*
X44220000Y-4000000D01*
X44220000Y4000000D01*
X47220000Y6000000D01*
X47220000Y-6000000D01*
X47220000Y-6000000D01*
G37*
D20*
X3429000Y-4859000D03*
X4699000Y-4859000D03*
X5969000Y-4859000D03*
X7239000Y-4859000D03*
X7239000Y541000D03*
X5969000Y541000D03*
X4699000Y541000D03*
X3429000Y541000D03*
D21*
X-11684000Y3302000D03*
X-9144000Y3302000D03*
X-18796000Y-7620000D03*
X-16256000Y-7620000D03*
D22*
X42924000Y7874000D03*
X-1776000Y7874000D03*
M02*
